<svg xmlns="http://www.w3.org/2000/svg" version="1.1" xmlns:xlink="http://www.w3.org/1999/xlink" xmlns:svgjs="http://svgjs.dev/svgjs" viewBox="0 0 800 800" opacity="0.23"><defs><linearGradient x1="50%" y1="0%" x2="50%" y2="100%" id="uundulate-grad"><stop stop-color="#ffd700" stop-opacity="1" offset="45%"></stop><stop stop-color="#444444" stop-opacity="1" offset="100%"></stop></linearGradient></defs><g stroke-width="2" stroke="url(#uundulate-grad)" fill="none"><path d="M687.9033177120183 -9.241490606330899C759.6786235773229 117.93798789009281 748.9603363507865 513.7352506375079 670.1555824447829 689.6039651440713C591.3508285387794 865.4726796506347 421.2385553014626 873.2353119092031 309.6404989632009 834.928339025173C198.04244262493916 796.621366141143 185.63565790097272 612.0561815009635 134.48491202112632 505.7304953007274C83.33416614127992 399.4048091004913 62.22003509589871 399.2578719691728 64.11691873993806 324.56504526404115C66.0138023839774 249.87221855890925 89.1072044393108 198.33463063751253 143.58995351251548 147.20492711609518C198.0727025857201 96.07522359467771 212.23549674975845 111.73547205340844 325.63411429132145 79.14246836123658C439.03273183288434 46.54946466906472 616.1280118467135 -136.4209691027546 687.9033177120183 -9.241490606330899C759.6786235773229 117.93798789009281 748.9603363507865 513.7352506375079 670.1555824447829 689.6039651440713 "></path><path d="M681.9053331979169 -0.7156147746072179C752.1853201910278 123.81429125314094 741.6903306150443 511.36577769331825 664.5273424154158 683.5705606476618C587.3643542157872 855.7753436020053 420.7960866709145 863.3762543551866 311.5229898396999 825.8673434062403C202.24989300848534 788.3584324572944 190.1015829662682 607.6383558304518 140.01647762558525 503.5277880927207C89.93137228490235 399.4172203549896 69.25711896963327 399.2733444139069 71.11448420442179 326.13661826513203C72.9718494392103 252.99989211635716 95.58413895172424 202.53600394332284 148.93183075257048 152.47150257860164C202.2795225534167 102.40700121388033 216.14725850570426 117.74099449638754 327.18340484848477 85.82701171446928C438.21955119126505 53.913028932551015 611.6253462048061 -125.24552080235543 681.9053331979169 -0.7156147746072179C752.1853201910278 123.81429125314094 741.6903306150443 511.36577769331825 664.5273424154158 683.5705606476618 "></path><path d="M675.9072876486595 7.810261057116463C744.6919557695765 129.69059461618917 734.4202638441457 508.9963047491286 658.8990413508923 677.537156151252C583.3778188576389 846.0780075533753 420.3535570052103 853.51719680117 313.40541968104276 816.8063477873079C206.45728235687528 780.0954987734458 194.5674469964074 603.2205301599402 145.547982194888 501.325080884714C96.52851739336853 399.42963160948784 76.29414180821152 399.288816858641 78.1119886337492 327.708191266223C79.92983545928695 256.12756567380507 102.06101242898148 206.73737724913315 154.27364695746928 157.7380780411081C206.48628148595708 108.73877883308307 220.0589592264938 123.74651693936676 328.7326343704916 92.51155506770198C437.4063095144895 61.276593196037254 607.1226195277424 -114.07007250195625 675.9072876486595 7.810261057116463C744.6919557695765 129.69059461618917 734.4202638441457 508.9963047491286 658.8990413508923 677.537156151252 "></path><path d="M669.9092726169799 16.33610637126202C737.1986218657031 135.56686746165917 727.1502275908252 506.6268012873609 653.2707708039469 671.5037211372642C579.3913140170686 836.3806409871672 419.9110578570842 843.6581087295751 315.28788003996374 807.745321650797C210.66470222284335 771.8325345720189 199.03334154412482 598.8026739718504 151.0795172817688 499.1223431591292C103.12569301941284 399.44201234640786 83.33119516436795 399.30425878579683 85.10952358065481 329.2797337497358C86.88785199694172 259.25520871367485 108.5379164238168 210.93872003736533 159.61549367994616 163.00462298603645C210.69307093607551 115.07052593470758 223.9706904648615 129.75200886476767 330.2818944100768 99.19606790335655C436.5930983552921 68.64012694194543 602.6199233682569 -102.89465471913519 669.9092726169799 16.33610637126202C737.1986218657031 135.56686746165917 727.1502275908252 506.6268012873609 653.2707708039469 671.5037211372642 "></path><path d="M663.9112881028788 24.861951685407575C729.705318479408 141.44314030712928 719.8802218550829 504.2572978255931 647.6425307745797 665.4702861232763C575.4048396940764 826.6832744209596 419.4685892265361 833.7990206579805 317.17037091646284 798.6842955142863C214.87215260638953 763.5695703705921 203.49926660942026 594.3848177837607 156.6110828862278 496.91960543354435C109.72289916303527 399.4543930833279 90.36827903810246 399.3197007129527 92.10708904513854 330.85127623324865C93.84589905217462 262.3828517535445 115.01485093623023 215.1400628255974 164.95737092000115 168.2711679309648C214.89989090377208 121.40227303633213 227.88245222080724 135.7575007901687 331.83118496724 105.88058073901112C435.7799177136727 76.0036606878536 598.1172577263494 -91.71923693631413 663.9112881028788 24.861951685407575C729.705318479408 141.44314030712928 719.8802218550829 504.2572978255931 647.6425307745797 665.4702861232763 "></path><path d="M657.9133035887774 33.38788855228751C722.2120150931129 147.31950470533377 712.6102161193406 501.88788591655975 642.0142907452125 659.4369426620228C571.4183653710843 816.9859994074859 419.026120595988 823.9400241391202 319.05286179296195 789.6233609305098C219.07960298993572 755.3066977218996 207.9651916747158 589.9670531484054 162.14264849068672 494.716959260694C116.3201053066577 399.4668653729825 97.40536291183702 399.335234192843 99.10465450962226 332.4229102694958C100.80394610740751 265.51058634614856 121.49178544864367 219.34149716656395 170.2992481600562 173.5378044286275C219.1067108714687 127.73411169069107 231.79421397675304 141.76308426830406 333.3804755244032 112.56518512740007C434.9667370720533 83.36728598649609 593.6145920844419 -80.5437276007587 657.9133035887774 33.38788855228751C722.2120150931129 147.31950470533377 712.6102161193406 501.88788591655975 642.0142907452125 659.4369426620228 "></path><path d="M651.9153495922542 41.91373386643306C714.7187422243959 153.19577755080383 705.3402409011765 499.5183824547921 636.3860812334234 653.403507648035C567.4319215656702 807.2886328412781 418.58368248301804 814.0809360675253 320.93538318703906 780.5623347939991C223.28708389106004 747.0437335204729 212.43114725758937 585.5491969603156 167.67424461272378 492.5142215351091C122.91734196785825 399.47924610990253 104.44247730314964 399.350676119999 106.10225049168406 333.99445275300866C107.76202368021853 268.63822938601834 127.96875047863523 223.54283995479614 175.64115591768933 178.80434937355585C223.31356135674343 134.06585879231562 235.70600625027691 147.76857619370503 334.92979659914454 119.24969796305464C434.15358694801216 90.73081973240426 589.1119569601126 -69.36830981793764 651.9153495922542 41.91373386643306C714.7187422243959 153.19577755080383 705.3402409011765 499.5183824547921 636.3860812334234 653.403507648035 "></path><path d="M645.9173345605749 50.439518145422426C707.2254083205227 159.07198936111763 698.070204647856 497.148817957868 630.757810686478 647.370011598891C563.4454167251 797.591205239914 418.14118333489193 804.2217869607744 322.81784354596005 771.5012476223321C227.4945037570281 738.7807082838899 216.89704180530674 581.1312797370697 173.20577969960465 490.3114227743681C129.5145175939025 399.4915658116664 111.47953065930608 399.3660570119987 113.09978543858966 335.5659342013653C114.7200402178733 271.76581139073187 134.4456544734706 227.74412170787207 180.9830026401662 184.07083328332806C227.52035080686187 140.39754485878393 239.6177374886446 153.77400708394975 336.4790566387296 125.93414976355297C433.34037578881475 98.09429244315618 584.609260800627 -58.192953070272836 645.9173345605749 50.439518145422426C707.2254083205227 159.07198936111763 698.070204647856 497.148817957868 630.757810686478 647.370011598891 "></path><path d="M639.9193500464735 58.96548552988048C699.7321049342274 164.94838427690024 690.8001989121137 494.77943656641287 625.1295706571109 641.3366986552157C559.4589424021078 787.8939607440186 417.69871470434396 794.3628209594922 324.70033442245904 762.4403435561339C231.7019541405743 730.5178661527757 221.36296687060224 576.7135456192924 178.73734530406358 488.1088071190958C136.11172373752493 399.50406861889905 118.51661453304058 399.38162100946704 120.09735090307339 337.13759875519054C121.67808727310614 274.89357650091404 140.92258898588403 231.94558656641675 186.32487988022126 189.33750029856878C231.72717077455843 146.729414030721 243.5294992445904 159.7796210796633 338.0283471958928 132.61878466952004C432.52719514719536 105.45794825937685 580.1065951587195 -47.01741321713928 639.9193500464735 58.96548552988048C699.7321049342274 164.94838427690024 690.8001989121137 494.77943656641287 625.1295706571109 641.3366986552157 "></path><path d="M633.9213655323722 67.49130032644791C692.2388015479323 170.82462660479212 683.5301931763715 492.4099025870669 619.5013306277435 635.3032331236498C555.4724680791157 778.1965636602324 417.25624607379586 784.5037023703192 326.58282529895814 753.3792869020449C235.90940452412048 722.2548714337704 225.82889193589773 572.2956589136245 184.26891090852257 485.90603887593284C142.70892988114736 399.51641883824095 125.55369840677514 399.39703241904476 127.09491636755712 338.70911072112517C128.63613432833904 278.0211890232056 147.39952349829747 236.1468988370707 191.66675712027626 194.60401472591911C235.93399074225505 153.06113061476742 247.4412610005362 165.7850824874862 339.57763775305614 139.3032669875965C431.71401450557596 112.82145148770684 575.6039295168123 -35.84202595189629 633.9213655323722 67.49130032644791C692.2388015479323 170.82462660479212 683.5301931763715 492.4099025870669 619.5013306277435 635.3032331236498 "></path><path d="M627.9234420534272 76.01714564059347C684.7455591967935 176.70089945026223 676.2602484757854 490.04039912529925 613.8731516335326 629.2697981096619C551.4860547912798 768.4991970940246 416.813838478404 774.6446142987245 328.4653772106135 744.318260765534C240.1169159428229 713.9919072323437 230.29487803634947 567.8778027255348 189.80053754813775 483.7033011503479C149.30619705992603 399.5287995751611 132.5908433156659 399.4124743462007 134.09254286719704 340.28065320463804C135.5942424187282 281.14883206307536 153.87651904586716 240.34824162530288 197.0086953954875 199.87055967084746C240.14087174510786 159.39287771639192 251.3530837916382 171.79057441288717 341.1269893453756 145.98777982325112C430.9008948991129 120.18498523361501 571.1013249100611 -24.66660816907529 627.9234420534272 76.01714564059347C684.7455591967935 176.70089945026223 676.2602484757854 490.04039912529925 613.8731516335326 629.2697981096619 "></path><path d="M621.9253965041696 84.54305198989528C677.252194775342 182.5772333308886 668.9901817048868 487.67095669868775 608.2448505690091 623.2364241308303C547.4995194331314 758.801891562973 416.3713088126997 764.7855872622861 330.34780705195635 735.2572956641798C244.3243052912129 705.7290040660731 234.76074206648872 563.4600075726014 195.3320421174405 481.50062445991944C155.90334216839221 399.5412413472375 139.6278661542442 399.4279773085128 141.09004729652452 341.85225672330716C142.55222843880483 284.2765361381014 160.35339252312434 244.5496454486913 202.35051160038626 205.13716565093205C244.34763067764823 165.7246858531728 255.26478451242775 177.7961273734444 342.67621886738254 152.67235369406194C430.0876532223374 127.54858001467943 566.5985982329973 -13.491129351097925 621.9253965041696 84.54305198989528C677.252194775342 182.5772333308886 668.9901817048868 487.67095669868775 608.2448505690091 623.2364241308303 "></path><path d="M615.9274577664355 93.06889730404089C669.7589371654141 188.45350617635864 661.7202217455118 485.30145323692 602.6166563160091 617.2029891168426C543.5130908865065 749.1045249967651 415.9288859585188 754.9264991906914 332.23034370482253 726.1962695276688C248.53180145112623 697.4660398646464 239.2267129081514 559.0421513845116 200.86365349826661 479.2978867343345C162.50059408838183 399.5536220841576 146.6649958043459 399.44341923566867 148.08765853737543 343.4237992068199C149.51032127040492 287.40417917797106 166.83037281190497 248.7509882369235 207.6924346168085 210.4037105958604C248.55449642171197 172.0564329547973 259.17659204474074 183.80161929884537 344.22555520091294 159.3568665297165C429.2745183570852 134.9121137605876 562.0959783674571 -2.3157115682769245 615.9274577664355 93.06889730404089C669.7589371654141 188.45350617635864 661.7202217455118 485.30145323692 602.6166563160091 617.2029891168426 "></path><path d="M609.9294885111233 101.59477313576457C662.2656490379079 194.32980953940682 654.4502312685585 482.93198029273026 596.988431545431 611.1695846204329C539.5266318223033 739.4071889481356 415.48643258675986 745.0674416366746 334.1128498401107 717.1352739087362C252.73926709346148 689.2031061807977 243.69265323223595 554.624325714 206.39523436151467 477.0951795263279C169.09781549079332 399.56603333865587 153.7020949368695 399.45889168040276 155.08523926064817 344.9953722079108C156.46838358442687 290.53185273541897 173.30732258310752 252.9523615427338 213.03432711565256 215.67028605836686C252.7613316481976 178.38821057400003 263.08836905947555 189.80714174182452 345.7748610168652 166.0414098829492C428.46135297425496 142.27567802407384 557.5933279843387 8.859736732122315 609.9294885111233 101.59477313576457C662.2656490379079 194.32980953940682 654.4502312685585 482.93198029273026 596.988431545431 611.1695846204329 "></path><path d="M603.931503997022 110.12061844991013C654.7723456516128 200.20608238487694 647.1802255328162 480.5624768309626 591.3601915160637 605.1361496064451C535.5401574993111 729.7098223819276 415.0439639562119 735.2083535650801 335.9953407166097 708.0742477722255C256.94671747700767 680.9401419793709 248.15857829753145 550.2064695259103 211.9267999659736 474.8924418007431C175.69502163441575 399.5784140755759 160.73917881060402 399.4743336075587 162.0828047251319 346.5669146914237C163.42643063965977 293.65949577528863 179.78425709552096 257.15370433096587 218.37620435570756 220.93683100329525C256.9681516158942 184.71995767562453 267.00013081542136 195.81263366722555 347.3241515740285 172.72592271860378C427.64817233263557 149.639211769982 553.0906623424312 20.035154514943315 603.931503997022 110.12061844991013C654.7723456516128 200.20608238487694 647.1802255328162 480.5624768309626 591.3601915160637 605.1361496064451 "></path><path d="M597.9335042241316 118.6464942816338C647.2790270065286 206.08238574792506 639.9102045382849 478.1930038867729 585.7319362279075 599.1027451100354C531.55366791753 720.0124863332976 414.60148006687473 725.3492960110634 337.87781633431973 699.0132521532928C261.1541526017648 672.6772082955222 252.62448810403788 545.7886438553986 217.45835031164347 472.6897345927364C182.29221251924912 399.59082533007404 167.7762474255495 399.4898060522927 169.08035493082656 348.1384876925147C170.3844624361036 296.78716933273654 186.26117634914533 261.3550776367762 223.71806633697355 226.20340646580172C261.1749563248017 191.0517352948272 270.9118773125781 201.81815611020465 348.87342687240266 179.41046607183648C426.8349764322272 157.0027760334683 548.5879814417347 31.210602815342554 597.9335042241316 118.6464942816338C647.2790270065286 206.08238574792506 639.9102045382849 478.1930038867729 585.7319362279075 599.1027451100354 "></path><path d="M591.9354891924522 127.17233959577936C639.7856931026554 211.95865859339517 632.6401682849645 475.82350042500525 580.1036656809621 593.0693100960475C527.5671630769598 710.3151197670899 414.1589809187485 715.4902079394687 339.7602766932407 689.952226016782C265.3615724677329 664.4142440940954 257.09038265175525 541.370787667309 222.98988539852434 470.48699686715156C188.88938814529337 399.6032060669943 174.8133007817059 399.50524797944854 176.07788987773216 349.71003017602743C177.34247897375838 299.9148123726062 192.73808034398064 265.55642042500835 229.05991305945042 231.46995141073012C265.3817457749202 197.38348239645177 274.8236085509458 207.82364803560563 350.42268691198774 186.09497890749105C426.0217652730297 164.36630977937648 544.0852852822491 42.38602059816361 591.9354891924522 127.17233959577936C639.7856931026554 211.95865859339517 632.6401682849645 475.82350042500525 580.1036656809621 593.0693100960475 "></path><path d="M585.9375504547181 135.69818490992498C632.2924354927275 217.83493143886528 625.3702083255894 473.4539969632375 574.475471427962 587.0358750820596C523.5807345303347 700.6177532008819 413.7165580645677 705.631119867874 341.642813346107 680.8911998802712C269.5690686276463 656.1512798926685 261.55635349341793 536.9529314792192 228.52149677935046 468.28425914156674C195.48664006528298 399.6155868039143 181.85043043180764 399.5206899066045 183.07550111858302 351.2815726595402C184.30057180535846 303.042455412476 199.21506063276126 269.75776321324054 234.4018360758726 236.73649635565846C269.58861151898395 203.71522949807633 278.7354160832587 213.8291399610066 351.97202324551813 192.77949174314563C425.2086304077776 171.72984352528465 539.5826654167088 53.56143838098467 585.9375504547181 135.69818490992498C632.2924354927275 217.83493143886528 625.3702083255894 473.4539969632375 574.475471427962 587.0358750820596 "></path><path d="M579.9395354230387 144.22409125922678C624.7991015888542 223.71126531949153 618.100172072269 471.084554536626 568.8472008810168 581.0025011032282C519.5942296897645 690.9204476698303 413.2740589164415 695.7720928314355 343.525273705028 671.8302347789167C273.77648849361435 647.888376726398 266.0222480411353 532.5351363262857 234.05303186623132 466.08158245113816C202.0838156913273 399.6280285759907 188.88748378796402 399.5361928689167 190.07303606548862 352.8531761782093C191.25858834301323 306.1701594875019 205.69196462759663 273.95916703662897 239.74368279834954 242.00310233574305C273.79540096910245 210.04703763485713 282.6471473216264 219.83469292156389 353.5212832851032 199.46406561395645C424.3954192485801 179.09343830634901 535.0799692572233 64.73691719896198 579.9395354230387 144.22409125922678C624.7991015888542 223.71126531949153 618.100172072269 471.084554536626 568.8472008810168 581.0025011032282 "></path><path d="M573.9415509089374 152.74993657337234C617.3057982025591 229.58753816496164 610.8301663365266 468.71505107485825 563.2189608516494 574.9690660892404C515.6077553667724 681.2230811036225 412.8315902858935 685.9130047598408 345.407764581527 662.769208642406C277.98393887716054 639.6254125249712 270.4881731064308 528.1172801381961 239.58459747069026 463.87884472555334C208.68102183494972 399.64040931291083 195.92456766169857 399.55163479607256 197.07060152997235 354.4247186617222C198.21663539824613 309.2978025273717 212.16889914001007 278.16050982486115 245.08556003840454 247.2696472806714C278.002220936799 216.3787847364817 286.5589090775722 225.84018484696486 355.0705738422664 206.14857844961102C423.5822386069608 186.45697205225719 530.5773036153159 75.91233498178303 573.9415509089374 152.74993657337234C617.3057982025591 229.58753816496164 610.8301663365266 468.71505107485825 563.2189608516494 574.9690660892404 "></path><path d="M567.9435816536252 161.27581240509602C609.812510075053 235.46384152800988 603.5601758595734 466.3455781306686 557.5907360810713 568.9356615928307C511.62129630256925 671.5257450549927 412.3891369141345 676.0539472058242 347.29027071681514 653.7082130234734C282.1914045194958 631.3624788411225 274.95411343051535 523.6994544676844 245.11617833393825 461.67613751754675C215.2782432373612 399.652820567409 202.96166679422214 399.56710724080654 204.06818225324514 355.99629166281306C205.17469771226808 312.4254760848196 218.64584891121257 282.3618831306714 250.4274525372486 252.53622274317792C282.2090561632847 222.71056235568437 290.470686092307 231.84570728994402 356.6198796582188 212.83312180284372C422.7690732241306 193.82053631574348 526.0746532321975 87.08778328218222 567.9435816536252 161.27581240509602C609.812510075053 235.46384152800988 603.5601758595734 466.3455781306686 557.5907360810713 568.9356615928307 "></path><path d="M561.945612398313 169.8016882368197C602.3192219475469 241.34014489105806 596.2901853826202 463.976105186479 551.9625113104931 562.902257096421C507.6348372383661 661.8284090063629 411.94668354237547 666.1948896518076 349.17277685210325 644.6472174045407C286.39887016183104 623.0995451572738 279.42005375459985 519.2816287971727 250.6477591971863 459.47343030954005C221.8754646397727 399.66523182190724 209.99876592674576 399.5825796855406 211.06576297651787 357.56786466390406C212.13276002629004 315.5531496422674 225.12279868241507 286.56325643648165 255.76934503609266 257.8027982056844C286.4158913897703 229.04233997488706 294.3824631070419 237.85122973292312 358.16918547417106 219.51766515607642C421.95590784130025 201.18410057922978 521.5720028490791 98.2632315825814 561.945612398313 169.8016882368197C602.3192219475469 241.34014489105806 596.2901853826202 463.976105186479 551.9625113104931 562.902257096421 "></path><path d="M555.9475973666335 178.3275182921762C594.8258880436736 247.21640247773905 589.0201491292996 461.6065864659222 546.3342407635478 556.8688068236441C503.6483323977959 652.131027181366 411.50418439424925 656.3357863214238 351.0552372110242 635.586176009241C290.6062900277991 614.836565697058 283.8859483023173 514.863757350294 256.1792942840671 457.27067732516616C228.472640265817 399.6775973000383 217.03581928290214 399.5980063539075 218.06329792342348 359.13939188862776C219.09077656394481 318.680777423348 231.59970267725038 290.76458396592477 261.1111917585696 263.06932789182366C290.62268083988874 235.37407181772255 298.29419434540955 243.85670639953503 359.71844551375614 226.20216273294193C421.1426966821027 208.54761906634883 517.0693066895935 109.43863410661339 555.9475973666335 178.3275182921762C594.8258880436736 247.21640247773905 589.0201491292996 461.6065864659222 546.3342407635478 556.8688068236441 "></path><path d="M549.9496128525323 186.85337886511087C587.3325846573784 253.09269058199817 581.7501433935574 459.2370982629436 540.7060007341806 550.8353870684454C499.6618580748037 642.4336758739471 411.0617157637013 646.4767135086181 352.9377280875233 626.5251651315191C294.8137404113453 606.5736167544202 288.3518733676127 510.4459164209933 261.7108598885261 455.0679548583703C235.06984640943944 399.6899932957474 224.0729031566367 399.61346353985243 225.0608633879072 360.7109496309297C226.0488236191777 321.80843572200683 238.0766371896638 294.965942012946 266.4530689986246 268.33588809554107C294.82950080758536 241.70583417813617 302.20595610135535 249.86221358372507 361.26773607091934 232.88669082738556C420.32951604048344 215.91116807104606 512.5666410476861 120.61406714822351 549.9496128525323 186.85337886511087C587.3325846573784 253.09269058199817 581.7501433935574 459.2370982629436 540.7060007341806 550.8353870684454 "></path><path d="M543.951628338431 195.37925469683455C579.8392812710833 258.9689939450464 574.4801376578151 456.8676253187539 535.0777607048133 544.8019825720356C495.6753837518115 632.7363398253174 410.6192471331532 636.6176559546016 354.82021896402233 617.4641695125865C299.0211907948915 598.3106830705715 292.8177984329082 506.02809075048174 267.24242549298503 452.8652476503637C241.66705255306186 399.70240455024566 231.10998703037126 399.6289359845864 232.05842885239093 362.2825226320206C233.00687067441055 324.9361092794546 244.5535717020773 299.16731531875627 271.7949462386796 273.6024635580476C299.0363207752819 248.03761179733885 306.1177178573011 255.86773602670422 362.8170266280826 239.57123418061826C419.51633539886404 223.27473233453236 508.0639754057786 131.7895154486227 543.951628338431 195.37925469683455C579.8392812710833 258.9689939450464 574.4801376578151 456.8676253187539 535.0777607048133 544.8019825720356 "></path><path d="M537.9536438243297 203.90513052855823C572.3459778847882 264.8452973080946 567.2101319220728 454.49815237456437 529.4495206754461 538.768578075626C491.68890942881944 623.0390037766877 410.1767785026052 626.758598400585 356.7027098405214 608.403173893654C303.22864117843767 590.0477493867229 297.2837234982037 501.6102650799701 272.77399109744397 450.662540442357C248.26425869668424 399.7148158047439 238.14707090410576 399.6444084293205 239.0559943168746 363.85409563311146C239.96491772964345 328.06378283690253 251.03050621449074 303.3686886245666 277.13682347873464 278.86903902055406C303.24314074297854 254.36938941654154 310.0294796132469 261.8732584696834 364.3663171852458 246.25577753385096C418.70315475724476 230.63829659801866 503.5613097638711 142.96496374902188 537.9536438243297 203.90513052855823C572.3459778847882 264.8452973080946 567.2101319220728 454.49815237456437 529.4495206754461 538.768578075626 "></path><path d="M531.9556593102284 212.43099110149285C564.8526744984931 270.7215854123537 559.9401261863305 452.12866417158557 523.8212806460789 532.7351583204272C487.70243510582725 613.3416524692689 409.7343098720571 616.8995255877793 358.5852007170205 599.3421630159322C307.43609156198386 581.7848004440851 301.7496485634992 497.19242415066947 278.30555670190296 448.45981797556124C254.86146484030667 399.727211800453 245.18415477784032 399.6598656152654 246.05355978135833 365.4256533754134C246.92296478487634 331.1914411355613 257.5074407269042 307.57004667158776 282.47870071878964 284.13559922427146C307.4499607106751 260.70115177695516 313.94124136919265 267.8787656538734 365.91560774240907 252.9403056282946C417.88997411562536 238.00184560271583 499.05864412196377 154.140396790632 531.9556593102284 212.43099110149285C564.8526744984931 270.7215854123537 559.9401261863305 452.12866417158557 523.8212806460789 532.7351583204272 "></path><path d="M525.9576747961271 220.95685167442747C557.359371112198 276.5978735166128 552.6701204505882 449.759175968607 518.1930406167116 526.7017385652284C483.71596078283505 603.64430116185 409.291841241509 607.0404527749736 360.46769159351953 590.2811521382105C311.64354194553005 573.5218515014474 306.2155736287947 492.77458322136874 283.8371223063619 446.2570955087655C261.4586709839291 399.7396077961622 252.22123865157482 399.6753228012104 253.05112524584206 366.9972111177153C253.88101184010924 334.3190994342201 263.9843752393176 311.771404718609 287.82057795884464 289.40215942798886C311.6567806783717 267.0329141373687 317.85300312513846 273.88427283806345 367.46489829957227 259.6248337227383C417.0767934740061 245.36539460741307 494.5559784800563 165.31582983224212 525.9576747961271 220.95685167442747C557.359371112198 276.5978735166128 552.6701204505882 449.759175968607 518.1930406167116 526.7017385652284 "></path><path d="M519.9596902820258 229.48269698857303C549.8660677259028 282.47414636208293 545.4001147148459 447.38967250683925 512.5648005873445 520.6683035512407C479.729486459843 593.9469345956421 408.84937261096104 597.1813647033789 362.3501824700186 581.2201260016998C315.85099232907623 565.2588873000207 310.6814986940902 488.35672703327896 289.3686879108209 444.05435778318065C268.0558771275515 399.75198853308234 259.2583225253094 399.6907647283663 260.04869071032573 368.5687536012281C260.83905889534213 337.44674247408983 270.46130975173105 315.9727475068412 293.1624551988997 294.6687043729172C315.8636006460683 273.36466123899334 321.76476488108426 279.8897647634644 369.0141888567355 266.30934655839286C416.2636128323868 252.72892835332124 490.0533128381488 176.49124761506317 519.9596902820258 229.48269698857303C549.8660677259028 282.47414636208293 545.4001147148459 447.38967250683925 512.5648005873445 520.6683035512407 "></path><path d="M513.9617057679245 238.00857282029676C542.3727643396077 288.3504497251311 538.1301089791036 445.0201995626496 506.93656055797726 514.634899054831C475.7430121368509 584.2495985470123 408.40690398041295 587.3223071493622 364.2326733465177 572.159130382767C320.0584427126224 556.9959536161718 315.1474237593857 483.9389013627674 294.9002535152798 441.85165057517395C274.65308327117395 399.7643997875805 266.2954063990439 399.70623717310036 267.04625617480946 370.140326602319C267.79710595057503 340.5744160315377 276.93824426414454 320.17412081265144 298.5043324389547 299.9352798354237C320.0704206137649 279.69643885819596 325.67652663703007 285.8952872064436 370.56347941389873 272.99388991162556C415.4504321907674 260.0924926168075 485.55064719624147 187.66669591546236 513.9617057679245 238.00857282029676C542.3727643396077 288.3504497251311 538.1301089791036 445.0201995626496 506.93656055797726 514.634899054831 "></path><path d="M507.9637212538232 246.53444865202044C534.8794609533124 294.2267530881793 530.8601032433614 442.65072661846 501.30832052861 508.60149455842134C471.7565378138587 574.5522624983826 407.96443534986486 577.4632495953457 366.11516422301673 563.0981347638344C324.2658930961686 548.7330199323233 319.61334882468117 479.52107569225586 300.43181911973875 439.64894336716725C281.2502894147964 399.77681104207886 273.33249027277844 399.72170961783434 274.0438216392932 371.71189960340996C274.7551530058079 343.70208958898553 283.415178776558 324.37549411846175 303.8462096790097 305.2018552979302C324.27724058146146 286.02821647739864 329.5882883929758 291.9008096494227 372.11276997106194 279.67843326485826C414.63725154914806 267.4560568802938 481.047981554334 198.84214421586154 507.9637212538232 246.53444865202044C534.8794609533124 294.2267530881793 530.8601032433614 442.65072661846 501.30832052861 508.60149455842134 "></path><path d="M501.96573673972193 255.06030922495506C527.3861575670173 300.10304119243847 523.590097507619 440.2812384154813 495.68008049924276 502.56807480322254C467.7700634908665 564.8549111909638 407.5219667193169 567.60417678254 367.9976550995158 554.0371238861128C328.4733434797148 540.4700709896854 324.07927388997666 475.10323476295514 305.96338472419774 437.4462209003716C287.8474955584188 399.78920703778795 280.36957414651295 399.73716680377936 281.0413871037769 373.28345734571184C281.7132000610408 346.8297478876443 289.8921132889714 328.57685216548293 309.18808691906474 310.46841550164766C328.484060549158 292.35997883781226 333.5000501489216 297.9063168336128 373.6620605282252 286.3629613593019C413.8240709075287 274.819605884991 476.54531591242653 210.01757725747166 501.96573673972193 255.06030922495506C527.3861575670173 300.10304119243847 523.590097507619 440.2812384154813 495.68008049924276 502.56807480322254 "></path><path d="M495.9677674844097 263.5861697978897C519.8928694395113 305.9793292966976 516.3201070306659 437.9117502125026 490.0518557286646 496.53465504802375C463.7836044266635 555.157559883545 407.07951334755785 557.7451039697344 369.88016123480395 544.9761130083909C332.68080912205005 532.2071220470477 328.5452142140612 470.6853938336544 311.49496558744573 435.2434984335757C294.4447169608303 399.80160303349714 287.40667327903657 399.75262398972427 288.03896782704965 374.8550150880137C288.6712623750628 349.9574061863031 296.3690630601739 332.7782102125042 314.5299794179088 315.73497570536506C332.6908957756437 298.6917411982259 337.4118271636565 303.9118240178028 375.21136634417746 293.0474894537455C413.01090552469844 282.18315488968824 472.0426655293081 221.19301029908178 495.9677674844097 263.5861697978897C519.8928694395113 305.9793292966976 516.3201070306659 437.9117502125026 490.0518557286646 496.53465504802375 "></path><path d="M489.96976771151935 272.11204562961336C512.3995507944271 311.85563265974577 509.0500860361344 435.542277268313 484.4236004405084 490.501250551614C459.79711484488223 545.4602238349152 406.63702945822075 547.8860464157178 371.762636852514 535.9151173894584C336.8882442468072 523.9441883631989 333.01112402056765 466.26756816314287 317.02651593311566 433.04079122556914C301.0419078456637 399.81401428799535 294.443741893982 399.76809643445836 295.0365180327443 376.42658808910465C295.6292941715066 353.08507974375095 302.8459823137983 336.9795835183145 319.87184139917474 321.0015511678715C336.8977004845512 305.02351881742857 341.32357366081317 309.9173464607819 376.7606416425516 299.7320328069782C412.19770962429004 289.54671915317454 467.5399846286116 232.36845859948096 489.96976771151935 272.11204562961336C512.3995507944271 311.85563265974577 509.0500860361344 435.542277268313 484.4236004405084 490.501250551614 "></path><path d="M483.97178319741806 280.637890943759C504.906247408132 317.7319055052159 501.7800803003922 433.17277380654525 478.79536041114113 484.4678155376263C455.81064052189004 535.7628572687073 406.1945608276727 538.026958344123 373.64512772901304 526.8540912529477C341.09569463035336 515.6812241617722 337.47704908586314 461.8497119750532 322.5580815375746 430.8380534999843C307.6391139892861 399.8263950249154 301.48082576771657 399.7835383616142 302.03408349722804 377.99813057261747C302.5873412267395 356.21272278362073 309.3229168262117 341.18092630654667 325.2137186392298 326.26809611279987C341.1045204522478 311.3552659190531 345.23533541675897 315.92283838618295 378.30993219971486 306.4165456426328C411.38452898267076 296.91025289908265 463.03731898670424 243.54387638230202 483.97178319741806 280.637890943759C504.906247408132 317.7319055052159 501.7800803003922 433.17277380654525 478.79536041114113 484.4678155376263 "></path><path d="M477.9737986833168 289.1637820342717C497.4129440218368 323.6082241270531 494.5100745646498 430.8033161211447 473.1671203817739 478.4344263000057C451.82416619889796 526.0655364788665 405.7520921971246 528.1679160488954 375.5276186055121 517.7931108928041C345.30314501389955 507.41830573671257 341.94297415115864 457.4319015633306 328.0896471420336 428.6353615507667C314.2363201329085 399.83882153820275 308.51790964145107 399.79902606513735 309.03164896171177 379.5697188324975C309.5453882819724 359.3404115998576 315.7998513386252 345.382314871146 330.5555958792848 331.5346868340954C345.3113404199444 317.68705879704487 349.1470971727048 321.9283760879511 379.85922275687807 313.10110425465456C410.57134834105136 304.273832421358 458.53465334479677 254.71933994149026 477.9737986833168 289.1637820342717C497.4129440218368 323.6082241270531 494.5100745646498 430.8033161211447 473.1671203817739 478.4344263000057 "></path><path d="M471.97582942800454 297.6896273484173C489.91965589433073 329.4844969725232 487.2400840876967 428.43381265937694 467.5388956111957 472.40099128601787C447.8377071346948 516.3681699126587 405.30963882536565 518.3088279773008 377.41012474080026 508.73208475629326C349.5106106562348 499.15534153528574 346.4089144752432 453.0140453752408 333.6212280052816 426.43262382518185C320.83354153531997 399.85120227512283 315.5550087739747 399.8144679922932 316.0292296849845 381.1412613160103C316.50345059599437 362.4680546397273 322.2768011098277 349.58365765937816 335.89748837812886 336.8012317790238C349.51817564643005 324.0188058986694 353.05887418743964 327.93386801335214 381.4085285728304 319.78561709030913C409.7581829582211 311.6373661672662 454.03200296167836 265.8947577243113 471.97582942800454 297.6896273484173C489.91965589433073 329.4844969725232 487.2400840876967 428.43381265937694 467.5388956111957 472.40099128601787 "></path><path d="M465.9778296551142 306.21550318014096C482.42633724924656 335.3608003355714 479.9700630931652 426.0643397151873 461.91064032303944 466.36758678960814C443.8512175529136 506.67083386402896 404.86715493602856 508.44977042328424 379.29260035851024 499.6710891373607C353.71804578099193 490.89240785143716 350.8748242817496 448.59621970472926 339.15277835095145 424.22991661717515C327.43073242015333 399.86361352962103 322.59207738892013 399.82994043702723 323.02677989067917 382.7128343171012C323.4614823924382 365.59572819717516 328.7537203634521 353.7850309651884 341.23935035939485 342.06780724153026C353.72498035533755 330.3505835178721 356.9706206845963 333.93939045633124 382.95780387120453 326.47016044354183C408.9449870578127 319.0009304307525 449.5293220609819 277.07020602471056 465.9778296551142 306.21550318014096C482.42633724924656 335.3608003355714 479.9700630931652 426.0643397151873 461.91064032303944 466.36758678960814 "></path><path d="M459.9798451410129 314.74137901186464C474.93303386295133 341.2371036986196 472.700057357423 423.69486677099775 456.28240029367225 460.33418229319847C439.8647432299215 496.97349781539924 404.4246863054805 498.5907128692676 381.1750912350093 490.610093518428C357.9254961645381 482.62947416758846 355.3407493470451 444.1783940342176 344.68434395541044 422.02720940916845C334.02793856377576 399.8760247841193 329.6291612626547 399.84541288176126 330.0243453551629 384.28440731819217C330.4195294476711 368.72340175462307 335.2306548758655 357.9864042709987 346.58122759944985 347.3343827040367C357.93180032303417 336.6823611370748 360.88238244054213 339.94491289931034 384.50709442836774 333.1547037967745C408.1318064161934 326.3644946942387 445.0266564190744 288.24565432510974 459.9798451410129 314.74137901186464C474.93303386295133 341.2371036986196 472.700057357423 423.69486677099775 456.28240029367225 460.33418229319847 "></path><path d="M453.9818606269116 323.2672243260102C467.4397304766562 347.11337654408965 465.4300516216807 421.32536330923 450.654160264305 454.30074727921067C435.87826890692935 487.2761312491913 403.98221767493243 488.7316247976728 383.0575821115084 481.5490673819172C362.1329465480843 474.36650996616163 359.8066744123406 439.76053784612793 350.2159095598694 419.8244716835836C340.6251447073982 399.88840552103943 336.6662451363892 399.86085480891717 337.02191081964656 385.855949801705C337.377576502904 371.8510447944928 341.70758938827896 362.1877470592309 351.92310483950484 352.6009276489651C362.1386202907307 343.01410823869935 364.79414419648793 345.95040482471137 386.056384985531 339.8392166324291C407.318625774574 333.7280284401469 440.523990777167 299.4210721079308 453.9818606269116 323.2672243260102C467.4397304766562 347.11337654408965 465.4300516216807 421.32536330923 450.654160264305 454.30074727921067 "></path><path d="M447.9838761128103 331.79308489894487C459.9464270903611 352.9896646483488 458.1600458859384 418.9558751062513 445.02592023493776 448.2673275240119C431.8917945839372 477.5787799417725 403.5397490443844 478.8725519848672 384.94007298800744 472.48805650419547C366.3403969316305 466.10356102352387 364.27259947763605 435.3426969168272 355.74747516432836 417.62174921678786C347.2223508510206 399.9008015167486 343.70332901012375 399.87631199486214 344.0194762841303 387.42750754400686C344.33562355813683 374.9787030931516 348.18452390069245 366.3891051062521 357.2649820795599 357.86748785268253C366.3454402584273 349.34587059911297 368.7059059524337 351.9559120089014 387.6056755426942 346.52374472687274C406.5054451329547 341.0915774448441 436.02132513525953 310.5965051495409 447.9838761128103 331.79308489894487C459.9464270903611 352.9896646483488 458.1600458859384 418.9558751062513 445.02592023493776 448.2673275240119 "></path><path d="M441.98589159870903 340.31896073066855C452.453123704066 358.865968011397 450.8900401501961 416.5864021620617 439.39768020557057 442.2339230276022C427.905320260945 467.8814438931427 403.09728041383636 469.0134944308506 386.8225638645065 463.4270608852629C370.5478473151767 457.84062733967517 368.73852454293154 430.92487124631566 361.2790407687873 415.4190420087812C353.81955699464305 399.9132127712468 350.74041288385826 399.89178443959617 351.017041748614 388.9990805450978C351.2936706133697 378.10637665059943 354.6614584131059 370.5904784120624 362.6068593196149 363.134063315189C370.5522602261239 355.67764821831565 372.6176677083795 357.9614344518805 389.1549660998574 353.2082880801055C405.6922644913354 348.4551417083304 431.5186594933521 321.7719534499401 441.98589159870903 340.31896073066855C452.453123704066 358.865968011397 450.8900401501961 416.5864021620617 439.39768020557057 442.2339230276022 "></path><path d="M435.98790708460774 348.84482130360317C444.95982031777083 364.7422561156561 443.6200344144538 414.216913959083 433.7694401762033 436.20050327240347C423.9188459379529 458.1840925857239 402.6548117832883 459.1544216180449 388.7050547410056 454.36605000754116C374.75529769872287 449.5776783970374 373.20444960822704 426.50703031701494 366.8106063732463 413.21631954198546C360.4167631382655 399.925608766956 357.7774967575928 399.90724162554113 358.01460721309775 390.5706382873997C358.2517176686026 381.2340349492582 361.1383929255193 374.7918364590836 367.9487365596699 368.4006235189064C374.75908019382047 362.0094105787292 376.5294294643253 363.9669416360706 390.70425665702066 359.8928161745491C404.87908384971604 355.8186907130276 427.01599385144465 332.9473864915502 435.98790708460774 348.84482130360317C444.95982031777083 364.7422561156561 443.6200344144538 414.216913959083 433.7694401762033 436.20050327240347 "></path><path d="M429.98992257050645 357.3706666177487C437.46651693147567 370.61852896112623 436.3500286787115 411.84741049731525 428.1412001468361 430.1670682584156C419.93237161496074 448.486726019516 402.21234315274023 449.2953335464502 390.58754561750465 445.3050238710304C378.96274808226906 441.31471419561063 377.67037467352253 422.0891741289252 372.3421719777052 411.01358181640063C367.0139692818879 399.93798950387605 364.8145806313273 399.92268355269704 365.0121726775814 392.1421807709125C365.2097647238355 384.36167798912794 367.61532743793276 378.99317924731577 373.2906137997249 373.6671684638348C378.9659001615171 368.3411576803538 380.4411912202711 369.9724335614716 392.25354721418387 366.5773290102037C404.0659032080967 363.18222445893576 422.51332820953724 344.1228042743713 429.98992257050645 357.3706666177487C437.46651693147567 370.61852896112623 436.3500286787115 411.84741049731525 428.1412001468361 430.1670682584156 "></path><path d="M423.99193805640516 365.8965424494724C429.97321354518056 376.4948323241744 429.0800229429692 409.4779375531257 422.5129601174689 424.13366376200594C415.9458972919686 438.78938997088625 401.7698745221922 439.4362759924336 392.4700364940037 436.24402825209773C383.17019846581525 433.05178051176193 382.136299738818 417.6713484584136 377.87373758216415 408.81087460839393C373.6111754255103 399.95040075837426 371.8516645050619 399.93815599743107 372.00973814206515 393.71375377200343C372.1678117790684 387.4893515465758 374.0922619503462 383.1945525531261 378.63249103977995 378.93374392634126C383.17272012921364 374.67293529955646 384.35295297621684 375.9779560044507 393.8028377713471 373.2618723634364C403.25272256647736 370.54578872242206 418.01066256762977 355.29825257477046 423.99193805640516 365.8965424494724C429.97321354518056 376.4948323241744 429.0800229429692 409.4779375531257 422.5129601174689 424.13366376200594 "></path><path d="M417.99395354230387 374.422403022407C422.47991015888545 382.3711204284335 421.8100172072269 407.108449350147 416.8847200881017 418.1002440068072C411.95942296897647 429.0920386634674 401.32740589164416 429.57720317962793 394.3525273705028 427.18301737437605C387.37764884936144 424.78883156912417 386.6022248041135 413.25350752911294 383.40530318662314 406.6081521415982C380.2083815691327 399.96279675408346 378.8887483787964 399.95361318337604 379.0073036065489 395.2853115143053C379.1258588343013 390.6170098452346 380.56919646275963 387.39591060014726 383.97436827983495 384.20030413005867C387.37954009691026 381.0046976599701 388.26471473216264 381.98346318864077 395.35212832851033 379.94640045788003C402.439541924858 377.9093377271193 413.50799692572235 366.4736856163806 417.99395354230387 374.422403022407C422.47991015888545 382.3711204284335 421.8100172072269 407.108449350147 416.8847200881017 418.1002440068072 "></path><path d="M411.9959537694135 382.94827885413076C414.9865915138012 388.2474237914817 414.53999621269554 404.7389764059574 411.2564647999454 412.0668395103975C407.9729333871952 419.3947026148376 400.88492200230706 419.7181456256113 396.2350029882128 418.1220217554434C391.58508397411856 416.52589788527547 391.06813461061995 408.83568185860133 388.936853532293 404.4054449335915C386.8055724539661 399.97520800858166 385.9258169937419 399.96908562811007 386.00485381224354 396.85688451539625C386.08389063074515 393.7446834026824 387.04611571638407 391.59728390595757 389.3162302611009 389.46687959256514C391.58634480581776 387.33647527917276 392.1764612293194 387.98898563161987 396.9014036268845 386.63094381111273C401.6263460244496 385.27290199060553 409.0053160250258 377.64913391677976 411.9959537694135 382.94827885413076C414.9865915138012 388.2474237914817 414.53999621269554 404.7389764059574 411.2564647999454 412.0668395103975 "></path><path d="M405.9979845141013 391.4741394270654C407.4933033862951 394.1237118957409 407.2700057357423 402.3694882029787 405.62824002936725 406.03341975519874C403.98647432299214 409.69735130741884 400.44246863054803 409.85907281280566 398.11750912350095 409.0610108777217C395.7925496164538 408.26294894263776 395.5340749347045 404.41784092930067 394.46843439554107 402.20272246679576C393.40279385637757 399.98760400429086 392.96291612626544 399.98454281405503 393.0024345355163 398.4284422576981C393.0419529447671 396.8723417013412 393.52306548758656 395.79864195297876 394.658122759945 394.7334397962826C395.79318003230344 393.6682376395864 396.0882382440542 393.99449281580996 398.4507094428368 393.31547190555636C400.81318064161934 392.63645099530277 404.50266564190747 388.8245669583899 405.9979845141013 391.4741394270654C407.4933033862951 394.1237118957409 407.2700057357423 402.3694882029787 405.62824002936725 406.03341975519874 "></path></g></svg>