<svg xmlns="http://www.w3.org/2000/svg" version="1.1" xmlns:xlink="http://www.w3.org/1999/xlink" xmlns:svgjs="http://svgjs.dev/svgjs" viewBox="0 0 800 800" opacity="0.18"><defs><linearGradient x1="50%" y1="0%" x2="50%" y2="100%" id="uundulate-grad"><stop stop-color="#ffd700" stop-opacity="1" offset="45%"></stop><stop stop-color="#444444" stop-opacity="1" offset="100%"></stop></linearGradient></defs><g stroke-width="2" stroke="url(#uundulate-grad)" fill="none"><path d="M729.2802279200587 194.3210457653792C765.8840968270406 319.1290376600591 646.1453475645473 627.2970748190281 534.8775162317847 694.6494895511365C423.6096848990221 762.001904283245 292.8536409142223 591.1553403667801 195.19463752279825 517.6126364794986C97.5356341313742 444.0699325922171 76.5396600788643 420.6835586321447 66.11429995294941 341.6445108921845C55.68893982703446 262.60546315222416 84.09777443396456 189.4904953350872 145.15290891840658 138.2252073276888C206.2080434028486 86.9599193202904 237.4857540195925 83.88449544882081 359.17894547827007 95.57112845667314C480.8721369369475 107.25776146452552 692.6763590130765 69.51305387069937 729.2802279200587 194.3210457653792C765.8840968270406 319.1290376600591 646.1453475645473 627.2970748190281 534.8775162317847 694.6494895511365 "></path><path d="M722.4202212643753 198.60601698498886C758.2615095691285 320.81384238186286 641.0173175829373 622.56171210002 532.0675660696072 688.5109515252095C423.11781455627715 754.460190950399 295.08585482116075 587.1729304488606 199.4614140003913 515.1623662258974C103.83697317962196 443.15180200293435 83.27841525320599 420.2526441670301 73.07025012991431 342.8602432549857C62.862085006622635 265.46784234294114 90.679068892575 193.87610302199454 150.46222140859112 143.6788418480836C210.2453739246073 93.48158067417268 240.871465570169 90.47022813335872 360.02938220679084 101.91338962021416C479.18729884341246 113.35655110706955 686.5789329596221 76.3981915881148 722.4202212643753 198.60601698498886C758.2615095691285 320.81384238186286 641.0173175829373 622.56171210002 532.0675660696072 688.5109515252095 "></path><path d="M715.5601230559578 202.89098820459844C750.6388307584821 322.4986471036666 635.8891960485928 617.8263493810119 529.2575243546953 682.3724134992826C422.6258526607978 746.9184776175531 297.3179771753647 583.190520530941 203.72809892525004 512.7120959722963C110.1382206751353 442.23367141365156 90.01707887481331 419.8217297019155 80.02610875414484 344.07597561778687C70.03513863347638 268.33022153365823 97.26027179845107 198.2617107089019 155.77144234604134 149.13247636847842C214.2826128936316 100.00324202805501 244.25708556801123 97.05596081789668 360.87972738257713 108.25565078375513C477.502369197143 119.45534074961364 680.4814153534332 83.28332930553023 715.5601230559578 202.89098820459844C750.6388307584821 322.4986471036666 635.8891960485928 617.8263493810119 529.2575243546953 682.3724134992826 "></path><path d="M708.7001164002746 207.17598994178616C743.0162435005702 324.18348234304847 630.7611660669828 613.091017179582 526.4475741925179 676.2339059909336C422.13398231805286 739.3767948022853 299.5501910823032 579.2081411305995 207.9948754028431 510.26185623627316C116.43955972338307 441.3155713419467 96.755834049155 419.3908457543789 86.98205893110975 345.29173849816607C77.20828381306455 271.19263124195334 103.84156625706152 202.64734891338742 161.08075483622588 154.58614140645142C218.3199434153903 106.52493389951542 247.64279711858762 103.6417240200127 361.7301641110979 114.59794246487422C475.81753110360796 125.5541609097358 674.3839892999789 90.16849754052379 708.7001164002746 207.17598994178616C743.0162435005702 324.18348234304847 630.7611660669828 613.091017179582 526.4475741925179 676.2339059909336 "></path><path d="M701.8402012973257 211.4609611613958C735.3937477953926 325.8682870648523 625.6332276381071 608.355654460574 523.6377155830749 670.0953679650067C421.6422035280424 731.8350814694394 301.7824965419759 575.2257312126799 212.26174343317052 507.8115859826719C122.74099032436516 440.3974407526639 103.49468077623106 418.9599312892642 93.93810066080908 346.50747086096726C84.38152054538705 274.0550104326703 110.42295226840633 207.03295660029477 166.39015887914485 160.03977592684623C222.35736548988336 113.0465952533977 251.0286002218986 110.2274567045506 362.58069239235306 120.94020362841525C474.1327845628073 131.6529505522799 668.2866547992589 97.05363525793928 701.8402012973257 211.4609611613958C735.3937477953926 325.8682870648523 625.6332276381071 608.355654460574 523.6377155830749 670.0953679650067 "></path><path d="M694.9801946416426 215.74587134584914C727.7711605374807 327.5530307514998 620.5051976564971 603.6202307064096 520.8277654208973 663.9567689039234C421.1503331852974 724.2933071014372 304.01471044891434 571.2432602596041 216.52851991076363 505.3612546939145C129.04232937261293 439.47924912822486 110.23343595057275 418.52895578899324 100.89405083777399 347.7231421886122C91.55466572497522 276.91732858823116 117.00424672701678 211.41850325204587 171.6994713693294 165.4933494120848C226.394696011642 119.56819557212373 254.41431177247512 116.81312835393226 363.4311291208737 127.28240375679997C472.4479464692723 137.75167915966767 662.1892287458045 103.93871194019846 694.9801946416426 215.74587134584914C727.7711605374807 327.5530307514998 620.5051976564971 603.6202307064096 520.8277654208973 663.9567689039234 "></path><path d="M688.1200964332251 220.03093411819316C720.1484817268343 329.23792702603805 615.3770761221526 598.8849595401359 518.0177237059854 657.8183224307309C420.6583712898182 716.7516853213257 306.2468328031183 567.2609418944189 220.79520483562231 502.9110759930477C135.34357686812626 438.56121009167646 116.97209957218007 418.098132876613 107.84990946200452 348.93896610414777C98.72771935182897 279.7797993316825 123.58544963289285 215.8042024916876 177.0086923067796 170.947075485214C230.4319349806663 126.08994847874044 257.79993177031724 123.39895259120453 364.2814742966601 133.62475647307537C470.763016823003 143.85056035494614 656.0917111396158 110.82394121034827 688.1200964332251 220.03093411819316C720.1484817268343 329.23792702603805 615.3770761221526 598.8849595401359 518.0177237059854 657.8183224307309 "></path><path d="M681.2601813302762 224.31590533780275C712.5259860216568 330.9227317478418 610.249137693277 594.149596821128 515.2078650965423 651.6797844048037C420.1665924998076 709.2099719884798 308.47913826279114 563.2785319764994 225.06207286594974 500.4608057394464C141.64500746910835 437.64307950239345 123.71094629925614 417.6672184114984 114.80595119170385 350.15469846694896C105.90095608415152 282.6421785223995 130.16683564423766 220.18981017859494 182.31809634969852 176.40071000560886C234.46935705515938 132.61160983262272 261.1857348736281 129.98468527574244 365.1320025779153 139.96701763661633C469.0782702822023 149.94934999749017 649.9943766388957 117.7090789277637 681.2601813302762 224.31590533780275C712.5259860216568 330.9227317478418 610.249137693277 594.149596821128 515.2078650965423 651.6797844048037 "></path><path d="M674.400174674593 228.60087655741233C704.9033987637447 332.60753646964554 605.121107711667 589.4142341021197 512.3979149343648 645.5412463788768C419.67472215706266 701.6682586556337 310.7113521697295 559.2961220585797 229.32884934354286 498.01053548584514C147.94634651735612 436.72494891311067 130.44970147359783 417.2363039463836 121.76190136866876 351.37043082975003C113.07410126373964 285.50455771311647 136.7481301028481 224.57541786550235 187.62740883988306 181.85434452600367C238.50668757691807 139.133271186505 264.57144642420474 136.5704179602804 365.98243930643594 146.3092788001573C467.39343218866725 156.04813964003426 643.8969505854413 124.59421664517913 674.400174674593 228.60087655741233C704.9033987637447 332.60753646964554 605.121107711667 589.4142341021197 512.3979149343648 645.5412463788768 "></path><path d="M667.5401680189099 232.88583251823292C697.2808115058327 334.29232593266033 599.9930777300569 584.6788561243227 509.5879647721873 639.4026930941607C419.1828518143177 694.1265300639989 312.94356607666793 555.3136968818712 233.59562582113585 495.56024997345503C154.24768556560383 435.8068030650388 137.18845664793957 416.80537422247994 128.71785154563366 352.58614793376216C120.24724644332781 288.3669216450445 143.32942456145855 228.96101029362063 192.93672133006766 187.30796378760942C242.54401809867676 145.65491728159827 267.95715797478124 143.15613538602923 366.8328760349567 152.65152470490926C465.7085940951322 162.1469140237893 637.7995245319869 131.47933910380556 667.5401680189099 232.88583251823292C697.2808115058327 334.29232593266033 599.9930777300569 584.6788561243227 509.5879647721873 639.4026930941607 "></path><path d="M660.6801613632267 237.17083425542063C689.6582242479208 335.9771611720422 594.865047748447 579.9435239228928 506.7780146100099 633.2641855858119C418.69098147157274 686.5848472487311 315.1757799836064 551.3313174815297 237.86240229872897 493.1100102374319C160.5490246138516 434.88870299333405 143.92721182228127 416.37449027494335 135.67380172259863 353.8019108141415C127.42039162291599 291.2293313533396 149.91071902006894 233.3466484981061 198.2460338202522 192.76162882558242C246.58134862043545 152.17660915305868 271.34286952535774 149.74189858814526 367.6833127634775 158.99381638602836C464.0237560015971 168.24573418391145 631.7020984785325 138.36450733879911 660.6801613632267 237.17083425542063C689.6582242479208 335.9771611720422 594.865047748447 579.9435239228928 506.7780146100099 633.2641855858119 "></path><path d="M653.8201547075435 241.45582073381934C682.0356369900088 337.661981152635 589.737017766837 575.2081764626737 503.9680644478324 627.1256628186738C418.1991111288279 679.0431491746742 317.40799389054473 547.3489228223992 242.12917877632202 490.65975524261967C166.8503636620993 433.9705876628402 150.66596699662296 415.9435910686178 142.62975189956353 355.01765843573173C134.5935368025041 294.09172580284564 156.49201347867938 237.73227144380257 203.5553463104368 198.2152786047663C250.61867914219414 158.69828576573002 274.72858107593424 156.32764653147223 368.53374949199815 165.3360928083584C462.33891790806206 174.3445390852446 625.6046724250782 145.2496603150036 653.8201547075435 241.45582073381934C682.0356369900088 337.661981152635 589.737017766837 575.2081764626737 503.9680644478324 627.1256628186738 "></path><path d="M646.9601480518603 245.74077669463986C674.4130497320969 339.3467706156498 584.6089877852269 570.4727984848766 501.15811428565485 620.9871095339579C417.70724078608293 671.5014205830391 319.6402077974831 543.3664976456905 246.39595525391508 488.20946973022956C173.15170271034708 433.0524418147684 157.40472217096465 415.51266134471405 149.58570207652843 356.23337553974386C141.76668198209228 296.9540897347736 163.07330793728983 242.11786387192086 208.86465880062133 203.66889786637205C254.65600966395283 165.21993186082324 278.11429262651075 162.91336395722107 369.3841862205189 171.67833871311035C460.654079814527 180.44331346899958 619.5072463716238 152.13478277362998 646.9601480518603 245.74077669463986C674.4130497320969 339.3467706156498 584.6089877852269 570.4727984848766 501.15811428565485 620.9871095339579 "></path><path d="M640.1001413961772 250.02577843182763C666.7904624741848 341.03160585503167 579.4809578036168 565.7374662834466 498.34816412347743 614.848602025609C417.2153704433381 663.9597377677715 321.8724217044215 539.3841182453491 250.6627317315082 485.7592299942064C179.4530417585948 432.1343417430637 164.14347734530634 415.0817773971776 156.54165225349334 357.4491384201232C148.9398271616804 299.8164994430688 169.65460239590027 246.50350207640633 214.17397129080592 209.122562904345C258.6933401857115 171.7416237322837 281.5000041770873 169.49912715933715 370.2346229490397 178.02063039422944C458.96924172099204 186.5421336291218 613.4098203181694 159.01995100862354 640.1001413961772 250.02577843182763C666.7904624741848 341.03160585503167 579.4809578036168 565.7374662834466 498.34816412347743 614.848602025609 "></path><path d="M633.2401347404939 254.31074965143722C659.1678752162729 342.7164105768354 574.3529278220068 561.0021035644386 495.5382139613 608.710063999682C416.7235001005931 656.4180244349254 324.10463561136 535.4017083274296 254.92950820910124 483.30895974060513C185.75438080684256 431.2162111537808 170.88223251964803 414.65086293206286 163.4976024304583 358.66487078292425C156.11297234126857 302.67887863378576 176.2358968545107 250.88910976331374 219.48328378099046 214.57619742473986C262.7306707074702 178.26328508616598 284.8857157276638 176.08485984387505 371.08505967756037 184.36289155777047C457.284403627457 192.64092327166583 607.312394264715 165.90508872603903 633.2401347404939 254.31074965143722C659.1678752162729 342.7164105768354 574.3529278220068 561.0021035644386 495.5382139613 608.710063999682 "></path><path d="M626.3801280848107 258.59572087104686C651.5452879583609 344.4012152986393 569.2248978403968 556.2667408454304 492.7282637991225 602.5715259737549C416.23162975784817 648.8763111020794 326.3368495182983 531.41929840951 259.1962846866943 480.85868948700397C192.05571985509027 430.2980805644979 177.62098769398972 414.21994846694815 170.4535526074232 359.88060314572544C163.2861175208567 305.54125782450274 182.81719131312116 255.27471745022103 224.79259627117506 220.02983194513467C266.7680012292289 184.78494644004826 288.27142727824037 182.67059252841295 371.93549640608114 190.70515272131144C455.5995655339219 198.73971291420992 601.2149682112606 172.79022644345446 626.3801280848107 258.59572087104686C651.5452879583609 344.4012152986393 569.2248978403968 556.2667408454304 492.7282637991225 602.5715259737549 "></path><path d="M619.5201214291276 262.88069209065645C643.922700700449 346.086020020443 564.0968678587867 551.5313781264224 489.91831363694496 596.432987947828C415.7397594151032 641.3345977692336 328.5690634252368 527.4368884915904 263.4630611642874 478.4084192334028C198.35705890333804 429.37994997521514 184.3597428683314 413.78903400183344 177.4095027843881 361.09633550852664C170.45926270044487 308.4036370152198 189.3984857717316 259.66032513712844 230.1019087613596 225.4834664655295C270.8053317509876 191.3066077939306 291.65713882881687 189.25632521295086 372.7859331346019 197.0474138848524C453.91472744038697 204.83850255675395 595.1175421578062 179.6753641608699 619.5201214291276 262.88069209065645C643.922700700449 346.086020020443 564.0968678587867 551.5313781264224 489.91831363694496 596.432987947828 "></path><path d="M612.6601147734443 267.16569382784417C636.3001134425369 347.7708552598249 558.9688378771766 546.7960459249924 487.10836347476743 590.2944804394791C415.24788907235836 633.7929149539657 330.8012773321751 523.4545090912488 267.72983764188047 475.95817949737966C204.65839795158575 428.46184990351037 191.0984980426731 413.35815005429697 184.36545296135307 362.31209838890595C177.63240788003299 311.26604672351493 195.97978023034204 264.0459633416139 235.41122125154413 230.93713150350243C274.8426622727463 197.828299665391 295.04285037939337 195.84208841506688 373.6363698631226 203.38970556597155C452.2298893468519 210.93732271687617 589.0201161043518 186.56053239586345 612.6601147734443 267.16569382784417C636.3001134425369 347.7708552598249 558.9688378771766 546.7960459249924 487.10836347476743 590.2944804394791 "></path><path d="M605.8001386353394 271.4506650474538C628.677556702203 349.45565998162874 553.8408384131448 542.0606832059843 484.29844383016814 584.1559424135521C414.7560492471915 626.2512016211199 333.0335217566917 519.4720991733293 271.99664463705165 473.5079092437784C210.9597675174116 427.5437193142275 197.83728373459292 412.92723558918226 191.3214336558961 363.52783075170714C184.8055835771993 314.1284259142319 202.5611052065306 268.43157102852126 240.72056425930685 236.3907660238973C278.8800233120831 204.34996101927328 298.42859244754806 202.42782109960478 374.4868371092215 209.73196672951252C450.54508177089497 217.0361123594202 582.9227205684756 193.44567011327888 605.8001386353394 271.4506650474538C628.677556702203 349.45565998162874 553.8408384131448 542.0606832059843 484.29844383016814 584.1559424135521 "></path><path d="M598.940101462078 275.73562100827434C621.054938926713 351.1404494446434 548.7127779139566 537.3253052281873 481.4884631504126 578.017389128836C414.26414838686856 618.7094730294848 335.2657051460519 515.4896739966207 276.2633905970666 471.05762373138816C217.26107604808124 426.62557346615563 204.57600839135648 412.4963058652786 198.27735331528288 364.74354785571916C191.97869823920928 316.9907898461598 209.14236914756293 272.8171634566396 246.02984623191327 241.84438528550305C282.91732331626366 210.87160711436655 301.81427348054643 209.01353852535368 375.33724332016413 216.07421263426443C448.8602131597818 223.13488674317523 576.825263997443 200.33079257190525 598.940101462078 275.73562100827434C621.054938926713 351.1404494446434 548.7127779139566 537.3253052281873 481.4884631504126 578.017389128836 "></path><path d="M592.0800948063948 280.020592227884C613.432351668801 352.8252541664472 543.5847479323465 532.5899425091792 478.67851298823507 571.878851102909C413.7722780441236 611.167759696639 337.49791905299037 511.50726407870116 280.53016707465963 468.607353477787C223.56241509632895 425.70744287687273 211.31476356569817 412.0653914001639 205.23330349224784 365.95928021852035C199.15184341879745 319.85316903687686 215.72366360617337 277.20277114354695 251.33915872209786 247.29801980589787C286.95465383802235 217.39326846824883 305.199985031123 215.59927120989158 376.1876800486848 222.41647379780545C447.1753750662467 229.23367638571932 570.7278379439886 207.21593028932074 592.0800948063948 280.020592227884C613.432351668801 352.8252541664472 543.5847479323465 532.5899425091792 478.67851298823507 571.878851102909 "></path><path d="M585.2201339270789 284.30557870628263C605.8098101872562 354.5100741470401 538.4567637271037 527.8545950489602 475.86860860242473 565.7403283357712C413.2804534777458 603.626061622582 339.7301787362959 507.5248694195707 284.79698932861993 466.1570984829748C229.8637999209439 424.789327546379 218.05356451640705 411.63449219383824 212.18929944557993 367.1750278401106C206.32503437475276 322.71556348638296 222.30500384115095 281.58839408924337 256.6485169886496 252.7516695850818C290.99203013614823 223.91494508092018 308.5857423580667 222.18501915321855 377.03816255357276 228.75875022013548C445.49058274907884 235.33248128705242 564.6304576669014 214.10108326552523 585.2201339270789 284.30557870628263C605.8098101872562 354.5100741470401 538.4567637271037 527.8545950489602 475.86860860242473 565.7403283357712 "></path><path d="M578.3601120126066 288.59058044347034C598.1872076705552 356.19490938642195 533.3287184867047 523.1192628475302 473.05864318145825 559.6018208274222C412.7885678762118 596.0843788073144 341.9623773844453 503.54249001922926 289.0637505474239 463.70685874695175C236.16512371040255 423.87122747467424 224.79230443195968 411.20360824630177 219.14523436375578 368.3907907204899C213.49816429555187 325.57797319467807 228.88628304097233 285.97403229372884 261.9578142200451 258.20533462305474C295.02934539911786 230.43663695238058 311.9714386498541 228.77078235533457 377.8885840233045 235.10104190125458C443.8057293967547 241.43130144717463 558.533016354658 220.9862515005188 578.3601120126066 288.59058044347034C598.1872076705552 356.19490938642195 533.3287184867047 523.1192628475302 473.05864318145825 559.6018208274222 "></path><path d="M571.5000748393452 292.8755364042909C590.5645898950651 357.8796988494367 528.2006579875165 518.383884869733 470.2486625017026 553.4632675427063C412.2966670158887 588.5426502156793 344.19456077380556 499.56006484252066 293.33049650743885 461.25657323456153C242.4664322410722 422.9530816266024 231.53102908872324 410.772678522398 226.10115402314256 369.60650782450205C220.67127895756192 328.44033712660604 235.46754698200465 290.3596247218472 267.26709619265154 263.6589538846605C299.0666454032984 236.95828304747386 315.3571196828525 235.35649978108341 378.7389902342471 241.44328780600654C442.12086078564164 247.5300758309296 552.4355597836254 227.87137395914516 571.5000748393452 292.8755364042909C590.5645898950651 357.8796988494367 528.2006579875165 518.383884869733 470.2486625017026 553.4632675427063 "></path><path d="M564.6401139600293 297.1605076239005C582.9420484135203 359.5645035712405 523.0726737822736 513.6485221507251 467.43875811589237 547.3247295167791C411.80484244951106 581.0009368828335 346.42682045711115 495.577654924601 297.59731876139915 458.80630298096025C248.7678170656871 422.0349510373195 238.26983003943212 410.3417640572833 233.0571499764747 370.8222401873032C227.84446991351723 331.302716317323 242.04888721698228 294.74523240875453 272.5764544592033 269.1125884050553C303.1040217014243 243.47994440135614 318.74287700979625 241.94223246562137 379.5894727391351 247.7855489695475C440.43606846847376 253.6288654734737 546.3381795065383 234.7565116765606 564.6401139600293 297.1605076239005C582.9420484135203 359.5645035712405 523.0726737822736 513.6485221507251 467.43875811589237 547.3247295167791 "></path><path d="M557.780092045557 301.4454941022992C575.3194458968192 361.2493235518333 517.9446285418745 508.9131746905059 464.6287926949258 541.1862067496413C411.31295684797703 573.4592388087765 348.6590191052605 491.5952602654704 301.86407998020314 456.35604798614816C255.0691408551458 421.1168357068258 245.0085699549848 409.91086485095775 240.01308489465055 372.03798780889343C235.01759983431634 334.1651107668291 248.63016641680366 299.13085535445094 277.8857516905988 274.56623818423924C307.14133696439393 250.00162101402748 322.12857330158374 248.52798040894834 380.4398942088667 254.1278253918776C438.75121511614964 259.7276703748068 540.2407381942947 241.64166465276514 557.780092045557 301.4454941022992C575.3194458968192 361.2493235518333 517.9446285418745 508.9131746905059 464.6287926949258 541.1862067496413 "></path><path d="M550.9201006486628 305.7304805806979C567.6968738976964 362.93414353242616 512.8166138190536 504.177827230287 461.8188577915374 535.0476839825034C410.82110176402125 565.9175407347198 350.89124827098794 487.61286560633994 306.13087171658526 453.90579299133594C261.3704951621826 420.19872037633195 251.74734038811556 409.4799656446321 246.9690503304045 373.25373543048363C242.19076027269352 337.02750521633516 255.21147613420317 303.51647830014736 283.1950794395724 280.0198879634231C311.1786827449417 256.5232976266989 325.5143001109493 255.1137283522753 381.29034619617653 260.4701018142076C437.06639228140364 265.82647527613994 534.1433273996295 248.52681762896964 550.9201006486628 305.7304805806979C567.6968738976964 362.93414353242616 512.8166138190536 504.177827230287 461.8188577915374 535.0476839825034 "></path><path d="M544.0600787341907 310.0154518003075C560.0742713809952 364.61894825422996 507.68856857865444 499.4424645112789 459.00889237057083 528.9091459565764C410.3292161624872 558.3758274018737 353.1234469191373 483.6304556884204 310.39763293538925 451.4555227377348C267.6718189516413 419.28058978704917 258.4860803036682 409.0490511795174 253.9249852485804 374.4694677932848C249.36389019349264 339.8898844070522 261.79275533402455 307.90208598705476 288.50437667096793 285.47352248381793C315.2159980079113 263.04495898058116 328.89999640273675 261.6994610368132 382.1407676659082 266.8123629777486C435.3815389290796 271.925264918684 528.045886087386 255.41195534638507 544.0600787341907 310.0154518003075C560.0742713809952 364.61894825422996 507.68856857865444 499.4424645112789 459.00889237057083 528.9091459565764 "></path><path d="M537.2000873372965 314.3004230199171C552.4516993818723 366.3037529760337 502.5605538558335 494.7071017922708 456.1989574671825 522.7706079306494C409.83736107853133 550.8341140690278 355.35567608486474 479.64804577050086 314.6644246717714 449.0052524841335C273.97317325867806 418.36245919776627 265.22485073679894 408.61813671440274 260.8809506843344 375.68520015608595C256.5370506318698 342.7522635977692 268.37406505142405 312.2876936739621 293.81370441994153 290.92715700421275C319.253343788459 269.56662033446344 332.28572321210237 268.2851937213511 382.99121965321797 273.1546241412896C433.6967160943336 278.02405456122807 521.9484752927207 262.2970930638005 537.2000873372965 314.3004230199171C552.4516993818723 366.3037529760337 502.5605538558335 494.7071017922708 456.1989574671825 522.7706079306494 "></path><path d="M530.3400806816134 318.5854247571049C544.8291121239604 367.98858821541563 497.43252387422353 489.97176959084095 453.38900730500495 516.6321004223005C409.34549073578637 543.29243125376 357.5878899918032 475.66566637015944 318.9312011493645 446.55501274811047C280.27451230692577 417.44435912606156 271.96360591114063 408.1872527668662 267.8369008612993 376.90096303646527C263.710195811458 345.61467330606433 274.9553595100345 316.6733318784476 299.1230169101261 296.38082204218574C323.29067431021775 276.08831220592384 335.67143476267887 274.8709569234672 383.84165638173874 279.4969158224087C432.01187800079856 284.1228747213503 515.8510492392663 269.18226129879406 530.3400806816134 318.5854247571049C544.8291121239604 367.98858821541563 497.43252387422353 489.97176959084095 453.38900730500495 516.6321004223005 "></path><path d="M523.4800587671411 322.87039597671446C537.2065096072594 369.67339293721943 492.3044786338244 485.23640687183286 450.57904188403836 510.4935623963735C408.8536051342524 535.7507179209141 359.8200886399525 471.6832564522398 323.1979623681685 444.1047424945093C286.5758360963845 416.5262285367787 278.70234582669326 407.75633830175155 274.7928357794752 378.11669539926646C270.88332573225705 348.4770524967813 281.5366387098559 321.058939565355 304.4323141415216 301.83445656258056C327.3279895731873 282.6099735598062 339.0571310544663 281.4566896080051 384.6920778514704 285.8391769859497C430.32702464847443 290.2216643638943 509.7536079270228 276.06739901620955 523.4800587671411 322.87039597671446C537.2065096072594 369.67339293721943 492.3044786338244 485.23640687183286 450.57904188403836 510.4935623963735 "></path><path d="M516.6200673702469 327.1553671963241C529.5839376081365 371.3581976590232 487.17646391100334 480.50104415282476 447.76910698065 504.3550243704465C408.36175005029656 528.2090045880682 362.05231780568 467.70084653432025 327.4647541045506 441.65447224090804C292.87719040342125 415.6080979474959 285.441116259824 407.3254238366369 281.74880121522915 379.3324277620676C278.0564861706343 351.33943168749835 288.1179484272554 325.44454725226234 309.74164189049526 307.28809108297537C331.36533535373513 289.13163491368846 342.44285786383193 288.042422292543 385.5425298387802 292.1814381494907C428.64220181372843 296.3204540064384 503.6561971323574 282.952536733625 516.6200673702469 327.1553671963241C529.5839376081365 371.3581976590232 487.17646391100334 480.50104415282476 447.76910698065 504.3550243704465 "></path><path d="M509.7600607145638 331.4403689335118C521.9613503502245 373.0430328984051 482.04843392939335 475.7657119513948 444.9591568184725 498.2165168620976C407.8698797075516 520.6673217728004 364.2845317126184 463.7184671339787 331.7315305821437 439.204232504885C299.178529451669 414.68999787579116 292.1798714341657 406.8945398891003 288.70475139219405 380.5481906424469C285.2296313502224 354.20184139579345 294.6992428858658 329.8301854567478 315.0509543806798 312.74175612094837C335.40266587549377 295.65332678514886 345.82856941440843 294.628185494659 386.39296656730096 298.5237298306098C426.9573637201935 302.41927416656057 497.5587710789031 289.83770496861854 509.7600607145638 331.4403689335118C521.9613503502245 373.0430328984051 482.04843392939335 475.7657119513948 444.9591568184725 498.2165168620976 "></path><path d="M502.90005405888064 335.7253401531214C514.3387630923124 374.7278376202089 476.92040394778337 471.0303492323867 442.14920665629506 492.0779788361706C407.3780093648067 513.1256084399545 366.5167456195568 459.7360572160592 335.99830705973676 436.7539622512837C305.47986849991673 413.77186728650827 298.9186266085074 406.46362542398566 295.66070156915896 381.7639230052481C292.4027765298106 357.0642205865105 301.2805373444762 334.21579314365516 320.36026687086434 318.1953906413432C339.43999639725246 302.1749881390312 349.21428096498494 301.2139181791969 387.2434032958217 304.86599099415076C425.2725256266584 308.51806380910466 491.46134502544874 296.72284268603397 502.90005405888064 335.7253401531214C514.3387630923124 374.7278376202089 476.92040394778337 471.0303492323867 442.14920665629506 492.0779788361706 "></path><path d="M496.0400474031974 340.01031137273105C506.7161758344005 376.41264234201265 471.7923739661733 466.2949865133787 439.33925649411754 485.9394408102436C406.8861390220618 505.58389510710856 368.7489595264952 455.75364729813964 340.2650835373298 434.30369199768256C311.7812075481645 412.85373669722543 305.6573817828491 406.032710958871 302.6166517461239 382.97965536804924C299.5759217093987 359.9265997772275 307.86183180308666 338.6014008305625 325.66957936104893 323.649025161738C343.47732691901115 308.6966494929135 352.5999925155615 307.7996508637348 388.0938400243424 311.2082521576918C423.58768753312336 314.6168534516487 485.3639189719943 303.6079804034494 496.0400474031974 340.01031137273105C506.7161758344005 376.41264234201265 471.7923739661733 466.2949865133787 439.33925649411754 485.9394408102436 "></path><path d="M489.1800407475142 344.29528259234064C499.0935885764885 378.09744706381645 466.6643439845633 461.5596237943705 436.52930633194006 479.8009027843166C406.39426867931684 498.04218177426264 370.9811734334336 451.7712373802201 344.5318600149229 431.85342174408134C318.0825465964122 411.9356061079426 312.3961369571908 405.60179649375635 309.5726019230888 384.1953877308504C306.7490668889869 362.7889789679445 314.4431262616971 342.9870085174699 330.97889185123347 329.1026596821328C347.51465744076984 315.21831084679576 355.985704066138 314.3853835482728 388.9442767528632 317.55051332123276C421.9028494395883 320.7156430941928 479.26649291853994 310.4931181208649 489.1800407475142 344.29528259234064C499.0935885764885 378.09744706381645 466.6643439845633 461.5596237943705 436.52930633194006 479.8009027843166 "></path><path d="M482.3200340918311 348.5802538119503C491.47100131857655 379.78225178562025 461.5363140029532 456.82426107536253 433.7193561697626 473.6623647583896C405.90239833657193 490.50046844141673 373.213387340372 447.7888274623005 348.798636492516 429.4031514904801C324.38388564466 411.01747551865975 319.13489213153247 405.17088202864164 316.52855210005373 385.41112009365156C313.92221206857505 365.65135815866154 321.02442072030755 347.37261620437727 336.28820434141807 334.5562942025277C351.55198796252853 321.73997220067804 359.37141561671456 320.9711162328107 389.79471348138395 323.8927744847738C420.2180113460533 326.8144327367368 473.1690668650856 317.3782558382803 482.3200340918311 348.5802538119503C491.47100131857655 379.78225178562025 461.5363140029532 456.82426107536253 433.7193561697626 473.6623647583896 "></path><path d="M475.4600274361478 352.8652250315599C483.8484140606646 381.467056507424 456.4082840213432 452.08889835635443 430.9094060075851 467.5238267324626C405.41052799382703 482.9587551085708 375.4456012473104 443.8064175443809 353.06541297010904 426.9528812368789C330.6852246929077 410.0993449293769 325.87364730587416 404.739967563527 323.4845022770187 386.62685245645275C321.09535724816317 368.5137373493785 327.605715178918 351.7582238912846 341.5975168316026 340.0099287229225C355.5893184842872 328.2616335545604 362.75712716729106 327.5568489173486 390.64515020990467 330.23503564831475C418.5331732525182 332.9132223792809 467.07164081163114 324.26339355569576 475.4600274361478 352.8652250315599C483.8484140606646 381.467056507424 456.4082840213432 452.08889835635443 430.9094060075851 467.5238267324626 "></path><path d="M468.6000360392537 357.15022676874764C476.2258420615417 383.1518917468059 451.2802692985222 447.35356615492447 428.0994711041967 461.38531922411374C404.91867290987113 475.41707229330297 377.67783041303784 439.8240381440395 357.33220470649115 424.5026415008558C336.98657899994447 409.1812448576722 332.6124177390049 404.3090836159904 330.44046771277266 387.84261533683207C328.2685176865404 371.3761470576737 334.1870248963175 356.1438620957701 346.90684458057626 345.46359376089544C359.626664264835 334.7833254260208 366.1428539766566 334.1426121194646 391.49560219721445 336.57732732943384C416.8483504177723 339.01204253940307 460.9742300169658 331.1485617906893 468.6000360392537 357.15022676874764C476.2258420615417 383.1518917468059 451.2802692985222 447.35356615492447 428.0994711041967 461.38531922411374 "></path><path d="M461.7400293835706 361.43519798835723C468.6032548036297 384.8366964686097 446.1522393169122 442.6182034359164 425.2895209420192 455.24678119818674C404.4268025671262 467.87535896045705 379.91004431997624 435.8416282261199 361.59898118408427 422.05237124725465C343.28791804819224 408.26311426838936 339.3511729133466 403.8781691508758 337.39641788973756 389.0583476996332C335.4416628661285 374.23852624839066 340.76831935492794 360.5294697826775 352.2161570707608 350.9172282812903C363.66399478659366 341.30498677990306 369.5285655272332 340.7283448040025 392.34603892573523 342.91958849297487C415.1635123242372 345.11083218194716 454.8768039635114 338.03369950810475 461.7400293835706 361.43519798835723C468.6032548036297 384.8366964686097 446.1522393169122 442.6182034359164 425.2895209420192 455.24678119818674 "></path><path d="M454.8800379866764 365.7201692079668C460.9806828045068 386.52150119041346 441.0242245940912 437.88284071690833 422.47958603863077 449.10824317225973C403.93494748317033 460.33364562761113 382.1422734857037 431.8592183082003 365.8657729204664 419.60210099365344C349.589272355229 407.3449836791065 346.08994334647736 403.4472546857611 344.3523833254916 390.2740800624344C342.61482330450576 377.1009054391077 347.34962907232745 364.91507746958484 357.5254848197344 356.3708628016851C367.7013405671414 347.8266481337854 372.91429233659875 347.3140774885405 393.196490913045 349.26184965651584C413.4786894894913 351.20962182449125 448.77939316884607 344.9188372255202 454.8800379866764 365.7201692079668C460.9806828045068 386.52150119041346 441.0242245940912 437.88284071690833 422.47958603863077 449.10824317225973 "></path><path d="M448.02001607220416 370.0051556863655C453.3580802878057 388.2063211710063 435.8961793536921 433.14749325668936 419.66962061766424 442.9697204051218C403.44306188163637 452.7919475535543 384.37447213385303 427.8768236490698 370.1325341392704 417.1518459988413C355.8905961446877 406.42686834861274 352.82868326203004 403.0163554794355 351.30831824366743 391.48982768402465C349.7879532253048 379.96329988861373 353.9309082721488 369.30070041528126 362.83478205112993 361.824512580869C371.73865583011104 354.34832474645674 376.2999886283862 353.89982543186744 394.04691238277667 355.60412607884587C411.79383613716715 357.30842672582435 442.6819518566026 351.80399020172473 448.02001607220416 370.0051556863655C453.3580802878057 388.2063211710063 435.8961793536921 433.14749325668936 419.66962061766424 442.9697204051218 "></path><path d="M441.160009416521 374.2901269059751C445.73549302989375 389.8911258928101 430.76814937208206 428.41213053768126 416.85967045548676 436.8311823791948C402.9511915388914 445.25023422070836 386.6066860407915 423.8944137311503 374.39931061686343 414.70157574524006C362.19193519293543 405.5087377593299 359.56743843637173 402.58544101432085 358.26426842063233 392.7055600468258C356.961098404893 382.82567907933077 360.51220273075927 373.6863081021886 368.1440945413145 367.2781471012638C375.77598635186973 360.869986100339 379.68570017896275 360.48555811640534 394.89734911129744 361.9463872423869C410.10899804363214 363.40721636836844 436.58452580314827 358.68912791914016 441.160009416521 374.2901269059751C445.73549302989375 389.8911258928101 430.76814937208206 428.41213053768126 416.85967045548676 436.8311823791948 "></path><path d="M434.3000332784159 378.5751133843738C438.1129362895599 391.57594587340293 425.64014990805015 423.67678307746223 414.0497508108874 430.69265961205684C402.45935171372463 437.70853614665145 388.838930465308 419.91201907201975 378.66611761203467 412.2513207504279C368.4933047587613 404.59062242883607 366.30622412829155 402.1545418079952 365.22024911517536 393.92130766841603C364.13427410205924 385.6880735288368 367.0935277069478 378.0719310478851 373.4534375490772 372.73179688044775C379.81334739120655 367.3916627130104 383.0714422471174 367.0713060597323 395.7478163573963 368.2886636647169C408.4241904676752 369.50602126970153 430.48713026727194 365.57428089534466 434.3000332784159 378.5751133843738C438.1129362895599 391.57594587340293 425.64014990805015 423.67678307746223 414.0497508108874 430.69265961205684 "></path><path d="M427.4399961051546 382.8600846039834C430.49031851406977 393.26075059520673 420.51208940886204 418.94142035845414 411.2397701311318 424.55412158612984C401.9674508534016 430.16682281380554 391.0711138546683 415.92960915410015 382.9328635720496 409.8010504968267C374.7946132894309 403.67249183955323 373.0449487850551 401.72362734288055 372.1761687745622 395.1370400312172C371.3073887640693 388.55045271955385 373.6747916479801 382.4575387347924 378.7627195216836 378.18543140084256C383.8506473953871 373.9133240668927 386.45712328011575 373.6570387442702 396.5982225683389 374.63092482825795C406.739321856562 375.6048109122456 424.38967369623947 372.4594186127601 427.4399961051546 382.8600846039834C430.49031851406977 393.26075059520673 420.51208940886204 418.94142035845414 411.2397701311318 424.55412158612984 "></path><path d="M420.58001996704957 387.14505582359305C422.86776177373594 394.94555531701053 415.3840899448301 414.2060576394461 408.4298504865324 418.4155835602029C401.47561102823477 422.6251094809596 393.3033582791848 411.9471992361806 387.1996705672208 407.35078024322553C381.0959828552568 402.7543612502704 379.7837344769749 401.2927128777659 379.13214946910523 396.35277239401836C378.48056446123553 391.4128319102708 380.25611662416867 386.84314642169977 384.0720625294463 383.6390659212374C387.88800843472393 380.434985420775 389.84286534827044 380.2427714288081 397.4486898144378 380.9731859917989C405.05451428060513 381.70360055478966 418.2922781603632 379.3445563301755 420.58001996704957 387.14505582359305C422.86776177373594 394.94555531701053 415.3840899448301 414.2060576394461 408.4298504865324 418.4155835602029 "></path><path d="M413.72001331136636 391.4300423019917C415.245174515824 396.6303752976034 410.2560599632201 409.47071017922707 405.61990032435494 412.27706079306495C400.98374068548986 415.08341140690277 395.5355721861232 407.9648045770501 391.46644704481383 404.9005252484134C387.3973219035045 401.8362459197766 386.5224896513166 400.8618136714403 386.08809964607013 397.5685200156086C385.6537096408237 394.2752263597769 386.8374110827791 391.2287693673962 389.38137501963087 389.09271570042125C391.9253389564826 386.9566620334463 393.22857689884694 386.82851937213513 398.2991265429585 387.31546241412894C403.36967618707007 387.8024054561228 412.1948521069088 386.2297093063801 413.72001331136636 391.4300423019917C415.245174515824 396.6303752976034 410.2560599632201 409.47071017922707 405.61990032435494 412.27706079306495 "></path><path d="M406.8600066556832 395.71501352160135C407.62258725791196 398.31518001940714 405.12802998161004 404.73534746021903 402.8099501621775 406.13852276713794C400.4918703427449 407.54169807405685 397.7677860930616 403.98239465913053 395.73322352240694 402.45025499481216C393.6986609517523 400.9181153304938 393.2612448256583 400.4308992063256 393.0440498230351 398.78425237840975C392.8268548204118 397.1376055504939 393.41870554138956 395.6143770543036 394.69068750981546 394.5463502208161C395.9626694782413 393.47832338732866 396.6142884494235 393.41425205667304 399.1495632714793 393.65772357766997C401.68483809353506 393.90119509866685 406.0974260534544 393.1148470237955 406.8600066556832 395.71501352160135C407.62258725791196 398.31518001940714 405.12802998161004 404.73534746021903 402.8099501621775 406.13852276713794 "></path></g></svg>