<svg xmlns="http://www.w3.org/2000/svg" version="1.1" xmlns:xlink="http://www.w3.org/1999/xlink" xmlns:svgjs="http://svgjs.dev/svgjs" viewBox="0 0 800 800" opacity="0.18"><defs><linearGradient x1="50%" y1="0%" x2="50%" y2="100%" id="uundulate-grad"><stop stop-color="#ffd700" stop-opacity="1" offset="45%"></stop><stop stop-color="#444444" stop-opacity="1" offset="100%"></stop></linearGradient></defs><g stroke-width="2" stroke="url(#uundulate-grad)" fill="none"><path d="M735.565939266809 244.82296413790687C745.2768774924841 362.24760092158704 589.8950059737357 466.4118199792433 482.5498478860171 579.2262122661373C375.20468979829855 692.0406045530311 284.77936298809277 812.1032343017575 220.30918044575992 786.3320471149968C155.83899790342707 760.5608599282361 202.71542123043605 591.1886010847381 173.09297168281893 455.5245137696862C143.4705221352018 319.8604264546342 23.362178300539597 226.7978775996678 78.12142261719708 135.144428002748C132.8806669338545 43.490978405828116 298.9697367674398 -7.261739323686186 435.9373444027756 15.587955704471938C572.9049520381113 38.437650732630004 725.8550010411335 127.3983273542267 735.565939266809 244.82296413790687C745.2768774924841 362.24760092158704 589.8950059737357 466.4118199792433 482.5498478860171 579.2262122661373 "></path><path d="M728.5749828345332 248.0557777258134C738.0836098471735 363.03406790983354 585.9388606517325 465.02819907045534 480.8300600241746 575.492291518039C375.7212593966169 685.9563839656225 287.1797935616237 803.5177089279173 224.05273982225617 778.2834214742138C160.92568608288855 753.0491340205108 206.82551725725153 587.2054639029191 177.82020207520975 454.367711740264C148.81488689316797 321.5299595776089 31.20880022172787 230.40621382378765 84.827226948455 140.66221109347032C138.44565367518214 50.918208363152985 301.074534553901 1.2228389196702665 435.1886503635005 23.596498634741693C569.3027661731002 45.970158349813175 719.0663558218928 133.0774875417933 728.5749828345332 248.0557777258134C738.0836098471735 363.03406790983354 585.9388606517325 465.02819907045534 480.8300600241746 575.492291518039 "></path><path d="M721.5840264022576 251.2886523488762C730.8903422018632 363.8205959332364 581.9827153297292 463.6446391968236 479.1102721623322 571.758431805097C376.23782899493517 679.8722244133703 289.5802241351546 794.932244589233 227.7962991987523 770.2348568685875C166.01237426235002 745.5374691479417 210.93561328406702 583.2223877562562 182.54743246760057 453.2109707459981C154.15925165113413 323.19955373573987 39.0554221429162 234.01461108306376 91.53303127971293 146.18005521934896C144.01064041650966 58.345499355634104 303.1793323403622 9.707478198182912 434.4399563242257 31.605102600167754C565.700580308089 53.5027270021526 712.2777106026521 138.75670876451608 721.5840264022576 251.2886523488762C730.8903422018632 363.8205959332364 581.9827153297292 463.6446391968236 479.1102721623322 571.758431805097 "></path><path d="M714.5930699699819 254.521526971939C723.6970745565526 364.60712395663927 578.0265700077259 462.261079323192 477.3904843004897 568.024572092155C376.7543985932534 673.788064861118 291.9806547086856 786.346780250549 231.53985857524856 762.1862922629607C171.09906244181155 738.0258042753726 215.04570931088244 579.2393116095934 187.2746628599914 452.05422975173224C159.5036164091003 324.86914789387083 46.90204406410453 237.62300834233986 98.23883561097085 151.6978993452276C149.5756271578373 65.77279034811522 305.28413012682347 18.192117476695557 433.69126228495065 39.61370656559376C562.098394443078 61.03529565449202 705.4890653834112 144.43592998723886 714.5930699699819 254.521526971939C723.6970745565526 364.60712395663927 578.0265700077259 462.261079323192 477.3904843004897 568.024572092155 "></path><path d="M707.6021440552844 257.7543405598457C716.5038374288201 365.3935909448858 574.0704552033008 460.87745841440403 475.6707269562253 564.2906513440568C377.2709987091499 667.7038442737095 294.38111579979466 777.7612548767088 235.28344846932293 754.1376666221781C176.18578113885115 730.5140783676475 219.15583585527605 575.2561744277743 192.00192376996034 450.89742772231C164.84801168464458 326.53868101684566 54.74869650287093 241.2313445664597 104.94467045980696 157.21568243594993C155.14064441674293 73.20002030544009 307.3889584308628 26.67669572005201 432.94259876325395 47.62224949586357C558.496239095645 68.56780327167519 698.7004506817486 150.11509017480546 707.6021440552844 257.7543405598457C716.5038374288201 365.3935909448858 574.0704552033008 460.87745841440403 475.6707269562253 564.2906513440568 "></path><path d="M700.6111571054306 260.98721518290847C709.3105392659315 366.1801189682885 570.1142793637193 459.4938985407723 473.95090857680475 560.5567916311147C377.78753778989017 661.6196847214574 296.78151585574744 769.1757905380246 239.02697732824095 746.0891020165516C181.2724388007345 723.0024134950784 223.2659013645134 571.2730982811115 196.72912364477304 449.740686728044C170.19234592503267 328.20827517497673 62.595287906481076 244.83974182573593 111.65044427348676 162.73352656182857C160.70560064049243 80.62731129792121 309.4937256997458 35.161334998564655 432.1938742064008 55.63085346128963C554.8940227130557 76.10037192401455 691.9117749449298 155.7943113975283 700.6111571054306 260.98721518290847C709.3105392659315 366.1801189682885 570.1142793637193 459.4938985407723 473.95090857680475 560.5567916311147 "></path><path d="M693.6202311907331 264.22005928839303C702.1173021381991 366.96661647411315 566.1581645592942 458.11030814956246 472.23115123254036 556.8229014005947C378.30413790578655 655.5354946516268 299.1819769468566 760.5902956817624 242.77056722231532 738.0405068933467C186.3591574977741 715.4907181049311 227.37602790890696 567.2899916168706 201.45638455474193 448.5839152162C175.53674120057696 329.87783881552946 70.44194034524753 248.4481085674339 118.3562791223228 168.25134017012908C166.27061789939808 88.0545717728242 311.59855400378524 43.645943759499175 431.44521068470397 63.63942690913751C551.2918673656228 83.63291005877585 685.1231602432672 161.47350210267297 693.6202311907331 264.22005928839303C702.1173021381991 366.96661647411315 566.1581645592942 458.11030814956246 472.23115123254036 556.8229014005947 "></path><path d="M686.6292137233013 267.45293391145594C694.9239734577322 367.75314449751613 562.2019582021346 456.72674827593073 470.5113023355416 553.0890416876526C378.82064646894867 649.4513350993745 301.58234648523126 752.0048313430784 246.51406556365532 729.9919422877202C191.44578464207933 707.979053232362 231.48606290056614 563.3069154702076 206.18355391197656 447.42717422193414C180.88104492338687 331.54743297366053 78.28850123127961 252.05650582671 125.06202241842453 173.76918429600767C171.83554360556946 95.48186276530532 313.70329075509017 52.13058303801188 430.6964556102728 71.64803087456357C547.6896204654554 91.16547871111527 678.3344539888702 167.15272332539575 686.6292137233013 267.45293391145594C694.9239734577322 367.75314449751613 562.2019582021346 456.72674827593073 470.5113023355416 553.0890416876526 "></path><path d="M679.6383183261819 270.6857780169406C687.730766847578 368.53964200334076 558.2458739152876 455.343157884721 468.79157550885543 549.3551514571326C379.3372771024233 643.3671450295442 303.9828380939184 743.4193364868162 250.2576859753077 721.9433471645156C196.53253385669706 700.4673578422149 235.59621996253787 559.3238088059668 210.91084533952358 446.27040271009014C186.22547071650928 333.2169966142134 86.13518418762413 255.6648725684081 131.7678877848387 179.28699790430818C177.40059138205328 102.90912324020832 315.8081495767076 60.6151917989464 429.9478226061542 79.65660432241151C544.0874956356006 98.69801684587657 671.5458698047858 172.83191403054047 679.6383183261819 270.6857780169406C687.730766847578 368.53964200334076 558.2458739152876 455.343157884721 468.79157550885543 549.3551514571326 "></path><path d="M672.64730085875 273.9186221224253C680.5374381671112 369.3261395091654 554.289667558128 453.95956749351126 467.07172661185666 545.6212612266124C379.8537856655853 637.2829549597138 306.3832076322931 734.8338416305539 254.0011843166477 713.8947520413109C201.61916100100228 692.9556624520677 239.7062549541971 555.3407021417258 215.63801469675815 445.113631198246C191.5697744393192 334.8865602547662 93.98174507365621 259.2732393101061 138.47363108094038 184.8048115126087C182.9655170882246 110.33638371511131 317.91288632801263 69.09980055988098 429.1990675317229 87.66517777025939C540.4852487354333 106.23055498063786 664.7571635503888 178.5111047356852 672.64730085875 273.9186221224253C680.5374381671112 369.3261395091654 554.289667558128 453.95956749351126 467.07172661185666 545.6212612266124 "></path><path d="M665.6563444264743 277.1514967454881C673.3441705218006 370.11266753256837 550.3335222361247 452.5760076198794 465.35193875001414 541.8874015136705C380.37035526390366 631.1987954074615 308.7836382058241 726.2483772918699 257.74474369314396 705.8461874356843C206.70584918046376 685.4439975794987 243.81635098101253 551.3576259950629 220.36524508914897 443.95689020398004C196.9141391972854 336.5561544128973 101.82836699484449 262.8816365693822 145.1794354121983 190.32265563848733C188.53050382955217 117.76367470759249 320.0176841144738 77.58443983839362 428.45037349244797 95.67378173568545C536.883062870422 113.76312363297728 657.968518331148 184.19032595840798 665.6563444264743 277.1514967454881C673.3441705218006 370.11266753256837 550.3335222361247 452.5760076198794 465.35193875001414 541.8874015136705 "></path><path d="M658.6654185117768 280.3843408509729C666.1509333940683 370.899165038393 546.3774074316996 451.1924172286697 463.63218140574986 538.1535112831504C380.88695537980016 625.114605337631 311.18409929693314 717.6628824356077 261.4883335872183 697.7975923124797C211.79256787750336 677.9323021893515 247.92647752540614 547.3745193308218 225.09250599911792 442.80011869213604C202.2585344728297 338.2257180534501 109.67501943361094 266.49000331108016 151.8852702610344 195.8404692467878C194.09552108845787 125.19093518249542 322.1225124185132 86.06904859932814 427.70170997075115 103.68235518353333C533.2809075229891 121.29566176773858 651.1799036294854 189.86951666355264 658.6654185117768 280.3843408509729C666.1509333940683 370.899165038393 546.3774074316996 451.1924172286697 463.63218140574986 538.1535112831504 "></path><path d="M651.6744620795012 283.6172154740357C658.9576657487577 371.68569306179575 542.4212621096963 449.80885735503796 461.91239354390734 534.4196515702083C381.4035249781184 619.0304457853788 313.58452987046417 709.0774180969236 265.2318929637145 689.749027706853C216.87925605696483 670.4206373167824 252.03657355222163 543.3914431841591 229.81973639150874 441.64337769787016C207.60289923079586 339.8953122115811 117.52164135479921 270.09840057035626 158.59107459229233 201.35831337266643C199.66050782978544 132.61822617497654 324.2273102049744 94.55368787784084 426.9530159314762 111.6909591489594C529.678721657978 128.82823042007794 644.3912584102447 195.5487378862755 651.6744620795012 283.6172154740357C658.9576657487577 371.68569306179575 542.4212621096963 449.80885735503796 461.91239354390734 534.4196515702083 "></path><path d="M644.6834903884364 286.8500595795203C651.764382844658 372.4721905676204 538.4651015289039 448.4252669638281 460.19259042327576 530.6857613396883C381.9200793176476 612.9462557155484 315.984945185206 700.4919232406614 268.9754370814216 681.7004325836483C221.9659289776373 662.9089419266354 256.146654320248 539.4083365199181 234.5469515251105 440.48660618602605C212.94724872997296 341.56487585213404 125.36824801719848 273.7067673120543 165.2968636647612 206.87612698096694C205.22547931232396 140.04548664987954 326.3320927326465 103.03829663877536 426.2043066334122 119.69953259680733C526.0765205341778 136.36076855483924 637.6025979322148 201.2279285914202 644.6834903884364 286.8500595795203C651.764382844658 372.4721905676204 538.4651015289039 448.4252669638281 460.19259042327576 530.6857613396883 "></path><path d="M637.6925186973717 290.08293420258315C644.5710999405585 373.25871859102324 534.5089409481117 447.0417070901965 458.4727873026443 526.9519016267463C382.4366336571769 606.8620961632962 318.38536049994786 691.9064589019774 272.71898119912873 673.6518679780219C227.05260189830972 655.3972770540663 260.25673508827435 535.4252603732552 239.27416665871226 439.32986519176006C218.2915982291501 343.234470010265 133.2148546795977 277.31516457133046 172.0026527372301 212.39397110684558C210.79045079486247 147.4727776423607 328.43687526031863 111.52293591728807 425.4555973353481 127.70813656223334C522.4743194103776 143.89333720717866 630.813937454185 206.907149814143 637.6925186973717 290.08293420258315C644.5710999405585 373.25871859102324 534.5089409481117 447.0417070901965 458.4727873026443 526.9519016267463 "></path><path d="M630.7016080414633 293.3157783080678C637.3778780716151 374.045216096848 530.5528414024755 445.65811669898665 456.75304521716896 523.2180113962262C382.95324903186247 600.7779060934658 320.78583684984596 683.3209640457152 276.4625863519922 665.6032728548172C232.13933585413838 647.8855816639192 264.366876891457 531.4421537090144 244.0014428274702 438.17309367991606C223.63600876348346 344.90403365081784 141.0615223771532 280.92353131302843 178.70850284485522 217.91178471514604C216.35548331255723 154.90003811726365 330.5417188231471 120.00754467822259 424.70694907244047 135.71671001008127C518.8721793217337 151.42587534193996 624.0253380113115 212.58634051928772 630.7016080414633 293.3157783080678C637.3778780716151 374.045216096848 530.5528414024755 445.65811669898665 456.75304521716896 523.2180113962262 "></path><path d="M623.7106363503987 296.5486224135525C630.1845951675156 374.8317136026726 526.5966808216832 444.2745263077768 455.0332420965374 519.484121165706C383.46980337139166 594.6937160236353 323.18625216458787 674.7354691894529 280.2061304696993 657.5546777316124C237.2260087748108 640.3738862737719 268.47695765948345 527.4590470447733 248.72865796107203 437.01632216807207C228.98035826266056 346.5735972913707 148.90812903955242 284.5318980547264 185.41429191732408 223.42959832344656C221.92045479509574 162.3272985921667 332.6465013508192 128.4921534391571 423.95823977437635 143.7252834579292C515.2699781979336 158.95841347670125 617.2366775332817 218.26553122443238 623.7106363503987 296.5486224135525C630.1845951675156 374.8317136026726 526.5966808216832 444.2745263077768 455.0332420965374 519.484121165706 "></path><path d="M616.719679918123 299.7814970366153C622.991327522205 375.61824162607536 522.6405354996799 442.89096643414507 453.313454234695 515.7502614527641C383.98637296971003 588.609556471383 325.58668273811884 666.1500048507688 283.94968984619555 649.5061131259858C242.31269695427227 632.8622214012029 272.5870536862989 523.4759708981105 253.4558883534628 435.8595811738061C234.32472302062672 348.24319144950164 156.75475096074075 288.1402953140025 192.120096248582 228.9474424493252C227.4854415364233 169.75458958464776 334.75129913728045 136.9767927176698 423.2095457351015 151.7338874233552C511.66779233292243 166.49098212904067 610.4480323140409 223.94475244715522 616.719679918123 299.7814970366153C622.991327522205 375.61824162607536 522.6405354996799 442.89096643414507 453.313454234695 515.7502614527641 "></path><path d="M609.7287234858472 303.01434114209997C615.7980598768944 376.4047391319001 518.6843901776766 441.5073760429352 451.59366637285257 512.0163712222441C384.5029425680284 582.5253664015527 327.98711331164975 657.5645099945066 287.69324922269175 641.4575180027812C247.39938513373374 625.3505260110558 276.69714971311436 519.4928642338696 258.1831187458536 434.7028096619621C239.66908777859294 349.9127550900546 164.60137288192902 291.74866205570055 198.82590057983998 234.46525605762565C233.05042827775088 177.1818500595508 336.8560969237417 145.46140147860433 422.4608516958265 159.74246087120315C508.0656064679114 174.02352026380197 603.6593870948002 229.6239431522999 609.7287234858472 303.01434114209997C615.7980598768944 376.4047391319001 518.6843901776766 441.5073760429352 451.59366637285257 512.0163712222441 "></path><path d="M602.7377365359935 306.2471852475847C608.6047617140058 377.19123663772484 514.7282143380952 440.1237856517255 449.8738479934319 508.2824809917238C385.01948164876853 576.4411763317223 330.3875133676026 648.9790151382444 291.4367780816099 633.4089228795765C252.4860427956171 617.8388306209085 280.80721522235166 515.5097575696286 262.9103186206663 433.54603815011797C245.01342201898098 351.5823187306074 172.44796428553923 295.3570287973986 205.53167439351978 239.98306966592617C238.61538450150033 184.6091105344538 338.96086419262474 153.9460102395389 421.7121271389734 167.7510343190511C504.4633900853221 181.55605839856327 596.8707113579815 235.3031338574446 602.7377365359935 306.2471852475847C608.6047617140058 377.19123663772484 514.7282143380952 440.1237856517255 449.8738479934319 508.2824809917238 "></path><path d="M595.7467801037178 309.4800598706475C601.4114940686952 377.9777646611276 510.772069016092 438.74022577809376 448.1540601315894 504.54862127878187C385.5360512470869 570.3570167794699 332.78794394113356 640.3935507995603 295.18033745810607 625.3603582739499C257.57273097507857 610.3271657483394 284.91731124916714 511.5266814229658 267.63754901305714 432.3892971558521C250.35778677694714 353.2519128887384 180.2945862067275 298.9654260566747 212.2374787247777 245.5009137918048C244.1803712428279 192.03640152693492 341.065661979086 162.43064951805155 420.9634330996985 175.7596382844771C500.86120422031104 189.08862705090263 590.0820661387406 240.9823550801674 595.7467801037178 309.4800598706475C601.4114940686952 377.9777646611276 510.772069016092 438.74022577809376 448.1540601315894 504.54862127878187 "></path><path d="M588.7558236714424 312.7129039761322C594.2182264233846 378.7642621669522 506.8159236940887 437.3566353868839 446.434272269747 500.8147310482618C386.0526208454053 564.2728267096396 335.1883745146645 631.8080559432982 298.92389683460226 617.3117631507453C262.65941915454005 602.8154703581924 289.0274072759826 507.54357475872484 272.36477940544796 431.2325256440081C255.7021515349133 354.92147652929134 188.14120812791583 302.57379279837266 218.94328305603563 251.01872740010526C249.74535798415548 199.46366200183792 343.1704597655472 170.91525827898607 420.21473906042354 183.76821173232503C497.2590183553 196.62116518566393 583.2934209194999 246.66154578531211 588.7558236714424 312.7129039761322C594.2182264233846 378.7642621669522 506.8159236940887 437.3566353868839 446.434272269747 500.8147310482618 "></path><path d="M581.7649130155339 315.9457480816169C587.0250045544414 379.55075967277696 502.8598241484526 435.97304499567406 444.71453018427155 497.08084081774166C386.5692362200907 558.1886366398091 337.5888508645626 623.222561087036 302.66750198746564 609.2631680275406C267.7461531103687 595.3037749680452 293.13754907916524 503.5604680944839 277.092055574206 430.075754132164C261.04656206924665 356.5910401698442 195.9878758254713 306.1821595400707 225.6491331636608 256.5365410084058C255.31039050185024 206.8909224767409 345.27530332837557 179.39986703992065 419.4660907975158 191.7767851801729C493.656878266656 204.15370332042522 576.5048214766264 252.34073649045678 581.7649130155339 315.9457480816169C587.0250045544414 379.55075967277696 502.8598241484526 435.97304499567406 444.71453018427155 497.08084081774166 "></path><path d="M574.7739413244692 319.1786227046797C579.8317216503417 380.3372876961798 498.90366356766026 434.58948512204245 442.9947270636401 493.3469811047996C387.08579055962 552.1044770875569 339.9892661793045 614.637096748352 306.4110461051728 601.214603421914C272.8328260310411 587.7921100954761 297.24762984719166 499.57739194782107 281.81927070780773 428.9190131378981C266.3909115684238 358.26063432797514 203.83448248787056 309.7905567993468 232.35492223612965 262.0543851342844C260.87536198438875 214.31821346922203 347.38008585604774 187.8845063184333 418.7173814994518 199.78538914559897C490.0546771428558 211.68627197276464 569.7161609985965 258.01995771317956 574.7739413244692 319.1786227046797C579.8317216503417 380.3372876961798 498.90366356766026 434.58948512204245 442.9947270636401 493.3469811047996 "></path><path d="M567.7830001509826 322.41146681016437C572.6384692638202 381.12378520200446 494.947533504446 433.2058947308326 441.27495446058674 489.6130908742796C387.6023754167274 546.0202870177266 342.3897120116245 606.0516018920897 310.1546207404581 593.1660082987094C277.91952946929166 580.280414705329 301.35774113279615 495.59428528358 286.54651635898756 427.762241626054C271.735291585179 359.93019796852803 211.68111966784795 313.39892354104484 239.06074182617664 267.57219874258493C266.4403639845054 221.74547394412502 349.48489890129804 196.36911507936787 417.9687027189659 207.7939625934469C486.4525065366338 219.21881010752594 562.9275310381449 263.6991484183243 567.7830001509826 322.41146681016437C572.6384692638202 381.12378520200446 494.947533504446 433.2058947308326 441.27495446058674 489.6130908742796 "></path><path d="M560.7919979423398 325.64431091564904C565.4451558421425 381.91028270782914 490.99134240607555 431.82230433962275 439.55512082237703 485.8792006437594C388.1188992386785 539.9360969478961 344.79009680878823 597.4661070358275 313.8981343405871 585.1174131755047C283.00617187238595 572.7687193151818 305.46779138324445 491.61117861933906 291.2737009750112 426.60547011421C277.079610566778 361.5997616090809 219.52769581266904 317.0072902827428 245.76650038106743 273.0900123508854C272.00530494946577 229.17273441902802 351.589650911392 204.8537238403024 417.2199629033238 215.8025360412948C482.85027489525544 226.75134824228724 556.1388400425369 269.37833912346895 560.7919979423398 325.64431091564904C565.4451558421425 381.91028270782914 490.99134240607555 431.82230433962275 439.55512082237703 485.8792006437594 "></path><path d="M553.8010567688532 328.8771855387119C558.251903455621 382.69681073123195 487.0352123428613 430.438744465991 437.8353482193236 482.1453409308174C388.6354840957859 533.8519373956437 347.19054264110827 588.8806426971435 317.6417089758724 577.0688485698781C288.0928753106365 565.2570544426128 309.57790266884894 487.62810247267623 296.0009466261911 425.4487291199441C282.4239905835332 363.2693557672119 227.37433299264637 320.6156875420189 252.47231997111442 278.607856476764C277.5703069495824 236.60002541150914 353.6944639566423 213.33836311881504 416.4712841228379 223.81114000672085C479.24810428903345 234.28391689462666 549.3502100820853 275.0575603461918 553.8010567688532 328.8771855387119C558.251903455621 382.69681073123195 487.0352123428613 430.438744465991 437.8353482193236 482.1453409308174 "></path><path d="M546.8101003365775 332.11006016177464C551.0586358103105 383.4833387546347 483.079067020858 429.0551845923594 436.1155603574812 478.41148121787546C389.1520536941042 527.7677778433915 349.59097321463923 580.2951783584593 321.3852683523686 569.0202839642515C293.17956349009796 557.7453895700437 313.6879986956644 483.6450263260134 300.7281770185819 424.29198812567813C287.7683553414994 364.93894992534285 235.2209549138347 324.2240848012951 259.17812430237234 284.12570060264267C283.13529369091 244.02731640399026 355.79926174310356 221.82300239732774 415.72259008356286 231.8197439721469C475.6459184240223 241.81648554696608 542.5615648628445 280.7367815689146 546.8101003365775 332.11006016177464C551.0586358103105 383.4833387546347 483.079067020858 429.0551845923594 436.1155603574812 478.41148121787546 "></path><path d="M539.8191439043019 335.34290426725937C543.865368165 384.26983626045944 479.1229216988547 427.67159420114956 434.39577249563865 474.6775909873554C389.6686232924226 521.6835877735612 351.99140378817015 571.7096835021971 325.1288277288648 560.9716888410469C298.26625166955944 550.2336941798965 317.7980947224799 479.66191966177246 305.4554074109727 423.13521661383413C293.1127200994656 366.60851356589575 243.06757683502303 327.8324515429931 265.88392863363026 289.6435142109432C288.70028043223755 251.45457687889325 357.90405952956473 230.30761115826226 414.97389604428804 239.8283174199948C472.04373255901123 249.34902368172732 535.7729196436038 286.4159722740593 539.8191439043019 335.34290426725937C543.865368165 384.26983626045944 479.1229216988547 427.67159420114956 434.39577249563865 474.6775909873554 "></path><path d="M532.8281874720262 338.57574837274404C536.6721005196894 385.0563337662842 475.16677637685143 426.2880038099397 432.67598463379613 470.94370075683526C390.1851928907409 515.5993977037308 354.3918343617011 563.124188645935 328.87238710536104 552.9230937178422C303.35293984902097 542.7219987897494 321.90819074929533 475.6788129975314 310.18263780336355 421.97844510199C298.45708485743177 368.27807720644864 250.9141987562113 331.4408182846911 272.58973296488824 295.16132781924364C294.2652671735651 258.88183735379624 360.00885731602597 238.79221991919678 414.22520200501305 247.83689086784273C468.44154669400007 256.8815618164886 528.9842744243631 292.095162979204 532.8281874720262 338.57574837274404C536.6721005196894 385.0563337662842 475.16677637685143 426.2880038099397 432.67598463379613 470.94370075683526 "></path><path d="M525.8372615573287 341.8086229958069C529.478863391957 385.84286178968694 471.21066157242626 424.90444393630804 430.9562272895318 467.2098410438932C390.70179300663733 509.51523815147846 356.7922954528102 554.5387243072508 332.61597699943536 544.8745291122156C308.43965854606057 535.2103339171803 326.01831729368894 471.69573685086857 314.9098987133325 420.82170410772414C303.80148013297605 369.9476713645796 258.76085119497776 335.0492155439672 279.2955678137243 300.6791719451223C299.8302844324708 266.30912834627736 362.1136856200653 247.27685919770948 413.47653848331623 255.8454948332688C464.83939134656714 264.41413046882803 522.1956597227005 297.7743842019268 525.8372615573287 341.8086229958069C529.478863391957 385.84286178968694 471.21066157242626 424.90444393630804 430.9562272895318 467.2098410438932 "></path><path d="M518.8462746074749 345.0414671012916C522.2855652290683 386.6293592955116 467.25448573284484 423.52085354509825 429.2364089101112 463.4759508133732C391.2183320873775 503.4310480816481 359.192695508763 545.9532294509887 336.35950585835343 536.825933989011C313.5263162079439 527.6986385270332 330.12838280292624 467.7126301866276 319.6370985881452 419.66493259588003C309.1458143733641 371.6172350051325 266.6074425985879 338.6575822856652 286.0013416274041 306.1969855534228C305.39524065622027 273.73638882118036 364.2184528889484 255.761467958644 412.7278139264631 263.85406828111667C461.23717496397785 271.94666860358933 515.4069839858815 303.45357490707147 518.8462746074749 345.0414671012916C522.2855652290683 386.6293592955116 467.25448573284484 423.52085354509825 429.2364089101112 463.4759508133732 "></path><path d="M511.8553181751993 348.27431120677625C515.0922975837577 387.4158568013363 463.29834041084155 422.1372631538884 427.5166210482687 459.742060582853C391.73490168569583 497.34685801181763 361.5931260822939 537.3677345947265 340.1030652348497 528.7773388658062C318.6130043874054 520.1869431368859 334.2384788297417 463.72952352238667 324.364328980536 418.50816108403603C314.49017913133025 373.28679864568534 274.45406451977624 342.2659490273632 292.70714595866207 311.71479916172325C310.96022739754784 281.16364929608335 366.3232506754096 264.2460767195786 411.9791198871882 271.8626417289646C457.6349890989668 279.4792067383506 508.6183387666408 309.1327656122162 511.8553181751993 348.27431120677625C515.0922975837577 387.4158568013363 463.29834041084155 422.1372631538884 427.5166210482687 459.742060582853 "></path><path d="M504.8643617429236 351.50718582983905C507.89902993844726 388.2023848247391 459.34219508883825 420.7537032802567 425.7968331864263 456.0082008699111C392.2514712840142 491.2626984595654 363.9935566558249 528.7822702560424 343.8466246113459 520.7287742601796C323.6996925668669 512.675278264317 338.3485748565572 459.74644737572385 329.09155937292684 417.3514200897701C319.83454388929647 374.95639280381636 282.3006864409645 345.87434628663937 299.41295028992 317.2326432876019C316.5252141388754 288.59094028856447 368.42804846187084 272.7307159980912 411.23042584791324 279.8712456943906C454.03280323395575 287.01177539069005 501.8296935474001 314.81198683493903 504.8643617429236 351.50718582983905C507.89902993844726 388.2023848247391 459.34219508883825 420.7537032802567 425.7968331864263 456.0082008699111 "></path><path d="M497.87340531064797 354.7400299353237C500.7057622931367 388.9888823305638 455.3860497668351 419.3701128890469 424.07704532458376 452.27431063939093C392.7680408823325 485.17850838973493 366.39398722935584 520.1967753997801 347.59018398784207 512.680179136975C328.78638074632835 505.1635828741697 342.45867088337263 455.7633407114829 333.81878976531766 416.19464857792605C325.17890864726263 376.6259564443692 290.14730836215284 349.48271302833734 306.1187546211779 322.7504568959024C322.09020088020304 296.01820076346746 370.532846248332 281.21532475902575 410.4817318086383 287.87981914223855C450.4306173689446 294.54431352545134 495.0410483281594 320.4911775400837 497.87340531064797 354.7400299353237C500.7057622931367 388.9888823305638 455.3860497668351 419.3701128890469 424.07704532458376 452.27431063939093 "></path><path d="M490.88243361958337 357.97287404080845C493.512479389037 389.7753798363885 451.4298891860427 417.98652249783703 422.3572422039522 448.54042040887083C393.28459522186176 479.0943183199046 368.7944025440977 511.611280543518 351.33372810554926 504.6315840137703C333.87305366700076 497.6518874840226 346.56875165139905 451.78023404724195 338.54600489891936 415.037877066082C330.52325814643973 378.2955200849221 297.99391502455205 353.0910797700353 312.8245436936468 328.2682705042029C327.65517236274155 303.44546123837046 372.6376287760042 289.6999335199603 409.7330225105743 295.8883925900865C446.8284162451444 302.07685166021264 488.2523878501296 326.17036824522836 490.88243361958337 357.97287404080845C493.512479389037 389.7753798363885 451.4298891860427 417.98652249783703 422.3572422039522 448.54042040887083 "></path><path d="M483.8914924460968 361.20574866387125C486.3192270025156 390.5619078597913 447.4737591228285 416.60296262420536 420.63746960089884 444.80656069592885C393.8011800789692 473.01015876765234 371.1948483764177 503.025816204834 355.0773027408345 496.58301940814374C338.9597571052513 490.1402226114535 350.67886293700354 447.79715790057907 343.27325055009925 413.88113607181606C335.86763816319495 379.9651142430531 305.84055220452944 356.6994770293115 319.5303632836938 333.7861146300815C333.2201743628582 310.8727522308516 374.7424418212545 298.18457279847297 408.9843437300884 303.8969965555125C443.22624563892236 309.60942031255206 481.46375788967794 331.8495894679512 483.8914924460968 361.20574866387125C486.3192270025156 390.5619078597913 447.4737591228285 416.60296262420536 420.63746960089884 444.80656069592885 "></path><path d="M476.9005360138211 364.4385927693559C479.12595935720503 391.348405365616 443.5176138008252 415.2193722329955 418.9176817390563 441.0726704654087C394.31774967728745 466.9259686978219 373.5952789499487 494.44032134857173 358.8208621173307 488.53442428493906C344.0464452847128 482.6285272213064 354.788958963819 443.8140512363381 348.00048094249007 412.72436455997206C341.2120029211612 381.63467788360595 313.6871741257177 360.30784377100946 326.23616761495174 339.303928238382C338.78516110418576 318.30001270575457 376.8472396077157 306.66918155940755 408.2356496908135 311.9055700033604C439.62405977391126 317.1419584473133 474.67511267043716 337.5287801730959 476.9005360138211 364.4385927693559C479.12595935720503 391.348405365616 443.5176138008252 415.2193722329955 418.9176817390563 441.0726704654087 "></path><path d="M469.9095643227564 367.67143687484065C471.93267645310544 392.13490287144066 439.56145322003283 413.8357818417857 417.1978786184248 437.33878023488865C394.83430401681676 460.8417786279915 375.99569426469054 485.8548264923095 362.5644062350379 480.4858291617344C349.1331182053852 475.1168318311592 358.8990397318454 439.83094457209717 352.72769607609183 411.567593048128C346.55635242033827 383.3042415241588 321.533780788117 363.9162105127075 332.9419566874206 344.8217418466825C344.35013258672427 325.72727318065756 378.95202213538784 315.15379032034207 407.4869403927495 319.91414345120836C436.0218586501111 324.6744965820746 467.8864521924074 343.2079708782406 469.9095643227564 367.67143687484065C471.93267645310544 392.13490287144066 439.56145322003283 413.8357818417857 417.1978786184248 437.33878023488865 "></path><path d="M462.9186231492698 370.90431149790345C464.739424066584 392.92143089484347 435.6053231568186 412.45222196815405 415.4781060153714 433.6049205219466C395.35088887392413 454.7576190757392 378.3961400970106 477.2693621536254 366.30798087032315 472.4372645561078C354.2198216436357 467.60516695859013 363.00915101744994 435.8478684254343 357.4549417272717 410.4108520538621C351.9007324370935 384.9738356822898 329.3804179680943 367.5246077719836 339.64777627746764 350.33958597256117C349.9151345868409 333.1545641731387 381.05683518063813 323.6384295988547 406.7382616122636 327.92274741663437C432.41968804388904 332.207065234414 461.0978222319557 348.8871921009634 462.9186231492698 370.90431149790345C464.739424066584 392.92143089484347 435.6053231568186 412.45222196815405 415.4781060153714 433.6049205219466 "></path><path d="M455.92766671699417 374.1371556033881C457.5461564212734 393.70792840066815 431.6491778348153 411.0686315769442 413.7583181535289 429.8710302914265C395.86745847224245 448.6734290059088 380.7965706705415 468.68386729736324 370.05154024681934 464.3886694329031C359.3065098230972 460.09347156844296 367.11924704426536 431.86476176119334 362.18217211966254 409.254080542018C357.24509719505966 386.6433993228427 337.22703988928265 371.1329745136816 346.35358060872557 355.8573995808616C355.4801213281685 340.5818246480417 383.16163296709937 332.1230383597893 405.9895675729886 335.9313208644823C428.81750217887793 339.7396033691753 454.30917701271494 354.5663828061081 455.92766671699417 374.1371556033881C457.5461564212734 393.70792840066815 431.6491778348153 411.0686315769442 413.7583181535289 429.8710302914265 "></path><path d="M448.93669502592945 377.37001496766186C450.3528735171738 394.4944411652819 427.693017254023 409.6850564445234 412.03851503289735 426.13715531969547C396.3840128117717 442.58925419486746 383.1969859852834 460.09838769989005 373.79508436452653 456.3400895684875C364.39318274376967 452.58179143708486 371.2293278122918 427.88167035574145 366.9093872532643 408.097324288963C362.58944669423676 388.3129782221846 345.07364655168186 374.7413565141687 353.0593696811944 361.3752284479512C361.045092810707 348.00910038173373 385.2664154947715 340.6076623795129 405.2408582749246 343.9399095711193C425.21530105507776 347.2721567627257 447.52051653468516 360.2455887700419 448.93669502592945 377.37001496766186C450.3528735171738 394.4944411652819 427.693017254023 409.6850564445234 412.03851503289735 426.13715531969547 "></path><path d="M441.94573859365386 380.60287433193565C443.1596058718633 395.28095392989565 423.7368719320197 408.3014813121027 410.3187271710549 422.4032803479644C396.90058241009007 436.50507938382617 385.5974165588143 451.512908102417 377.5386437410227 448.29150970407187C369.47987092323115 445.07011130572675 375.33942383910727 423.89857895028956 371.6366176456551 406.94056803590803C367.933811452203 389.98255712152655 352.9202684728702 378.3497385146557 359.76517401245235 366.8930573150408C366.61007955203456 355.4363761154258 387.3712132812327 349.0922863992365 404.4921642356497 351.94849827775624C421.61311519006665 354.80471015627603 440.73187131544444 365.9247947339756 441.94573859365386 380.60287433193565C443.1596058718633 395.28095392989565 423.7368719320197 408.3014813121027 410.3187271710549 422.4032803479644 "></path><path d="M434.95479742016727 383.8357184374203C435.96635348534176 396.06745143572033 419.7807418688055 406.9178909208929 408.59895456800143 418.6693901174443C397.41716726719744 430.42088931399576 387.99786239113433 442.92741324615474 381.282218376308 440.2429145808672C374.5665743614817 437.5584159155796 379.44953512471176 419.91547228604855 376.363863296835 405.783796524064C373.2781914689582 391.6521207620794 360.7669056528475 381.95810525635375 366.4709936024994 372.41087092334124C372.1750815521512 362.8636365903288 389.476026326483 357.57689516017103 403.7434854551638 359.9570717256042C418.0109445838446 362.3372482910373 433.9432413549928 371.60398543912027 434.95479742016727 383.8357184374203C435.96635348534176 396.06745143572033 419.7807418688055 406.9178909208929 408.59895456800143 418.6693901174443 "></path><path d="M427.96382572910255 387.06857780169406C428.77307058124217 396.8539642003341 415.8245812880131 405.5343157884721 406.8791514473699 414.9355151457132C397.9337216067267 424.3367145029544 390.39827770587624 434.3419336486816 385.02576249401517 432.1943347164515C379.6532472821541 430.0467357842215 383.5596158927382 415.93238088059667 381.0910784304367 404.627040271009C378.6225409681353 393.32169966142135 368.6135123152468 385.5664872568408 373.17678267496825 377.9286997904308C377.7400530346897 370.29091232402084 391.5808088541551 366.0615191798946 402.9947761570998 367.9656604322411C414.40874346004443 369.8698016845876 427.15458087696294 377.28319140305405 427.96382572910255 387.06857780169406C428.77307058124217 396.8539642003341 415.8245812880131 405.5343157884721 406.8791514473699 414.9355151457132 "></path><path d="M420.9728692968269 390.3014371659678C421.57980293593164 397.6404769649478 411.8684359660098 404.1507406560513 405.15936358552744 411.20164017398224C398.450291205045 418.25253969191306 392.79870827940715 425.7564540512085 388.76932187051136 424.1457548520359C384.7399354616156 422.5350556528634 387.6697119195536 411.9492894751448 385.81830882282753 403.47028401795404C383.96690572610146 394.99127856076325 376.46013423643507 389.1748692573279 379.8825870062262 383.4465286575204C383.3050397760173 377.7181880577129 393.68560664061636 374.54614319961826 402.2460821178248 375.9742491388781C410.8065575950333 377.402355078138 420.3659356577222 382.96239736698783 420.9728692968269 390.3014371659678C421.57980293593164 397.6404769649478 411.8684359660098 404.1507406560513 405.15936358552744 411.20164017398224 "></path><path d="M413.9819128645513 393.5342812714525C414.3865352906211 398.4269744707725 407.9122906440066 402.7671502648415 403.439575723685 407.4677499434621C398.9668608033634 412.1683496220827 395.1991388529381 417.17095919494625 392.51288124700756 416.09715972883123C389.82662364107705 415.0233602627162 391.7798079463691 407.9661828109038 390.54553921521835 402.31351250611C389.3112704840677 396.66084220131614 384.3067561576234 392.78323599902586 386.5883913374841 388.9643422658209C388.87002651734485 385.1454485326159 395.7904044270776 383.0307519605528 401.4973880785499 383.98282258672606C407.2043717300222 384.9348932128993 413.5772904384815 388.6415880721325 413.9819128645513 393.5342812714525C414.3865352906211 398.4269744707725 407.9122906440066 402.7671502648415 403.439575723685 407.4677499434621 "></path><path d="M406.99095643227565 396.7671558945153C407.1932676453105 399.2135024941753 403.9561453220033 401.38359039120985 401.71978786184246 403.7338902305201C399.4834304016817 406.0841900698304 397.59956942646903 408.5854948562622 396.2564406235038 408.0485951232047C394.9133118205385 407.51169539014717 395.8899039731845 403.98310666424095 395.2727696076092 401.15677151184406C394.65563524203384 398.3304363594471 392.15337807881167 396.391633258302 393.2941956687421 394.4821863916995C394.4350132586724 392.572739525097 397.89520221353877 391.5153912390655 400.74869403927494 391.99142655215206C403.6021858650111 392.4674618652387 406.7886452192407 394.3208092948553 406.99095643227565 396.7671558945153C407.1932676453105 399.2135024941753 403.9561453220033 401.38359039120985 401.71978786184246 403.7338902305201 "></path></g></svg>