<svg xmlns="http://www.w3.org/2000/svg" version="1.1" xmlns:xlink="http://www.w3.org/1999/xlink" xmlns:svgjs="http://svgjs.dev/svgjs" viewBox="0 0 800 800" opacity="0.23"><defs><linearGradient x1="50%" y1="0%" x2="50%" y2="100%" id="uundulate-grad"><stop stop-color="#ffd700" stop-opacity="1" offset="45%"></stop><stop stop-color="#444444" stop-opacity="1" offset="100%"></stop></linearGradient></defs><g stroke-width="2" stroke="url(#uundulate-grad)" fill="none"><path d="M751.0860505530434 116.1737341844692C800.536804760369 255.02758954141018 687.357277467918 647.0014655668019 571.502399194478 738.1245549536643C455.647520921038 829.2476443405267 305.0979016770591 629.8628999712548 194.98263484053246 553.5645632414077C84.86736800400581 477.2662265115607 60.931763762574235 457.1568363854823 42.949118379149525 371.89253865039746C24.966472995724757 286.62824091531274 48.00142437089289 206.85145274009426 108.66593700009435 144.29593411300084C169.33044962929569 81.74041548590736 200.3012553424511 77.48484089212525 334.1387789993155 71.62604924034775C467.97630265617977 65.76725758857032 701.6352963457177 -22.680121172471786 751.0860505530434 116.1737341844692C800.536804760369 255.02758954141018 687.357277467918 647.0014655668019 571.502399194478 738.1245549536643 "></path><path d="M735.127536836055 129.07497386154233C782.3305294885022 261.6172903386224 674.2955261638898 635.7741719992237 563.7067787210607 722.7553027775921C453.11803127823157 809.736433555961 309.41157654534254 619.414632112565 204.30154911047623 546.5844015977109C99.19152167560992 473.75417108285683 76.34389944515254 454.5588441443276 59.17864703370168 373.17019630629215C42.01339462225076 291.7815484682566 64.00130275309311 215.6309779373663 121.9083375355126 155.9188919751407C179.81537231793214 96.20680601291508 209.37841413503497 92.14466662794132 337.1324139893146 86.55218368760825C464.886413843594 80.95970074727518 687.9245441836077 -3.4673426155376887 735.127536836055 129.07497386154233C782.3305294885022 261.6172903386224 674.2955261638898 635.7741719992237 563.7067787210607 722.7553027775921 "></path><path d="M719.169145189379 141.9761219858811C764.1243762869476 268.20689958310027 661.2338969301741 624.546786878911 555.9112803179559 707.3859590487857C450.58866370573764 790.2251312186604 313.7253734839386 608.9662727011406 213.62058545073262 539.6041484012796C113.51579741752658 470.2420241014188 91.75615719804335 451.9607603504385 75.40829775856633 374.44776240945225C59.060438319089315 296.934764468466 80.00130320560578 224.41041158190387 135.1508601412434 167.54175828454618C190.30041707688105 110.67310498718848 218.45569499793146 106.80440081102296 340.12617104962624 101.47822658213431C461.796647101321 96.15205235324572 674.2139140918101 15.745344388662033 719.169145189379 141.9761219858811C764.1243762869476 268.20689958310027 661.2338969301741 624.546786878911 555.9112803179559 707.3859590487857 "></path><path d="M703.2106619899686 154.8773311453761C745.9181315326591 274.79656986273426 648.172176143724 613.3194627937544 548.1156903621167 692.0166763551355C448.05920458050934 770.7138899165166 318.0390788698003 598.5179743248726 222.93953023825458 532.6239562400048C127.83998160670882 466.7299381551368 107.16832339819973 449.3627375917056 91.63785693069661 375.7253895477686C76.10739046319344 302.08804150383185 96.00121210538407 233.18990626159774 148.39329119423985 179.16468562910796C200.78537028309563 125.13946499661813 227.53288430809346 121.46419602926085 343.1198365572036 116.40433051181668C458.7067888063136 111.34446499437252 660.5031924472783 34.95809242801795 703.2106619899686 154.8773311453761C745.9181315326591 274.79656986273426 648.172176143724 613.3194627937544 548.1156903621167 692.0166763551355 "></path><path d="M687.2522093081363 167.778509787293C727.7119172959483 281.3862096247901 635.110485874852 602.0921081910197 540.3201309238556 676.6473631439071C445.52977597285917 751.2026180967945 322.3528147732401 588.0696454310265 232.25850554335466 525.6437335611516C142.16419631346923 463.21782169127687 122.58052011593429 446.76468431539456 107.86744662040502 377.00298616850705C93.15437312487569 307.2412880216194 112.00115152274049 241.96937042371349 161.63575276481436 190.78758245609157C211.27035400688828 139.60579448846966 236.61010413583358 136.12396072992067 346.11353258235886 131.33040392392093C455.61696102888425 126.53684711792113 646.7925013203244 54.170809949795796 687.2522093081363 167.778509787293C727.7119172959483 281.3862096247901 635.110485874852 602.0921081910197 540.3201309238556 676.6473631439071 "></path><path d="M671.293726108726 180.679718946788C709.5056725416596 287.97587990442423 622.0487650884019 590.8647841058632 532.5245409680164 661.2780804502569C443.000316847631 731.6913767946505 326.66652015910176 577.6213470547586 241.57745033087662 518.6635413998767C156.48838050265147 459.70573574499497 137.99268631609073 444.16666155666167 124.09700579253524 378.2806133068234C110.20132526897982 312.39456505698524 128.00106042251883 250.74886510340735 174.8781838178108 202.4105098006533C221.7553072131028 154.0721544978993 245.68729344599564 150.78375594815856 349.1071980899362 146.25650785360324C452.52710273387675 141.72925975904792 633.0817796757925 73.38355798915177 671.293726108726 180.679718946788C709.5056725416596 287.97587990442423 622.0487650884019 590.8647841058632 532.5245409680164 661.2780804502569 "></path><path d="M655.3352734268938 193.5808975887049C691.2994583049489 294.5655196664801 608.9870748195299 579.6374295031287 524.7289815297553 645.9087672390285C440.4708882399807 712.1801049749284 330.98025606254157 567.1730181609125 250.8964256359767 511.68331872102374C170.81259520941188 456.19361928113494 153.40488303382529 441.56860828035076 140.32659548224365 379.55820992756185C127.24830793066207 317.5478115747728 144.00099983987525 259.5283292655231 188.12064538838536 214.03340662763696C232.24029093689546 168.53848398975077 254.76451327373582 165.44352064881838 352.1008941150916 161.18258126570748C449.4372749564475 156.9216418825966 619.3710885488388 92.59627551092962 655.3352734268938 193.5808975887049C691.2994583049489 294.5655196664801 608.9870748195299 579.6374295031287 524.7289815297553 645.9087672390285 "></path><path d="M639.3768207450617 206.4821067481999C673.0932440682382 301.1551899461142 595.9253845506579 568.4101054179721 516.9334220914943 630.5394845453784C437.94145963233063 692.6688636727844 335.2939919659814 556.7247197846445 260.2154009410768 504.70312655974885C185.1368099161723 452.68153333485316 168.81707975155985 438.97058552161786 156.55618517195205 380.8358370658782C144.29529059234432 322.70108861013864 160.00093925723166 268.30782394521697 201.36310695895992 225.6563339721987C242.72527466068811 183.00484399918042 263.84173310147594 180.10331586705627 355.09459014024696 176.1086851953898C446.3474471790181 172.11405452372333 605.6603974218849 111.80902355028559 639.3768207450617 206.4821067481999C673.0932440682382 301.1551899461142 595.9253845506579 568.4101054179721 516.9334220914943 630.5394845453784 "></path><path d="M623.4183528044402 219.38328539011678C654.8870145727385 307.74482970817013 582.8636790229968 557.1827508152376 509.1378473944442 615.1701713341499C435.4120157658913 673.1575918530623 339.607712610632 546.2763908907984 269.5343609873878 497.72290388089573C199.4610093641436 449.16941687099313 184.22926121050534 436.37253224530696 172.7857596028714 382.11343368661664C161.3422579952375 327.8543351279262 176.00086341579902 277.0872881073327 214.60555327074542 237.2792307991823C253.2102431256917 197.47117349103195 272.918937670427 194.7630805677161 358.0882709066134 191.03475860749404C443.25760414279966 187.306436647272 591.9496910361421 131.02174107206338 623.4183528044402 219.38328539011678C654.8870145727385 307.74482970817013 582.8636790229968 557.1827508152376 509.1378473944442 615.1701713341499 "></path><path d="M607.4599458989752 232.2844945496118C636.680846112395 314.3344999878042 569.802034530492 545.9554267300812 501.3423337325503 599.8008886404998C432.8826329346084 653.6463505509184 343.921494290439 535.8280925145305 278.85338206885507 490.74271171962084C213.7852698472712 445.65733092471123 199.6415037046071 433.77450948657406 189.015395068947 383.391060824933C178.38928643328694 333.00761216329204 192.00084860952268 285.8667827870266 227.8480606176871 248.9021581437441C263.6952726258516 211.9375335004616 281.9962032745343 209.42287578595398 361.08201270813595 205.96086253717635C440.1678221417376 202.4988492883988 578.2390456855555 150.23448911141935 607.4599458989752 232.2844945496118C636.680846112395 314.3344999878042 569.802034530492 545.9554267300812 501.3423337325503 599.8008886404998 "></path><path d="M591.5014474407758 245.18568845031774C618.4745860993171 320.92415500864917 556.7402984852529 534.7280873861356 493.546728517922 584.4315906880605C430.35315855059105 634.1350939899853 348.2351844175116 525.3797788794734 288.17231159758796 483.7625042995569C228.10943877766437 442.1452297196404 215.05365464597446 431.1764714690521 205.2449389822882 384.6686727044604C195.436223318602 338.1608739398687 208.0007422505119 294.6462622079314 241.09047641189449 260.52507022951676C274.18021057327707 226.40387825110219 291.0733773259073 224.08265574540286 364.07566295692413 220.88695120806966C437.077948587941 217.69124667073652 564.5283087822345 169.44722189198626 591.5014474407758 245.18568845031774C618.4745860993171 320.92415500864917 556.7402984852529 534.7280873861356 493.546728517922 584.4315906880605 "></path><path d="M575.5429947589436 258.08685183344556C600.2683718626064 327.513779511916 543.6786082163809 523.5007175246119 485.75116907966094 569.0622622180431C427.8237299429409 614.6238069114743 352.5489203209514 514.9314347268383 297.4912869026881 476.7822663619147C242.43365348442478 438.6330979969913 230.46585136370896 428.578402933952 221.4745286719966 385.94625406640967C212.48320598028425 343.3141051988673 224.00068166786832 303.42571111125807 254.33293798246905 272.14795179771136C284.6651942970697 240.8701924841646 300.1505971536474 238.74240518727356 367.0693589820796 235.81300936138484C433.98812081051176 232.88361353549607 550.8176176552807 188.65992415497504 575.5429947589436 258.08685183344556C600.2683718626064 327.513779511916 543.6786082163809 523.5007175246119 485.75116907966094 569.0622622180431 "></path><path d="M559.5845420771113 270.9880609929406C582.0621576258957 334.10344979155013 530.6169179475089 512.2733934394555 477.95560964139986 553.6929795243929C425.2943013352907 595.1125656093302 356.8626562243912 504.48313635057025 306.8102622077882 469.8020742006398C256.75786819118514 435.1210120507094 245.87804808144352 425.98038017521924 237.704118361705 387.2238812047261C229.5301886419665 348.467382234233 240.00062108522474 312.20520579095194 267.57539955304355 283.7708791422731C295.1501780208624 255.33655249359424 309.2278169813876 253.40220040551145 370.063055007235 250.73911329106716C430.8982930330824 248.07602617662286 537.106926528327 207.87267219433102 559.5845420771113 270.9880609929406C582.0621576258957 334.10344979155013 530.6169179475089 512.2733934394555 477.95560964139986 553.6929795243929 "></path><path d="M543.6261046540682 283.8892396348574C563.8559586479741 340.693089553606 517.555242937426 501.04603883672075 470.16006546192784 538.3236663131645C422.7648879864296 575.6012937896082 361.17640738662004 494.03480745672414 316.12925277167733 462.8218515217868C271.0820981567346 431.60889558684937 261.29026005796715 423.3823268989082 253.93372331020248 388.50147782546446C246.57718656243782 353.62062875202065 256.00057576137027 320.9846699530677 280.8178763824072 295.3937759692567C305.63517700344414 269.80288198544577 318.3050520679168 268.0619651061713 373.05676629117943 265.6651867031714C427.8084805144422 263.26840830017153 523.3962506601622 227.08538971610886 543.6261046540682 283.8892396348574C563.8559586479741 340.693089553606 517.555242937426 501.04603883672075 470.16006546192784 538.3236663131645 "></path><path d="M527.6676367134469 296.7904640531415C545.6497291524745 347.2827750920291 504.49353740976494 489.8187300103534 462.3644907648777 522.9543988783033C420.23544411999035 556.0900677462532 365.4901280312708 483.58652433924533 325.44821281798835 455.8416746193009C285.40629760470597 428.09682489935653 276.70244151691264 420.7843193989645 270.1632977411218 389.77912022257C263.624153965331 358.7739210461755 272.0004999199376 329.7641798915506 294.0603226941927 307.01671857260754C316.12014546844773 284.2692572536645 327.3822566368679 282.7217755831982 376.0504470575458 280.5913058916428C424.71863747822374 278.46083620008733 509.6855442744194 246.29815301425384 527.6676367134469 296.7904640531415C545.6497291524745 347.2827750920291 504.49353740976494 489.8187300103534 462.3644907648777 522.9543988783033 "></path><path d="M511.70918403161465 309.6916579538474C527.4435149157638 353.8724301128741 491.43184714089296 478.59139066640785 454.5689313266166 507.585100925864C417.7060155123402 536.5788111853202 369.80386393471053 473.1382107041883 334.76718812308843 448.8614671992369C299.7305123114663 424.58472369428563 292.1146382346472 418.18628138144254 286.3928874308302 391.0567321020974C280.67113662701325 363.9271828227522 288.00043933729404 338.5436593124554 307.30278426476724 318.6396306583802C326.6051291922404 298.735602004305 336.45947646460803 297.3815555426471 379.0441430827012 295.5173945625361C421.62880970079436 293.65323358242506 495.97485314746564 265.51088579482075 511.70918403161465 309.6916579538474C527.4435149157638 353.8724301128741 491.43184714089296 478.59139066640785 454.5689313266166 507.585100925864 "></path><path d="M495.7507313497824 322.5928518545534C509.2373006790531 360.46208513371914 478.37015687202097 467.3640513224623 446.77337188835554 492.21580297342484C415.17658690469005 517.0675546243872 374.11759983815034 462.68989706913123 344.0861634281885 441.881259779173C314.05472701822674 421.0726224892147 307.52683495238176 415.5882433639206 302.62247712053863 392.3343439816247C297.71811928869556 369.08044459932887 304.00037875465046 347.3231387333602 320.5452458353418 330.26254274415294C337.09011291603304 313.2019467549456 345.5366962923482 312.04133550209593 382.0378391078566 310.4434832334294C418.53898192336504 308.8456309647628 482.2641620205118 284.72361857538766 495.7507313497824 322.5928518545534C509.2373006790531 360.46208513371914 478.37015687202097 467.3640513224623 446.77337188835554 492.21580297342484 "></path><path d="M479.7922786679502 335.49403049647026C491.03108644234237 367.05172489577507 465.308466603149 456.13669671972775 438.97781245009446 476.84648976219637C412.6471582970399 497.5562828046651 378.43133574159015 452.2415681752851 353.4051387332886 434.9010371003199C328.3789417249871 417.5605060253547 322.9390316701163 412.9901900876096 318.85206681024704 393.61194060236306C314.7651019503778 374.2336911171165 320.0003181720069 356.10260289547597 333.7877074059163 341.88543957113654C347.57509663982574 327.6682762467971 354.61391612008833 326.70110020275575 385.031535133012 325.3695566455336C415.4491541459357 324.03801308831146 468.553470893558 303.9363360971655 479.7922786679502 335.49403049647026C491.03108644234237 367.05172489577507 465.308466603149 456.13669671972775 438.97781245009446 476.84648976219637 "></path><path d="M463.833825986118 348.3952243971762C472.8248722056318 373.64137991662005 452.246776334277 444.9093573757822 431.1822530118334 461.47719180975713C410.1177296893897 478.0450262437321 382.7450716450299 441.79325454022813 362.72411403838873 427.9208296802559C342.7031564317475 414.04840482028374 338.3512283878509 410.3921520700877 335.08165649995544 394.88955248189046C331.81208461206006 379.3869528936932 336.00025758936334 364.8820823163808 347.03016897649087 353.5083516569092C358.0600803636184 342.1346209974377 363.69113594782846 341.3608801622046 388.02523115816746 340.2956453164269C412.3593263685064 339.23041047064913 454.8427797666042 323.1490688777324 463.833825986118 348.3952243971762C472.8248722056318 373.64137991662005 452.246776334277 444.9093573757822 431.1822530118334 461.47719180975713 "></path><path d="M447.8753580454967 361.29641829788216C454.618642710132 380.23103493746504 439.18507080661595 433.6820180318366 423.38667831478324 446.1078938573179C407.58828582295047 458.53376968279906 387.05879228968064 431.3449409051711 372.04307408469975 420.94062226019196C357.0273558797188 410.53630361521283 353.7634098467963 407.79411405256576 351.3112309308748 396.16716436141786C348.85905201495325 384.5402146702699 352.0001817479307 373.6615617372856 360.27261528827637 365.13126374268194C368.545048828622 356.6009657480783 372.7683405167796 356.02066012165346 391.01891192453377 355.22173398732014C409.269483332288 354.42280785298686 441.13207338086136 342.3618016582993 447.8753580454967 361.29641829788216C454.618642710132 380.23103493746504 439.18507080661595 433.6820180318366 423.38667831478324 446.1078938573179 "></path><path d="M431.9169206224535 374.1976121985881C436.4124437322104 386.82068995831 426.12339579653303 422.4546786878911 415.5911341353112 430.7385959048786C405.0588724740894 439.02251312186604 391.3725434519095 420.89662727011404 381.3620646485889 413.96041484012795C371.3515858452683 407.02420241014187 369.17562182331994 405.19607603504386 367.54083587937225 397.4447762409452C365.90604993542456 389.6934764468466 368.0001364240762 382.4410411581904 373.51509211763994 376.7541758284546C379.03004781120376 371.0673104987188 381.84557560330876 370.6804400811023 394.01262320847826 370.14782265821344C406.1796708136477 369.6152052353246 427.4213975126967 361.5745344388662 431.9169206224535 374.1976121985881C436.4124437322104 386.82068995831 426.12339579653303 422.4546786878911 415.5911341353112 430.7385959048786 "></path><path d="M415.9584526818322 387.09880609929405C418.20621423671065 393.410344979155 413.061690268872 411.2273393439455 407.7955594382611 415.3692979524393C402.5294286076502 419.511256560933 395.6862640965602 410.44831363505705 390.6810246948999 406.980207420064C385.6757852932396 403.51210120507096 384.58780328226544 402.5980380175219 383.7704103102916 398.7223881204726C382.95301733831775 394.8467382234233 384.0000605826436 391.2205205790952 386.75753842942544 388.37708791422733C389.51501627620735 385.5336552493594 390.9227801722599 385.3402200405512 397.00630397484457 385.0739113291067C403.0898277774293 384.80760261766227 413.7106911269538 380.7872672194331 415.9584526818322 387.09880609929405C418.20621423671065 393.410344979155 413.061690268872 411.2273393439455 407.7955594382611 415.3692979524393 "></path></g></svg>