<svg xmlns="http://www.w3.org/2000/svg" version="1.1" xmlns:xlink="http://www.w3.org/1999/xlink" xmlns:svgjs="http://svgjs.dev/svgjs" width="1920" height="5600" preserveAspectRatio="none" viewBox="0 0 1920 5600"><g mask="url(&quot;#SvgjsMask1043&quot;)" fill="none"><path d="M390.31645655202516 5076.760160560127L31.66513069602229 4901.8342210078 215.39051699969855 5435.411486416129z" fill="rgba(255, 215, 0, 0.4)" class="triangle-float1"></path><path d="M795.0586445728162 1632.2307609530108L431.5167627791551 1268.6888791593497 67.974880985494 1632.2307609530108 431.51676277915516 1995.7726427466719z" fill="rgba(255, 215, 0, 0.4)" class="triangle-float1"></path><path d="M1531.2612999845214 2173.8256870457644L1872.5567328289026 1866.5218990123017 1565.2529447954398 1525.2264661679203 1223.9575119510587 1832.5302542013833z" fill="rgba(255, 215, 0, 0.4)" class="triangle-float1"></path><path d="M1382.9218849007748 1305.1278613662914L1341.824078110162 835.3777802208099 872.0739969646805 876.4755870114227 913.1718037552932 1346.2256681569042z" fill="rgba(255, 215, 0, 0.4)" class="triangle-float3"></path><path d="M1003.1018987369919 4578.953036864068L1227.245408860687 4330.493042439832 942.2292059934288 4264.691867242392z" fill="rgba(255, 215, 0, 0.4)" class="triangle-float1"></path><path d="M1090.3048786069814 644.1611997701406L1442.2049821741887 961.0134762108823 1759.0572586149303 609.1133726436751 1407.157155047723 292.2610962029334z" fill="rgba(255, 215, 0, 0.4)" class="triangle-float3"></path><path d="M241.838,1222.916C322.715,1223.45,396.519,1178.437,437.198,1108.533C478.126,1038.202,487.112,947.795,440.928,880.798C399.01,819.99,315.642,822.36,241.838,825.136C174.673,827.662,104.894,839.276,67.104,894.859C24.571,957.419,15.335,1039.214,50.898,1105.982C88.503,1176.584,161.848,1222.388,241.838,1222.916" fill="rgba(255, 215, 0, 0.4)" class="triangle-float1"></path><path d="M19.429369453063032 3398.9776201444065L-304.30966848325437 3722.716658080724 19.42936945306309 4046.455696017041 343.1684073893805 3722.716658080724z" fill="rgba(255, 215, 0, 0.4)" class="triangle-float1"></path><path d="M384.441,5497.332C508.703,5500.026,617.507,5418.521,677.312,5309.564C734.848,5204.741,724.942,5081.733,671.182,4974.925C610.369,4854.105,519.522,4734.674,384.441,4727.704C240.052,4720.254,103.658,4811.932,41.418,4942.431C-14.256,5059.163,44.763,5187.32,112.766,5297.327C176.14,5399.846,263.943,5494.72,384.441,5497.332" fill="rgba(255, 215, 0, 0.4)" class="triangle-float1"></path><path d="M1576.0570662661037 3206.0530246977128L1857.821964647168 3314.212435521612 1879.1786316924845 2837.485382538066z" fill="rgba(255, 215, 0, 0.4)" class="triangle-float3"></path><path d="M1717.718,4076.358C1859.557,4069.153,1992.405,4005.943,2065.801,3884.357C2141.778,3758.495,2149.344,3603.768,2081.839,3473.166C2008.228,3330.75,1878.014,3213.37,1717.718,3210.919C1553.897,3208.414,1416.306,3320.187,1333.784,3461.727C1250.566,3604.461,1214.948,3782.999,1302.481,3923.129C1386.256,4057.242,1559.794,4084.38,1717.718,4076.358" fill="rgba(255, 215, 0, 0.4)" class="triangle-float1"></path><path d="M941.3444842126503 4835.6487998297525L643.8054139735349 4961.946641984678 770.1032561284601 5259.485712223794 1067.6423263675756 5133.187870068868z" fill="rgba(255, 215, 0, 0.4)" class="triangle-float3"></path><path d="M899.4935091916561 809.259237928801L1150.4468749154942 450.8606888850765 541.0949601479317 558.305872204963z" fill="rgba(255, 215, 0, 0.4)" class="triangle-float2"></path></g><defs><mask id="SvgjsMask1043"><rect width="1920" height="5600" fill="#ffffff"></rect></mask><style>
                @keyframes float1 {
                    0%{transform: translate(0, 0)}
                    50%{transform: translate(-10px, 0)}
                    100%{transform: translate(0, 0)}
                }

                .triangle-float1 {
                    animation: float1 5s infinite;
                }

                @keyframes float2 {
                    0%{transform: translate(0, 0)}
                    50%{transform: translate(-5px, -5px)}
                    100%{transform: translate(0, 0)}
                }

                .triangle-float2 {
                    animation: float2 4s infinite;
                }

                @keyframes float3 {
                    0%{transform: translate(0, 0)}
                    50%{transform: translate(0, -10px)}
                    100%{transform: translate(0, 0)}
                }

                .triangle-float3 {
                    animation: float3 6s infinite;
                }
            </style></defs></svg>