<svg xmlns="http://www.w3.org/2000/svg" version="1.1" xmlns:xlink="http://www.w3.org/1999/xlink" xmlns:svgjs="http://svgjs.dev/svgjs" viewBox="0 0 640 800" opacity="0.17"><defs><linearGradient x1="50%" y1="0%" x2="50%" y2="100%" id="ssscribble-grad"><stop stop-color="#ffd700" stop-opacity="1" offset="0%"></stop><stop stop-color="#ffd700" stop-opacity="1" offset="100%"></stop></linearGradient></defs><g fill="none" stroke-width="1" stroke="url(#ssscribble-grad)" stroke-linecap="round"><path d="M782.02 188.34C760.36 221.21 659.89 273.26 528.18 358.14 399.72 460.74 308.59 604.87 261.79 747.7 253.28 816.81 264.91 770.16 273.99 605.14 290.47 450.01 286.34 421.33 253.48 577.02 220.62 788.32 162.14 857.15 88.71 748.62 22.68 549.63 -40.22 394.78 -74.79 342.79 -71.06 383.46 -14.78 459.53 89.59 513.09 197.21 563.96 284.36 571.49 306.02 538.63 241.15 505.77 128.16 435.62 18.06 327.81 -67.88 217.3 -94.02 89.95 -67.86 6.21 -4.58 15.13 77.35 135.12 153.08 310.03 232.78 394.47 293.12 312.32 325.98 101.02 358.84 -54.66 361.11 -12.66 338.36 166.55 319.58 355.65 288.92 437.15 268.71 411.12 285.62 311.35 346.62 218.51 456.65 172.86 590.85 144.93 717.15 155.48 782.02 188.34Q782.02 188.34 782.02 188.34" opacity="0.63"></path><path d="M748.03 361.41C734.81 389.57 660.11 455.48 554.28 549.73 438.43 637.14 338.81 726.04 268.3 770.7 222.22 746.33 198.25 639.57 183.32 486.53 176.88 386.48 163.38 399.11 135.22 542.97 107.05 728.66 66.88 821.77 24.51 779.89 -9.36 637.73 -29.35 474.69 -20.19 358.62 13.4 299.11 83.14 294.6 178.34 307.47 263.52 337.01 326.81 345.32 340.03 317.16 289.12 289 199.84 227.04 105.31 148.67 16.56 86.99 -34.94 47.53 -46.46 70.1 -30.27 149.25 10.45 282.4 57.81 403.93 112.36 425.19 158.52 320.7 186.68 135.03 214.86 -8.86 222.37 -10.11 216.64 110.56 218.08 284.26 221.3 420.91 242.03 482.2 290.46 474.46 371.84 429.52 481.23 390.91 596.4 345.48 697.1 333.23 748.03 361.4Q748.03 361.41 748.03 361.41" opacity="0.70"></path><path d="M714.03 571.95C707.54 595.42 655.95 637.28 577.41 682.59 483.66 713.26 392.12 719.46 315.96 678.74 250.59 604.19 202.74 492.31 168.7 383.97 140.61 339.16 116.6 381.04 93.13 508.97 59.3 717.87 35.33 649.28 75.54 468.69 120.94 359.45 187.58 287.13 264.13 245.56 325.46 218.88 367.54 199.62 374.03 176.15 335.66 152.68 269.06 127.22 194.26 113.22 114.8 114.12 54.96 149.79 21.61 228.27 3.73 317.74 8.49 413.55 26.94 467.37 51.58 438.77 78.95 326.54 102.42 169.03 125.89 41.07 143.25 8.67 159.28 70.66 181.5 196.21 213.37 332.99 262.01 438.31 326.12 509.8 410.85 540.24 507.52 550.24 599.52 545.61 675.64 548.47 714.03 571.94Q714.03 571.95 714.03 571.95" opacity="0.08"></path><path d="M680.03 615.53C678.5 634.31 646.5 642.58 594.06 634.61 527.17 618.77 455.61 575.92 389.72 506.3 325.29 435.3 271.54 360.04 230.69 308.81 192.32 309.16 163.42 366.77 144.64 474.96 125.86 602.4 118.98 701.07 124.81 745.86 133.12 738.11 157.57 682.32 197.38 604.89 238.67 512.53 290.31 429.66 343.43 367.97 382.11 309.96 406.5 271.24 408.03 252.46 380.65 233.68 334.7 236.62 281.18 262.09 219.25 291.24 165.58 344.8 127.05 412.56 93.91 465.37 77.49 501.25 75.93 495.24 77.71 436.68 89.12 330.4 107.9 202.96 126.67 94.77 151.04 44.77 181.81 58.19 215.91 123.17 261.64 218.35 319.39 313.97 382.53 408.19 456.12 480.35 531.8 528.74 599.09 569.24 652.65 596.76 680.03 615.53Q680.03 615.53 680.03 615.53" opacity="0.56"></path><path d="M646.03 449.87C632.81 478.03 556.89 425.48 468.99 328.71 371.5 275.65 296.62 297.11 268.45 440.97 240.28 626.67 264.17 712.27 324.74 685.92 375.73 594.41 428.81 500.19 442.03 472.02 391.12 443.85 312.98 487.07 252.87 541.67 192.15 531.1 172.71 422.67 200.88 236.97 229.04 93.11 299.48 94.48 397.12 184.46 494.15 318.14 595.12 421.7 646.03 449.87Q646.03 449.87 646.03 449.87" opacity="0.79"></path><path d="M612.03 235.76C580.27 273.32 451.14 243.91 413.59 406.96 376.03 640.9 444.27 659.19 476.03 621.63 395.93 584.08 305.38 504.9 342.94 270.96 380.49 107.91 531.93 198.21 612.03 235.76Q612.03 235.76 612.03 235.76" opacity="0.42"></path></g></svg>