<svg xmlns="http://www.w3.org/2000/svg" version="1.1" xmlns:xlink="http://www.w3.org/1999/xlink" xmlns:svgjs="http://svgjs.dev/svgjs" viewBox="0 0 640 800" opacity="0.4"><defs><linearGradient x1="50%" y1="0%" x2="50%" y2="100%" id="ssscribble-grad"><stop stop-color="#ffd700" stop-opacity="1" offset="0%"></stop><stop stop-color="#ffd700" stop-opacity="1" offset="100%"></stop></linearGradient></defs><g fill="none" stroke-width="1" stroke="url(#ssscribble-grad)" stroke-linecap="round"><path d="M1178.59 327.76C1203.42 355.41 1162.43 381.84 1087.99 407.13 1035.28 432.56 1040.02 457.14 1093.53 481.14 1154.97 505.72 1175.77 530.29 1139.59 555.32 1067.41 581.62 1001.33 609.13 976.17 638.32 1000.5 669.42 1050.75 702.71 1090.72 738.34 1094.46 775.62 1053.51 814.73 985.26 854.95 916.49 894.8 872.86 933.71 864.16 970.06 903.44 1015.81 937.82 1064.92 877.81 1064.98 816.11 1057.86 754.09 1046.47 702.01 1033.54 654.67 1021.7 644.14 1047.19 651.19 1090.94 652.88 1129.8 646.91 1170.93 633.39 1209.39 614.81 1240.91 590.42 1260.71 562.41 1265.86 531.84 1257.31 500.25 1235.62 469.17 1204.83 437.54 1172.6 407.61 1143.52 379.96 1123.52 352.31 1118.21 327.6 1126.98 305.38 1147.44 282.6 1176.79 261.12 1207.42 239.55 1233.26 215.42 1250.9 188.59 1255.13 157 1244.93 120.36 1222.22 77.22 1188.75 27.62 1148.84 -24.17 1107.39 -77.23 1068.38 -126.21 1035.34 -175.06 999.41 -139.73 1019.81 -187.01 1024.13 -248.57 1020.55 -317.08 1009.91 -372.01 992.49 -395.95 969.53 -383.11 941.07 -343.13 908.51 -303.67 872.8 -289.51 835.18 -317.91 796.89 -382.54 758.03 -455.32 719.93 -499.93 683.12 -495.03 647.06 -446.95 612.63 -390.37 579.81 -369.79 547.89 -403.8 517.27 -475.91 487.71 -540.09 458.67 -552.96 430.25 -505.73 402.23 -436.76 374.37 -398.57 346.63 -423.4 318.98 -493.78 291.33 -552.22 264.43 -553.56 238.44 -497.15 212.6 -422.97 187.96 -382.12 164.85 -399.83 142.27 -457.22 121.67 -509.45 103.43 -519.19 86.08 -474.89 71.41 -401.48 59.55 -326.76 44.13 -403.59 22.95 -427.17 12.82 -391.43 2.77 -326.88 -9.91 -257.68 -26.51 -205.41 -48.65 -183.69 -75.98 -190.6 -108.63 -217.26 -146.04 -244.8 -186.85 -258.72 -229.12 -252.66 -270.31 -223.05 -307.81 -175.96 -338.61 -118 -360.98 -59.34 -372.8 -7.13 -373.29 35.95 -364.92 67.07 -348.44 88.14 -327.25 103.91 -299.87 122.19 -299.14 137.42 -336.17 149.63 -372.67 166.31 -411.44 187.06 -446.26 208.24 -472.2 232.8 -483.77 260.45 -478.46 288.1 -458.47 318.18 -426.59 350.86 -388.89 383.96 -352.63 420.34 -322.79 460.28 -303.58 500.88 -298.06 544.71 -304.65 590.54 -320.56 634.18 -343.41 675.83 -366.54 711.71 -385.14 746.36 -397.36 742.36 -348.87 719.72 -294.85 715.24 -253.13 726.79 -210.95 760.29 -171.18 813.78 -136 879.28 -106.68 942.17 -83.57 991.72 -61.73 925.06 -44.61 901.22 -40.73 934.39 -38.34 999.59 -33.37 1071.65 -25.26 1117.87 -15.48 1117.73 -2.05 1074.61 14.76 1021.48 33.48 995.17 55.07 1020.51 78.94 1088.35 104.07 1158.94 130.72 1187.32 158.29 1157.15 186.43 1091.1 214.91 1040.16 243.33 1046.97 271.9 1108.21 300.11 1178.59 327.76Q1178.59 327.76 1178.59 327.76" opacity="0.32"></path><path d="M1134.07 318.5C1159.31 344.61 1125.03 370.77 1055.83 396.99 997.97 423.34 987.26 450.01 1026.19 477.19 1087.36 504.85 1126.99 533.44 1118.56 563.17 1065.11 593.75 994.05 625.81 941.04 659.42 929.25 693.84 957.44 729.63 1003.31 766.38 1040.31 802.94 1043.75 839.36 1009.23 874.59 947.87 907.43 881.12 937.15 829.82 962.4 841.04 997.95 841.03 982.22 768.63 969.31 711.36 967.19 657.9 971.44 613.14 983.71 578.41 1005.33 554.69 1034.78 539.35 1070.25 531.6 1109.14 526.78 1147.32 521.77 1180.53 514.65 1212.32 480.02 1195.78 452.09 1154.56 431.82 1124.39 408.49 1097.56 382.38 1079.01 356.27 1073.58 327.99 1080.68 297.4 1098.47 266.4 1124.96 232.4 1153.73 195.08 1179.61 156.98 1199.68 115.61 1208.79 71.85 1205.31 29.48 1190.27 -12.06 1164.06 -49.56 1129.77 -79.48 1091.3 -99.89 1051.98 -108.03 1015.33 -100.23 972.49 -64.57 935.96 -79.77 938.05 -116.89 944.88 -171.82 951.88 -235.61 957.04 -311.62 960 -298.37 934.11 -245.36 904.82 -238.02 879.88 -266.77 851.36 -327.06 820.35 -396.22 787.31 -445.7 753.2 -453.05 718.85 -419.18 683.93 -365.11 649.59 -326.41 616.21 -332.71 582.95 -384.81 550.85 -456.06 520.02 -505.06 489.4 -502.04 459.92 -449.35 431.61 -385.31 403.38 -353.68 376.17 -378.92 350.06 -445.09 323.95 -503.35 299.55 -513.2 276.92 -468.51 254.37 -397.48 233.72 -344.58 215.1 -340.42 196.68 -382.1 180.4 -438.49 166.29 -473.57 152.29 -461.7 140.26 -407.54 129.92 -309.6 114.01 -307.75 80.74 -364.81 58.89 -375.95 39.8 -351.47 17.21 -298.71 -9.41 -232.82 -40.33 -173.34 -75.02 -133.83 -112.79 -120 -152.17 -128.21 -191.77 -148.13 -229.43 -171.43 -263.1 -184.91 -290.69 -182.79 -310.13 -164.56 -321.19 -130.64 -322.69 -86.42 -315.05 -35.38 -301.69 15.95 -283.65 63.63 -264.32 107.46 -249.17 144.52 -239.96 175.53 -239.64 201.72 -250.9 224.13 -272.48 244.75 -302.63 263.2 -338.58 282.19 -375.03 302.94 -406.69 323.24 -429.65 346.26 -439.4 372.37 -433.97 398.48 -415.42 427.08 -385.95 457.63 -350.62 487.75 -315.6 518.87 -285.18 549.67 -263.29 578.29 -253.14 604.26 -254.07 625.45 -264.42 646.5 -318.86 637.26 -325.11 663.13 -285.27 701.26 -250.09 753.6 -211.19 814.27 -171.25 871.55 -132.4 915.61 -96.55 936.01 -64.91 930.73 -38.4 903.83 -16.94 868.79 0 846.86 12.11 851.45 21.26 889.78 28.66 953.03 33.67 1020.33 38.89 1065.46 45.2 1054.71 55.49 954.1 89.3 1006.48 113.25 1077.6 130.9 1131.75 150.69 1137.67 172.27 1094.85 194.34 1031.51 217.78 991.98 242.29 1007 266.94 1067.9 292.39 1134.07 318.5Q1134.07 318.5 1134.07 318.5" opacity="0.93"></path><path d="M1089.57 348.25C1114.99 372.83 1087.09 398.4 1024.03 424.92 963.56 451.51 939.45 479.16 961.97 507.87 1016.03 536.79 1066.34 566.88 1082.95 598.09 1055.81 629.46 995.8 661.82 930.56 694.85 887.29 727.52 880.94 760.22 907.22 792.27 950.41 822.72 984.91 851.3 992.97 877.02 969.2 899.51 918.57 917.83 856.57 931.22 769.5 939.57 811.58 916.45 801.05 914.02 773.77 920.61 734.34 933.9 688.27 954.41 638.39 982.2 590.48 1015.34 547.32 1051.58 508.62 1088.33 476.34 1121.99 449.41 1149.12 426.86 1167.68 407.31 1175.09 388.96 1170.48 372.47 1156.11 355.12 1132.9 335.89 1104.3 317.04 1076.27 295.49 1051.66 270.91 1034.51 246.33 1029.01 219.31 1034.57 190.3 1049.8 161.66 1073.38 131.83 1099.94 101.98 1125.19 73.98 1146.74 48 1159.68 25.96 1162.07 8.3 1154.29 -3.06 1135.69 -6.95 1108.25 -6.38 1074.89 0 1038.07 9.52 1000.92 15.23 966.34 15.49 936.22 4.89 911.9 -20.57 894.63 -60.92 883.69 -113.89 878.15 -171.23 878.12 -224.77 880.84 -263.44 884.55 -275.28 891.03 -197.63 887.53 -187.81 873.85 -221.46 860.18 -279.78 842.51 -344.9 821.49 -393.1 797.99 -406.78 772.1 -381.52 744.6 -334.3 715.73 -290.29 686.15 -277.02 656.44 -307.5 626.2 -369.54 596.35 -433.09 567.26 -465.09 538.04 -448.21 509.77 -392.6 482.67 -334.4 455.54 -309 429.62 -334.42 405.04 -396.36 380.47 -453.76 357.82 -470.99 337.07 -438.33 316.3 -373.79 297.4 -313.83 280.27 -290.03 263.01 -311.23 247.33 -360.62 232.99 -409.67 218.1 -427.69 204.04 -403.72 190.32 -347.06 175.22 -281.03 159.58 -231.31 142.73 -214.15 123.4 -230.04 101.89 -265.11 77.68 -302.22 50.35 -320.57 20.04 -310.87 -13.11 -273.98 -48.38 -218.46 -85.19 -158.36 -122.34 -105.32 -158.27 -69.39 -191.66 -52.86 -220.66 -81.08 -259.68 -68.8 -227.58 -21.63 -203.84 18 -194.4 59.63 -191.81 100.66 -197.89 142.09 -214.15 180.61 -238.82 215.78 -269.85 249.98 -304.59 281.13 -338.38 309.69 -366.82 337.84 -386.91 364.12 -394.97 388.69 -389.47 413.27 -372.33 435.57 -345.23 455.29 -312.34 474.6 -278.88 490.61 -248.43 502.76 -224.57 517.44 -208.31 528.68 -232.92 532.64 -260.49 541.37 -278.71 556.28 -291.83 580.54 -297.7 615.21 -296.29 660.07 -285.76 712.8 -266.76 766.48 -240.92 815.93 -209.22 852.92 -173.8 871.55 -136.49 869.37 -99.13 848.55 -63.35 820.66 -30.17 795.81 -0.48 787.94 25.43 807.26 47.2 852.98 65.46 915.68 80.86 996.19 98.31 970.01 126.23 908.36 140.57 902.4 150.13 936.43 161.42 999.35 174.64 1062.61 188.02 1095.54 203.45 1081.22 220.89 1030.75 238.53 973.45 258.04 945.65 279.33 967.74 300.68 1027.63 323.67 1089.57 348.25Q1089.57 348.25 1089.57 348.25" opacity="0.51"></path><path d="M1045.08 402.78C1070.43 425.82 1048.55 450.12 992.3 475.56 931.64 500.98 896.79 527.51 902.68 554.96 944.33 582.3 996.57 610.42 1031.46 639 1031.86 667.14 994.53 695.33 934.79 723.05 875.15 749.63 836.85 774.98 829.75 798.41 852.33 819.7 889.54 838.17 923.11 853.15 939.79 865.23 929.42 873.36 893.9 877.34 841.07 878.86 783.44 876.98 732.9 872.39 694.08 862.71 732.77 896.09 720.83 933.16 699.59 964.54 669.8 998.68 634.71 1033.26 595.29 1066.03 555.16 1094.05 516.37 1114.69 477.67 1126.91 441.97 1128.91 409.46 1120.54 377.93 1104.32 349.15 1081.14 322.66 1054.06 296.55 1028.23 272.05 1005.79 249.01 990.02 225.97 984.5 204.93 988.66 186.16 1001.46 167.77 1022.11 152.34 1046.21 140.41 1070.23 120.98 1104.28 105.66 1040.04 84.49 989.34 58.3 954.42 22.16 921.21 -23.39 891.44 -73.65 866.56 -124.95 846.9 -170.29 832.4 -192.93 819.94 -135.56 821.76 -183.88 817.63 -241.43 812.34 -300.97 803.73 -344.1 791.97 -357.56 778.24 -338.03 761.68 -295.28 742.78 -252.42 722.4 -230.1 700.32 -243.51 677.09 -291.4 653.02 -354.64 628.37 -405.18 603.57 -419.96 578.42 -391.89 553.48 -335.79 529.04 -284.1 504.52 -264.55 480.65 -289.9 457.61 -347.58 434.57 -403.51 412.9 -426.89 392.54 -406.04 372.11 -350.66 352.83 -288.75 334.52 -249.51 315.87 -248.91 297.83 -282.62 280.1 -332.57 261.52 -370.76 242.68 -377.97 223.14 -349.79 202.1 -295.04 179.73 -233.54 155.62 -184.89 129.56 -162.8 101.43 -168.84 71.21 -196.87 39.39 -230.84 5.99 -255.74 -28.33 -262.79 -62.49 -245.73 -95.9 -208.07 -127.28 -156.5 -155.49 -101.28 -179.4 -51.49 -197.74 2.08 -186.32 11.21 -146.08 38.66 -159.74 62.61 -179.95 89.45 -206.63 117.46 -237.63 146.96 -270.55 175.89 -301.43 203.31 -326.64 231 -344 256.56 -350.49 279.6 -344.97 302.64 -329.2 322.62 -304.42 339.81 -274.04 357.27 -242.4 372.56 -212.44 386.51 -187.33 401.96 -170.06 417.79 -161.07 435.64 -160.28 457.37 -167.92 483.54 -180.94 515.57 -196.82 552.67 -214.51 595.46 -229.88 642.47 -240.71 688.97 -246.73 733.01 -245.39 769.5 -236.5 793.95 -221.05 803.78 -198.93 797.69 -171.5 780.87 -140.23 757.29 -106.4 735.92 -71.59 728.45 -36.8 740.14 -3.28 774.38 28.15 826.49 57.13 886.11 83.3 938.14 106.73 968.18 127.26 968.42 145.52 940.33 162.06 881.39 183.26 902.78 221.98 992.33 242 1039.05 255.22 1049.46 269.79 1019.13 285.9 966.11 301.9 917.51 319.6 901.2 339.05 929.12 358.49 987.37 379.73 1045.06 402.77Q1045.08 402.78 1045.08 402.78" opacity="0.26"></path><path d="M1000.59 455.94C1025.68 477.45 1009.39 499.75 960.42 522.7 901.79 545.58 859.26 568.97 849.71 592.61 875.62 615.96 921.79 639.26 965.82 662.13 989.1 684.29 979.15 705.53 939.14 725.37 882.29 743.92 827.01 760.47 789.28 774.56 825.74 799.84 847.85 805.55 781.6 801.13 728.89 800 680.75 800.4 642.94 803.47 618.07 811.13 606.51 823.04 605.28 839.74 612.73 861.73 622.86 888.08 631.62 917.93 638.89 950.1 640.05 982.68 634.58 1013.55 624.16 1040.99 607.74 1062.7 586.92 1076.84 562.77 1083.2 536.45 1080.57 509.49 1069.25 481.31 1051.87 453.91 1029.21 428.11 1003.88 402.09 980.29 378.16 959.96 356.66 945.52 335.15 940.02 316.58 942.9 300.72 953.41 284.63 971.18 270.75 992.61 258.38 1014.91 244.79 1036.75 231.26 1054.09 216.4 1064.96 198.21 1069.16 176.43 1064.83 149.58 1052.27 117.79 1032.91 80.29 1007.36 37.71 977.49 -6.36 945.3 -50.76 912.4 -91.36 880.53 -123.27 851.13 -143.72 825.12 -149.62 803.05 -104.03 766.69 -132.21 748.97 -212.15 746.57 -275.01 733.05 -186.71 687.06 -224.15 663.29 -280.32 646.14 -336.75 627.64 -370.96 608.1 -369.71 588.21 -333.51 567.63 -279.13 546.6 -234.42 525.49 -220.31 504.11 -245.4 482.6 -298.84 461.1 -352.68 439.98 -380.88 419.21 -371.13 398.35 -326.75 377.66 -267.66 356.99 -218.55 335.97 -198.14 314.64 -211.29 292.77 -250.44 270.19 -295.16 246.67 -325.33 222.03 -328.87 196.38 -301.45 169.36 -251.78 140.95 -194.05 111.66 -144.53 81.2 -114.55 49.93 -108.97 18.72 -124.08 -12.35 -150.48 -42.47 -179.51 -70.72 -198.64 -96.48 -201.52 -118.7 -186.85 -137.03 -155.3 -150.48 -112.42 -158.41 -63.16 -161.73 -14.74 -159.67 27.94 -152.67 62.88 -143.18 87.92 -131.12 104.14 -118.11 113.87 -103.62 124.26 -161.81 139.21 -205.74 151.47 -236.34 166.8 -264.11 184.6 -286.13 202.76 -300.89 222.73 -305.96 244.23 -300.46 265.74 -286.03 288.27 -263.52 312 -235.68 336.08 -206.1 362.03 -177.1 390.32 -151.43 419.67 -131.8 452.01 -118.9 487.44 -113.12 523.6 -115.12 561.91 -122.83 600.97 -134.5 637.38 -149.61 670.74 -164.67 698.05 -177.66 714.3 -186.41 667.01 -122.45 679.52 -79.92 710.58 -48.64 756.55 -16.47 810.98 15.59 862.77 47.18 901.82 77.43 918.64 105.96 911.05 132.77 882.37 157.62 843.82 180.64 813.33 201.86 803.44 221.65 822.74 240.37 868.67 257.8 927.39 274.76 978.67 291.61 1003.96 307.76 993.83 324.29 953.01 341.5 902.22 358.41 864.17 376.29 858.68 395.3 891.13 414.24 947.15 434.44 1000.59 455.94Q1000.59 455.94 1000.59 455.94" opacity="0.35"></path><path d="M956.09 482.35C980.7 502.32 969.53 522.21 928.06 541.89 873.39 561.5 826.42 580.75 803.89 599.42 812.94 617.78 846.88 635.27 890.43 651.6 927.64 667.29 942.32 681.46 928.86 693.82 890.87 705.25 838.64 714.61 786.45 721.73 750.06 732.91 822.84 736.7 809.15 739.48 779.38 744.73 738.67 752.55 693.04 763.63 646.64 778.94 605.2 798.02 571.48 820.82 546.32 847.11 530.03 875.9 520.79 906.06 518.11 936.4 518.48 965.26 519.48 990.88 516.78 1026.59 477.31 988.02 453.16 953.77 436.02 932.44 417.34 914.16 397.38 901.02 377.41 895.6 356.62 897.34 334.86 905.72 312.78 920.69 289.14 939.34 263.46 959.52 236.8 980.33 207.44 998.3 175.16 1011.61 141.92 1020.07 106.25 1021.55 69.13 1015.85 33.52 1003.95 -0.59 985.7 -30.69 962.3 -54.24 935.29 -69.78 905.73 -75.39 875.16 -72.45 844.86 -60.73 815.88 -42.9 789.12 -25.85 765.29 -12.56 744.6 -8.95 727.08 -20.35 713.07 -47.44 701.8 -89.06 692.72 -138.98 686.26 -189.46 680.94 -230.33 676.11 -215.77 663.18 -152.22 631.86 -214.53 615.31 -291.09 596.55 -294.22 551.03 -222.95 524.88 -185.43 506.99 -176.29 488.03 -200.9 468.06 -250.1 448.09 -301.32 427.59 -333.01 406.59 -333.25 385.52 -300.82 363.83 -248.59 341.48 -195.66 318.92 -160.12 295.53 -152.17 271.26 -172.62 246.65 -210.34 221.06 -249.57 194.54 -276.98 167.76 -280.56 140.2 -258.52 112.12 -216.15 84.28 -163.73 56.47 -113.54 29.23 -75.23 3.29 -55.22 -21.11 -53.69 -43.22 -107.34 -86.29 -95.64 -97.12 -42.14 -84.23 0.48 -74.45 43.04 -64.25 82.64 -55.05 118.88 -49.46 149.46 -47.47 174.63 -50.21 195.07 -59.15 211.46 -73.63 225.33 -93.35 236.47 -117.93 247.12 -145.44 258.44 -173.96 268.86 -201.84 281.08 -226.37 295.65 -245.29 310.06 -257.62 327.16 -261.39 347.13 -255.97 367.1 -242.84 389.46 -222.54 413.94 -197.26 438.27 -169.92 464.37 -142.31 491.61 -116.73 517.94 -95.59 544.29 -79.65 569.38 -69.57 620.3 -104.14 596.88 -139 604.99 -129.16 626.37 -116.66 660.1 -99.56 704.35 -78.63 753.23 -54.72 800.85 -28.34 839.08 -0.41 861.15 28.65 863.37 58.02 845.86 87.07 816.47 115.84 783.39 143.64 758.82 170.22 754.6 195.89 774.44 220.28 816.48 243.46 870.35 265.7 921.07 287 952.8 307.54 956.12 327.44 930.13 346.94 884.91 366.24 840.38 385.23 813.82 404.3 818 423.59 853.63 442.8 906.87 462.37 956.07 482.34Q956.09 482.35 956.09 482.35" opacity="0.08"></path><path d="M911.59 469.35C935.51 487.78 928.92 505.31 894.95 521.89 845.79 538.4 797.58 553.86 765.41 568.13 758.61 582.21 776.79 594.94 811.63 606.21 867.39 621.83 866.17 644.5 803.85 651.72 754.34 656.09 711.66 659.34 682.95 661.83 701.94 674.33 759.21 714.74 737.2 740.22 708.45 761.3 672.62 785.03 633.5 810.96 592.86 838.49 554.57 866.71 520.39 894.48 490.25 920.82 465.46 944.38 445.36 963.87 423 983.27 392.11 982.61 377.77 963.26 368.58 945.51 357.55 925.08 344.23 903.78 331.03 884.69 315.28 868.4 296.85 856.52 278.42 851.22 257.73 851.97 235.03 858.39 212.45 870.68 188.11 886.52 162.52 904.27 137.64 923.44 112.42 941.09 87.88 955.67 35.11 966.39 19.68 908.84 36.37 870.49 47.08 842.7 55.47 814.41 57.85 786.55 50.13 759.82 31.53 734.79 1.19 711.85 -38.54 691.32 -84.28 673.14 -130.16 657.17 -181.2 623.26 -96.86 586.36 -90.07 574.7 -114.81 567.06 -157.55 558.34 -208.34 548.37 -267.07 532.84 -234.43 494.69 -167.52 472.01 -137.2 456.4 -132.48 439.38 -156.4 420.95 -201.38 402.52 -249.51 383.11 -283.36 362.82 -292.15 342.51 -271.75 321.29 -229.35 299.26 -178.39 277.2 -134.09 254.33 -108.42 230.78 -107.44 207.31 -128.3 183.29 -161.97 158.99 -198.43 135.06 -224.3 111.2 -231.78 87.81 -218.77 65.4 -186.69 44.05 -142.49 24.3 -93.96 6.34 -50.03 -9.32 -16.97 -22.17 -38.45 -33.72 -34.81 -4.88 4.58 1.99 37.25 1.72 71.71 -2.35 106.01 -10.84 140.62 -24.51 173.04 -42.52 202.77 -64.3 231.26 -89.27 257.06 -115.73 280.52 -142.01 303.02 -166.88 323.93 -188.14 343.7 -204.08 363.18 -214.15 382.06 -216.77 400.49 -211.47 418.92 -199.59 436.47 -181.44 452.9 -158.71 469.04 -133.76 483.51 -107.91 495.76 -83.04 517.73 -33.34 519.21 -61.11 536.41 -74.63 558.53 -81.37 589 -84.57 627.18 -83.9 669.58 -80.08 713.5 -72.13 753.96 -60.35 785.4 -45.53 804.17 -27.54 807.15 -7.02 795.85 15.5 772.45 39.62 743.11 64.69 718.11 90.61 703.88 116.73 707.31 142.64 731.21 168.59 772.1 193.93 822.07 218.48 869.26 242.72 902.12 266.11 911.55 288.61 896.3 310.78 860.8 332.19 816.96 352.88 781.67 373.37 766.68 393.29 779.1 412.68 816.59 432.01 866.58 450.91 911.57 469.34Q911.59 469.35 911.59 469.35" opacity="0.67"></path><path d="M867.07 423.15C888.22 456.94 818.37 485.57 733.84 508.98 716.74 532.29 771.72 550.39 832.54 563.8 839.26 578.25 776.06 590.16 688.69 601.92 627.64 619.24 618.42 641.18 644.62 670.4 682.02 708.89 695.27 755.05 675.62 805.99 628.59 856.92 565.9 901.33 502.81 931.44 441.02 944.49 389.46 936.34 346.9 908.94 307.73 874.17 272.37 838.11 238.58 812.01 204.78 807.67 174.15 822.21 149.6 849.38 123.47 897.93 129.79 910.4 128.26 861.56 95.82 814.55 34.06 763.02 -47.62 712.67 -118.12 666.42 -148.96 626.35 -123.09 592.45 -70.91 564.85 -38.02 540.82 -69.51 518.05 -155.1 498.06 -229.32 476.24 -225.25 451.16 -153.77 426.58 -90.77 397.59 -111.92 363.8 -198.72 330.01 -248.56 293.01 -207.77 253.86 -117.51 215.21 -60.86 175.56 -77.64 136.98 -141.37 101.19 -180.99 69.56 -158.66 45.08 -84.85 26.89 -0.87 18.45 54.77 20.41 60.05 32.2 17.12 48.27 47.16 22.42 87.68 -15.06 135.55 -61.94 182.29 -109.7 230.87 -149.91 273.11 -171.3 306.9 -166.97 340.7 -140.88 364.44 -97.97 379.59 -50.16 396.59 -9.71 410.19 17.66 428.23 29.39 460.1 24.05 509.07 9.94 577.45 -5.79 683.76 -24.59 713.71 6.5 653.13 54.55 665.98 94.87 735.92 138.61 824.41 182.73 865.96 227.87 828.55 271.25 751.33 311.68 723.58 352 780.27 389.35 867.07 423.15Q867.07 423.15 867.07 423.15" opacity="0.95"></path><path d="M822.59 365.88C845.99 396.6 790.41 422.9 708.08 445.09 667.03 467.68 692.4 487.05 751.16 504.34 794.35 523.82 780.87 543.69 718.58 565.94 638.8 593.5 578.7 626.12 554.45 664.48 564.98 707.92 589.77 754.69 608.63 801.02 616.44 842.89 602.57 875.3 572.56 893 531.5 896.1 485.96 882.18 442.69 854.04 398.13 822.14 359.63 790.5 328.91 767.52 298.19 762.6 276.7 773.23 263.32 795.13 248.66 825.51 238.32 852.77 226.14 870.23 202.91 877.11 166.18 867.81 111.03 844.06 44.82 809.84 -24.07 767.44 -74.86 721.68 -90.87 675.21 -67.2 630.95 -19.41 590.56 10.88 553.9 -3.18 521.05 -68.88 491.04 -150.17 463.64 -193.02 436.92 -163.82 409.68 -93.35 383.14 -44 354.7 -67.4 323.98 -146.1 293.26 -200.83 261.72 -181.94 230.31 -106.17 199.62 -32.45 170.46 -10.6 144.61 -74.34 112.51 -76.22 86.07 29.61 92.36 112.17 100.84 129.12 88.7 119.55 50.18 119.32 10.21 131.45 -34.53 152.99 -76.77 177.53 -110.53 206.47 -127.39 237.19 -122.47 267.91 -99.5 298.96 -61.63 332.35 -17.88 368.75 22.11 412.5 53.52 465.96 72.94 523.22 77.76 584.92 72.9 640.09 63.03 679.18 43.51 611.57 42.8 610.4 68.33 668.56 93.43 750.23 124.15 809.44 157.91 810.12 193.86 753.9 230.37 689.97 265.72 682.93 301.46 743.87 335.15 822.57 365.87Q822.59 365.88 822.59 365.88" opacity="0.58"></path><path d="M778.09 324.93C802.92 352.58 761.3 378.08 686.58 401.71 630.13 425.91 624.51 449.36 662.93 473.03 717.13 498.84 744.93 526.7 729.26 557.58 676.28 591.91 606.61 629.92 544.7 670.81 503.48 712.71 487.59 754.02 488.61 791.12 507.74 831.58 507.25 834.92 480.21 798.77 457.1 770.29 430.63 743.02 402.98 723.02 375.33 717.71 347.81 724.87 318.78 741.7 287.23 767.08 249.82 792.09 204 811.46 153.67 824.77 96.88 825.97 40.76 815.01 -2.86 794.66 -26.66 764.84 -21.68 728.97 3.98 689.33 40.87 648.25 65.06 608.08 51.94 568.73 -0.65 531.8 -75.11 497.62 -133.8 464.95 -143.92 434.22 -98.14 405 -34.08 376.32 1.92 348.18 -22.9 320.53 -93.28 292.88 -149.88 267.03 -150.25 243.56 -95.4 220.64 -20.14 201.08 30.67 185.83 15.51 167.79 -67.48 158.48 -19.89 162.57 42.68 162.21 106.96 159.25 159.94 150.81 198.5 132.98 221.48 107 235.36 73.42 241.2 33.79 248 -6.95 260.2 -43 271.73 -70.5 290.98 -83.27 318.63 -77.96 346.28 -57.97 381.02 -25.1 421.63 14.05 461.58 52.12 505.07 85.36 547.15 110.26 588.79 120.27 551.53 100.61 618.71 109.73 690.72 121.46 751.09 139.13 768.72 161.24 738.17 185.49 678.65 212.34 634.47 240.28 645.51 268.79 707.71 297.28 778.09 324.93Q778.09 324.93 778.09 324.93" opacity="0.64"></path><path d="M733.59 319.9C758.99 344.48 730.42 369.4 667.36 394.67 605.1 420.38 574.08 447.24 583.15 475.59 623.55 505.24 666.85 537.18 689.85 571.33 684.07 606.62 647.59 643.41 593.61 680.16 533.48 715.06 481.06 746.66 442.23 772.13 410.37 795.19 390.35 778.27 377.38 743.37 367.26 718.69 350.15 695.67 325.57 678.52 301 673.02 270.11 677.19 233.89 689.28 198.03 709.34 158.27 730.7 118.24 749.5 70.4 769.97 53.66 756.96 90.15 725.07 111.92 696.76 119.27 664.62 99.45 630.87 50.86 595.82 -14.47 561.16 -72.89 528.03 -99.97 495.11 -82.94 464.03 -30.16 435.15 23.4 406.47 46.99 379.68 21.59 355.11 -40.33 330.53 -95.98 309.33 -111.64 291.65 -80.26 274.18 -16.97 260.55 46.11 250.88 44.77 232.79 24.5 206.72 92.36 182.79 146.09 158.09 195.64 127.84 237.53 93.46 274.4 56.65 304.48 21.3 330.46 -8.23 354.4 -29.82 377.96 -38.97 402.54 -33.47 427.11 -16.33 451.54 11.66 473.96 45.83 494.32 80.72 508.96 113.69 514.67 141.62 510.84 168.18 478.1 180.62 490.91 176.7 528.05 172.17 584.61 170.66 648.68 173.25 699.84 176.97 721.07 185.5 702.16 198.45 657.09 212.68 607.78 230.53 585.88 251.17 611.03 272.25 671.66 295.32 733.59 319.9Q733.59 319.9 733.59 319.9" opacity="0.98"></path><path d="M688.87 353.09C714.15 374.59 697.39 397.98 648.56 422.97 589.45 448.13 543.23 475.17 524.37 503.79 536.38 532.69 567.59 563.09 601.66 594.21 628.78 624.7 635.38 654.65 620.65 682.46 588.5 707.16 544.93 727.35 498.43 741.18 451.34 749.3 410.1 749.6 375.93 741.68 346.23 729.01 321.67 710.39 299.92 687.97 279.75 667.3 259.44 648.35 237.94 633.91 216.44 628.41 194.75 630.1 174.36 637.97 155.29 701.15 150.62 676.91 85.06 642.95 28.6 617.11 -21.88 589.9 -49.66 562.62 -46.57 534.7 -12.58 507.56 38.22 482.02 78.75 456.39 91.15 432.55 65.87 411.05 -13.71 380.46 -34.93 335.45 44.29 320.12 114.68 306.03 112.82 280 75.54 262.61 56.31 246.23 52.19 226.36 62.83 202.65 84.89 174.74 115.95 143.9 150.46 111.78 188.29 79.76 224.2 50.68 255.91 27.63 287.64 11.46 314.58 5.41 336.09 10.91 357.59 25.34 372.64 48.65 381.46 77.62 390.31 108.34 393.52 139.2 392.96 167.63 395.72 191.32 400.08 210.31 411.15 224.58 433.66 233.14 468.66 238.45 516.07 241.93 568.72 242.31 619.84 243.23 656.82 245.89 670.44 247.91 656.19 252.92 618.34 261.29 576.25 269.94 545.73 282.02 544.57 297.42 578.86 312.98 635.35 331.58 688.87 353.09Q688.87 353.09 688.87 353.09" opacity="0.99"></path><path d="M644.59 408.89C668.51 427.32 661.23 447.76 627.12 469.76 578.15 491.71 528.87 515.09 492.44 539.3 476.37 563.11 480.55 587.18 498.71 610.59 526.27 632.57 551.22 652.7 566.99 669.75 573.45 683.83 566.45 693.46 548.74 697.68 522.97 698.03 492.24 692.69 460.56 681.8 427.04 668.63 395.93 651.89 368.71 633.13 341.57 616.52 318.52 601.4 300.09 589.52 263.76 594.05 252.62 642.2 250.17 656.14 239.47 662.51 220 664.17 189.39 661.16 149.47 655.5 102.66 645.59 55.91 632.28 18.55 617.04 -2.15 599.45 0.4 580.48 23.33 560.64 62.11 540.29 103.97 520.21 130.97 499.91 134.51 480.3 110.59 461.87 65.6 443.44 18.95 427.05 -12.59 412.58 -20.97 397.91 -1.54 384.72 38.31 372.62 88.04 359.64 135.46 346.88 171.3 333.71 191.15 318.62 195.18 302.06 188.17 283.56 172.05 262.42 155.66 238.91 143.81 213.34 134.69 186.01 133.78 157.87 140.28 130.4 150.6 104.44 165.81 82 183.58 65.08 202.5 53.71 221.76 50.22 240.2 55.52 258.63 67.39 275.36 86.25 291.2 109.97 308.2 135.84 326.52 163.07 348.14 189.76 373.58 214.15 404.84 236.03 442.37 254.87 482.63 269.85 525.48 282.07 565.77 292.15 593.94 311.29 499.54 344.24 510.54 362.13 549.2 374.89 599.58 390.44 644.57 408.88Q644.59 408.89 644.59 408.89" opacity="0.87"></path><path d="M600.09 460.32C623.49 491.04 566.68 525.64 484.33 560.24 463.02 624.72 445.8 581.8 398.53 545.02 367.8 540.1 342.39 547.08 313.74 560.71 273.9 582.13 215.05 597.19 140.37 601.38 75.36 601.12 44.45 588.56 74.3 566.93 134.13 542.74 178.49 513.69 155.09 482.97 76.39 452.25 25.42 422.77 44.18 393.72 115.12 362.11 193.73 326.72 243.38 286.73 258.02 242.27 253.05 194.62 251.19 150.69 246.86 114.54 259.52 95.1 290.24 100.02 320.96 122.99 366.82 163.04 424.4 209.08 479.49 252.64 532.41 291.17 558.05 322.48 548.67 345.71 502.66 366.03 454.22 387.02 457.96 405.65 521.37 429.59 600.07 460.31Q600.09 460.32 600.09 460.32" opacity="0.27"></path><path d="M555.59 482.89C580.99 507.46 551.09 530.95 489.41 551.06 425.12 569.51 382.36 581.73 365.44 585.05 376.65 579.38 383.4 527.58 353.62 500.52 329.04 495.02 292.62 496.4 246.63 502.31 141.54 527.14 215.02 498.48 199.59 464.37 137.66 439.79 85.57 412.04 73.02 381.96 100.54 350.84 157.5 316.01 217.62 279.12 271.13 241.9 308.39 205.2 333.7 174.29 351.58 150.36 370 139.02 394.58 144.52 419.16 161.66 447.56 191.46 472.27 227.35 489.55 264.23 490.65 300.58 469.35 333.32 441.44 362.22 410.55 388.35 401.04 412.49 431.61 434.97 493.66 458.31 555.59 482.89Q555.59 482.89 555.59 482.89" opacity="0.37"></path><path d="M511.09 465.79C535.01 484.22 526.34 498.67 492.74 508.46 445.37 517.6 396.51 521.11 356.5 518.49 325.74 514.99 305.14 505.86 289.95 492.3 278.91 480.69 265.77 467.9 247.34 456.02 194.88 456.82 267.41 439.74 244.09 414.96 199.1 396.52 155.41 374.1 128.74 349.25 120.96 324.39 137.27 297.33 168.3 270.29 208.5 244.54 249.29 220.87 283.85 202.54 317.61 188.96 344.34 183.72 362.77 189.02 381.2 200.9 389.6 221.16 387.78 246.28 385.16 273.35 373.14 302.03 357.11 329.69 350.23 356.46 353.47 381.72 374.75 404.52 414.93 426.67 466.08 447.35 511.07 465.78Q511.09 465.79 511.09 465.79" opacity="0.59"></path><path d="M466.59 417.21C491.99 441.78 459.37 451.03 405.62 446.04 345.49 442.14 298.25 428.67 273.68 411.52 250.46 403.93 307.64 388.69 288.59 358.39 226.65 333.81 181.76 300.77 176.44 270.09 193.8 243.76 228.3 228.02 252.88 233.52 277.45 250.67 287.45 284.07 302.3 320.17 339.84 357.37 404.65 392.63 466.59 417.21Q466.59 417.21 466.59 417.21" opacity="0.40"></path></g></svg>