<svg xmlns="http://www.w3.org/2000/svg" version="1.1" xmlns:xlink="http://www.w3.org/1999/xlink" xmlns:svgjs="http://svgjs.dev/svgjs" width="1920" height="5560" preserveAspectRatio="none" viewBox="0 0 1920 5560"><g mask="url(&quot;#SvgjsMask6114&quot;)" fill="none"><rect width="72" height="72" clip-path="url(&quot;#SvgjsClipPath6115&quot;)" x="1880.31" y="3173.14" fill="url(&quot;#SvgjsPattern6116&quot;)" transform="rotate(271.62, 1916.31, 3209.14)"></rect><path d="M1322.41 2771.75 L1555.13 2759.26L1592.2503565504744 2918.9853565504745z" fill="rgba(255, 215, 0, 1)"></path><circle r="225.3641336654455" cx="1388.09" cy="5440.94" stroke="rgba(255, 215, 0, 1)" stroke-width="2.26" stroke-dasharray="4, 4"></circle><rect width="711.28" height="711.28" clip-path="url(&quot;#SvgjsClipPath6117&quot;)" x="1089.41" y="4305.78" fill="url(&quot;#SvgjsPattern6118&quot;)" transform="rotate(346.04, 1445.05, 4661.42)"></rect><path d="M41.38 5002.39L51.18 5010.63 45.28 5022 55.08 5030.25 49.18 5041.62 58.98 5049.87 53.09 5061.23M33.53 5003.95L43.33 5012.2 37.44 5023.56 47.23 5031.81 41.34 5043.18 51.14 5051.43 45.24 5062.8" stroke="rgba(255, 215, 0, 1)" stroke-width="1" stroke-dasharray="4, 4"></path><rect width="1008" height="1008" clip-path="url(&quot;#SvgjsClipPath6119&quot;)" x="-158.16" y="349.55" fill="url(&quot;#SvgjsPattern6120&quot;)" transform="rotate(339.94, 345.84, 853.55)"></rect><path d="M0 0 " stroke="rgba(255, 215, 0, 1)" stroke-width="2.7" stroke-dasharray="3, 2"></path><rect width="732" height="732" clip-path="url(&quot;#SvgjsClipPath6121&quot;)" x="553.9" y="4184.72" fill="url(&quot;#SvgjsPattern6122&quot;)" transform="rotate(165.03, 919.9, 4550.72)"></rect><path d="M920.85 2883.46a5.6 5.6 0 1 0-11.19-0.44 5.6 5.6 0 1 0 11.19 0.44zM904.87 2882.83a5.6 5.6 0 1 0-11.19-0.45 5.6 5.6 0 1 0 11.19 0.45zM888.88 2882.19a5.6 5.6 0 1 0-11.19-0.45 5.6 5.6 0 1 0 11.19 0.45zM872.89 2881.55a5.6 5.6 0 1 0-11.19-0.44 5.6 5.6 0 1 0 11.19 0.44zM953.47 2868.75a5.6 5.6 0 1 0-11.2-0.45 5.6 5.6 0 1 0 11.2 0.45zM937.48 2868.11a5.6 5.6 0 1 0-11.19-0.44 5.6 5.6 0 1 0 11.19 0.44zM921.49 2867.47a5.6 5.6 0 1 0-11.19-0.44 5.6 5.6 0 1 0 11.19 0.44zM905.5 2866.84a5.6 5.6 0 1 0-11.19-0.45 5.6 5.6 0 1 0 11.19 0.45zM986.08 2854.03a5.6 5.6 0 1 0-11.19-0.44 5.6 5.6 0 1 0 11.19 0.44zM970.09 2853.4a5.6 5.6 0 1 0-11.19-0.45 5.6 5.6 0 1 0 11.19 0.45zM954.1 2852.76a5.6 5.6 0 1 0-11.19-0.45 5.6 5.6 0 1 0 11.19 0.45zM938.11 2852.12a5.6 5.6 0 1 0-11.19-0.44 5.6 5.6 0 1 0 11.19 0.44z" fill="rgba(255, 215, 0, 1)"></path><path d="M904.35 1089.1200000000001 L581.99 924.35L919.0746291385541 830.8303708614461z" fill="rgba(255, 215, 0, 1)"></path><rect width="1248" height="1248" clip-path="url(&quot;#SvgjsClipPath6123&quot;)" x="249.21" y="231.18" fill="url(&quot;#SvgjsPattern6124&quot;)" transform="rotate(42.26, 873.21, 855.18)"></rect><path d="M377.49 290.27a5.6 5.6 0 1 0 11.11 1.43 5.6 5.6 0 1 0-11.11-1.43zM393.36 292.32a5.6 5.6 0 1 0 11.11 1.43 5.6 5.6 0 1 0-11.11-1.43zM409.23 294.37a5.6 5.6 0 1 0 11.11 1.43 5.6 5.6 0 1 0-11.11-1.43zM425.1 296.42a5.6 5.6 0 1 0 11.11 1.43 5.6 5.6 0 1 0-11.11-1.43zM343.71 302.04a5.6 5.6 0 1 0 11.11 1.43 5.6 5.6 0 1 0-11.11-1.43zM359.58 304.09a5.6 5.6 0 1 0 11.1 1.43 5.6 5.6 0 1 0-11.1-1.43zM375.44 306.14a5.6 5.6 0 1 0 11.11 1.43 5.6 5.6 0 1 0-11.11-1.43zM391.31 308.18a5.6 5.6 0 1 0 11.11 1.44 5.6 5.6 0 1 0-11.11-1.44z" fill="rgba(255, 215, 0, 1)"></path><path d="M457.9 1128.51L470.12 1132.34 469.07 1145.11 481.28 1148.94 480.23 1161.7 492.45 1165.54 491.39 1178.3" stroke="rgba(255, 215, 0, 1)" stroke-width="1" stroke-dasharray="3, 3"></path><path d="M834.99 2354.78L826.74 2364.57 815.37 2358.66 807.12 2368.45 795.75 2362.54 787.5 2372.33 776.13 2366.42" stroke="rgba(255, 215, 0, 1)" stroke-width="1" stroke-dasharray="3, 3"></path></g><defs><mask id="SvgjsMask6114"><rect width="1920" height="5560" fill="#ffffff"></rect></mask><pattern x="0" y="0" width="6" height="6" patternUnits="userSpaceOnUse" id="SvgjsPattern6116"><path d="M0 6L3 0L6 6" stroke="rgba(255, 215, 0, 1)" fill="none"></path></pattern><clipPath id="SvgjsClipPath6115"><circle r="18" cx="1916.31" cy="3209.14"></circle></clipPath><pattern x="0" y="0" width="711.28" height="10.46" patternUnits="userSpaceOnUse" id="SvgjsPattern6118"><rect width="711.28" height="5.23" x="0" y="0" fill="rgba(255, 215, 0, 1)"></rect><rect width="711.28" height="5.23" x="0" y="5.23" fill="rgba(0, 0, 0, 0)"></rect></pattern><clipPath id="SvgjsClipPath6117"><circle r="177.82" cx="1445.05" cy="4661.42"></circle></clipPath><pattern x="0" y="0" width="6" height="6" patternUnits="userSpaceOnUse" id="SvgjsPattern6120"><path d="M0 6L3 0L6 6" stroke="rgba(255, 215, 0, 1)" fill="none"></path></pattern><clipPath id="SvgjsClipPath6119"><circle r="252" cx="345.84" cy="853.55"></circle></clipPath><pattern x="0" y="0" width="6" height="6" patternUnits="userSpaceOnUse" id="SvgjsPattern6122"><path d="M0 6L3 0L6 6" stroke="rgba(255, 215, 0, 1)" fill="none"></path></pattern><clipPath id="SvgjsClipPath6121"><circle r="183" cx="919.9" cy="4550.72"></circle></clipPath><pattern x="0" y="0" width="6" height="6" patternUnits="userSpaceOnUse" id="SvgjsPattern6124"><path d="M0 6L3 0L6 6" stroke="rgba(255, 215, 0, 1)" fill="none"></path></pattern><clipPath id="SvgjsClipPath6123"><circle r="312" cx="873.21" cy="855.18"></circle></clipPath></defs></svg>