<svg xmlns="http://www.w3.org/2000/svg" version="1.1" xmlns:xlink="http://www.w3.org/1999/xlink" xmlns:svgjs="http://svgjs.dev/svgjs" viewBox="0 0 800 800" opacity="0.16"><defs><linearGradient x1="50%" y1="0%" x2="50%" y2="100%" id="uundulate-grad"><stop stop-color="#ffd700" stop-opacity="1" offset="45%"></stop><stop stop-color="#444444" stop-opacity="1" offset="100%"></stop></linearGradient></defs><g stroke-width="1" stroke="url(#uundulate-grad)" fill="none"><path d="M719.4676177987677 144.19938635133053C746.5915904607575 219.41710981976848 610.7793508312975 464.2452041559476 542.0124092403994 564.1722524597808C473.2454676495015 664.0993007636141 484.5327040846505 595.7449522221826 389.38629816245816 623.8492182097306C294.23989224026593 651.9534841972785 127.98130772421837 745.2975808575917 85.30966081387618 699.0727292000117C42.63801390353399 652.8478775424318 177.8637920060964 527.6105056581325 184.56239299281503 401.96993025334746C191.26099397953368 276.3293548485624 70.11816482720144 137.42354026580773 117.46294555012526 95.99796725704329C164.80772627304907 54.5723942482789 286.399700411048 193.08521749996913 411.81734046284873 203.127179811279C537.2349805146494 213.16914212258882 692.343645136778 68.98166288289252 719.4676177987677 144.19938635133053C746.5915904607575 219.41710981976848 610.7793508312975 464.2452041559476 542.0124092403994 564.1722524597808 "></path><path d="M710.0715401153482 151.72294368491958C736.3977488755146 224.72838116899175 604.5799868822152 462.35564920116565 537.8356023969318 559.3436666725331C471.0912179116485 656.3316841439007 482.0464768045872 589.9877576183937 389.6984945859888 617.2654275474844C297.3505123673905 644.543097476575 135.9818862194619 735.1417795292319 94.56528774765923 690.276482332169C53.1486892758565 645.4111851351062 184.3972386106965 523.8572653650509 190.89882192133518 401.9120010015831C197.40040523197388 279.9667366381152 79.8206004664749 145.1463871901475 125.77288763872451 104.93921338752318C171.72517481097407 64.73203958489893 289.7409144155025 199.17095627036292 411.4698003481326 208.9175667489872C533.1986862807626 218.6641772276115 683.7453313551816 78.71750620084742 710.0715401153482 151.72294368491958C736.3977488755146 224.72838116899175 604.5799868822152 462.35564920116565 537.8356023969318 559.3436666725331 "></path><path d="M700.6754013967723 159.24643998335245C726.2038462551155 230.03959148305876 598.3805618979766 460.46603321122734 533.6587345183079 554.5150198501292C468.9369071386392 648.5640064890312 479.56018848936765 584.2305019794485 390.01062997436316 610.6815758500819C300.46107145935866 637.1326497207152 143.98240367954924 724.9859171657159 103.82085364628603 681.48017442917C63.659303613022814 637.9744316926242 190.93062418014034 520.1039640368131 197.23518981469908 401.85401071466254C203.53975544925783 283.6040573925118 89.52297507059211 152.869173079331 134.08276869216752 113.88039848284683C178.64256231374287 74.89162388636265 293.08206738480067 205.25663400560052 411.1221991982602 214.70789265153923C529.1623310117197 224.15915129747788 675.146956538429 88.45328848364613 700.6754013967723 159.24643998335245C726.2038462551155 230.03959148305876 598.3805618979766 460.46603321122734 533.6587345183079 554.5150198501292 "></path><path d="M691.2792931957745 166.7699973169415C716.0099741522946 235.35086283228202 592.1811674313162 458.5764782564454 529.4818971572622 549.6864340628815C466.7826268832081 640.7963898693177 477.07393069172645 578.4733073756596 390.32279588031577 604.0977851878356C303.5716610689051 629.7222630000117 151.9829516572147 714.8301158373562 113.07645006249095 672.6839275613273C74.1699484677672 630.5377392852986 197.46404026716232 516.3507237437316 203.5715882256411 401.7960814628982C209.6791361841199 287.2414391820647 99.2253801922875 160.5920200036707 142.39268026318865 122.82164461332673C185.55998033408974 85.05126922298268 296.42325087167706 211.34237277599436 410.77462856596594 220.49827958924743C525.1260062602548 229.65418640250056 666.5486122392545 98.18913180160104 691.2792931957745 166.7699973169415C716.0099741522946 235.35086283228202 592.1811674313162 458.5764782564454 529.4818971572622 549.6864340628815 "></path><path d="M681.8832155123548 174.2935546505306C705.8161325670517 240.66213418150528 585.981803482234 456.68692330166334 525.3050903137946 544.8578482756338C464.6283771453551 633.0287732496043 474.58770341166314 572.7161127718707 390.6349923038464 597.5139945255894C306.68228119602963 622.3118762793083 159.9835301524583 704.6743145089963 122.332076996274 663.8876806934846C84.68062384008971 623.101046877973 203.99748687176242 512.5974834506499 209.90801715416126 401.73815221113375C215.81854743656004 290.87882097161753 108.92781583156096 168.31486692801047 150.7026223517879 131.76289074380662C192.4774288720148 95.21091455960271 299.76446487613157 217.4281115463882 410.4270884512498 226.2886665269557C521.089712026368 235.14922150752324 657.950298457658 107.92497511955594 681.8832155123548 174.2935546505306C705.8161325670517 240.66213418150528 585.981803482234 456.68692330166334 525.3050903137946 544.8578482756338 "></path><path d="M672.4871073113571 181.81708146654154C695.6222604642307 245.97337501315042 579.7824090155736 454.79733782930316 521.1282529527489 540.029231970808C462.474096889924 625.2611261123129 472.1014456140217 566.9588876505036 390.947158209799 590.9301733457651C309.79287080557606 614.9014590410266 167.98407813012375 694.5184826630584 131.58767341247892 655.0914033080638C95.19126869483415 615.664323953069 210.5309029587844 508.84421263999025 216.24441556510328 401.6801924417913C221.9579281714221 294.5161722435922 118.63022095325636 176.0376833347721 159.01253392280904 140.70410635670834C199.39484689236167 105.37052937864462 303.10564836300784 223.51381979920387 410.07951781895554 232.07902294708583C517.0533872749031 240.64422609496773 649.3519541584835 117.66078791993272 672.4871073113571 181.81708146654154C695.6222604642307 245.97337501315042 579.7824090155736 454.79733782930316 521.1282529527489 540.029231970808 "></path><path d="M663.0909991103593 189.34063880013065C685.4283883614097 251.28464636237368 573.5830145489132 452.9077828745212 516.9514155917032 535.2006461835604C460.3198166344929 617.4935094925995 469.6151878163804 561.2016930467147 391.2593241157515 584.3463826835189C312.9034604151225 607.491072320323 175.9846261077892 684.3626813346987 140.84326982868384 646.295156440221C105.70191354957853 608.2276315457434 217.06431904580643 505.09097234690876 222.5808139760453 401.62226319002696C228.09730890628418 298.15355403314516 128.3326260749517 183.76053025911187 167.32244549383017 149.64535248718823C206.3122649127086 115.5301747152646 306.44683184988423 229.59955856959772 409.7319471866613 237.8694098847941C513.0170625234383 246.13926119999041 640.7536098593089 127.39663123788762 663.0909991103593 189.34063880013065C685.4283883614097 251.28464636237368 573.5830145489132 452.9077828745212 516.9514155917032 535.2006461835604 "></path><path d="M653.6948603917834 196.8641808749307C675.2344857410105 256.5959024528079 567.3835895646746 451.0182126609502 512.7745477130791 530.3720451375236C458.16550586148367 609.725877614097 467.12889950116084 555.4444831841367 391.57145950412587 577.7625767624836C316.0140195070908 600.0806703408306 183.98514356787655 674.2068647475498 150.09883572731064 637.4988943135893C116.21252788674485 600.7909238796287 223.59770461525022 501.3377167950381 228.9171818694092 401.56431867947356C234.23665912356813 301.7909205639089 138.03500067906896 191.48336192466257 175.63232654727318 158.58658335887907C213.2296524154774 125.68980479309556 309.7879848191825 235.6852820812025 409.3843460367889 243.6597815637133C508.9807072543954 251.63428104622403 632.1552350425563 137.13245929705346 653.6948603917834 196.8641808749307C675.2344857410105 256.5959024528079 567.3835895646746 451.0182126609502 512.7745477130791 530.3720451375236 "></path><path d="M644.2987674495747 204.3877534673088C665.0406288969785 261.9071890608202 561.1842103568033 449.1286729649571 508.5977256108224 525.543474609065C456.0112408648416 601.9582762531727 464.6426569623086 549.6873038391368 391.88364066886743 571.1788013590265C319.12462437542627 592.6702988789161 191.98570680433102 664.0510786779791 159.3544474023047 628.7026627045357C126.7231880002783 593.3542467310922 230.13113596106132 497.58449176074555 235.2535955391403 401.5064046864982C240.37605511721927 305.4283176122508 147.73742105955336 199.2062241077914 183.94225337708338 167.52784474814803C220.14708569461334 135.84946538850465 313.12918356484784 241.7710361103854 409.0367906632837 249.45018376021056C504.94439776171953 257.1293314100358 623.5569060021708 146.86831787379742 644.2987674495747 204.3877534673088C665.0406288969785 261.9071890608202 561.1842103568033 449.1286729649571 508.5977256108224 525.543474609065 "></path><path d="M634.9026592485769 211.91129554210886C654.8467567941576 267.2184451512544 554.984815890143 447.2391027513861 504.4208882497767 520.7148735630283C453.8569606094105 594.1906443746702 462.15639916466716 543.930093976559 392.1958065748199 564.5949954379912C322.2352139849727 585.2598968994236 199.98625478199648 653.8952620908303 168.6100438185096 619.9064005779039C137.23383285502268 585.9175390649775 236.6645520480833 493.831236208875 241.58999395008232 401.4484601759448C246.51543585208128 309.0656841430146 157.43982618124875 206.9290557733421 192.2521649481045 176.4690756198388C227.0645037149602 146.00909546633557 316.4703670517242 247.85675962199014 408.6892200309894 255.24055543912976C500.9080730102546 262.62435125626934 614.9585617029962 156.60414593296326 634.9026592485769 211.91129554210886C654.8467567941576 267.2184451512544 554.984815890143 447.2391027513861 504.4208882497767 520.7148735630283 "></path><path d="M625.5065510475793 219.4348223581198C644.6528846913366 272.52968598289954 548.7854214234825 445.34951727902603 500.24405088873095 515.8862572582024C451.7026803539794 586.4229972373787 459.67014136702574 538.1728688551918 392.5079724807724 558.0111742581669C325.34580359451905 577.8494796611419 207.98680275966194 643.7394302448924 177.86564023471453 611.1101231924831C147.74447770976712 578.4808161400737 243.19796813510527 490.07796539821527 247.92639236102434 401.3905004066023C252.65481658694335 312.70303541498936 167.14223130294408 214.65187218010368 200.56207651912564 185.41029123274058C233.98192173530714 156.16871028537747 319.81155053860056 253.94246787480586 408.34164939869515 261.03091185925985C496.8717482587897 268.1193558437139 606.3602174038217 166.33995873334004 625.5065510475793 219.4348223581198C644.6528846913366 272.52968598289954 548.7854214234825 445.34951727902603 500.24405088873095 515.8862572582024 "></path><path d="M616.1104428465815 226.9583796917089C634.4590125885156 277.8409573321228 542.5860269568221 443.459962324244 496.0672135276852 511.0576714709547C449.5484000985482 578.6553806176654 457.1838835693844 532.415674251403 392.8201383867249 551.4273835959207C328.4563932040655 570.4390929404385 215.9873507373274 633.5836289165326 187.12123665091946 602.3138763246403C158.2551225645115 571.044123732748 249.73138422212725 486.32472510513367 254.26279077196637 401.332571154838C258.7941973218054 316.3404172045422 176.84463642463948 222.37471910444344 208.87198809014677 194.35153736322047C240.89933975565407 166.3283556219975 323.1527340254769 260.0282066451997 407.9940787664009 266.8212987969681C492.8354235073249 273.61439094873657 597.7618731046473 176.07580205129494 616.1104428465815 226.9583796917089C634.4590125885156 277.8409573321228 542.5860269568221 443.459962324244 496.0672135276852 511.0576714709547 "></path><path d="M606.7143346455837 234.48193702529795C624.2651404856947 283.15222868134606 536.3866324901617 441.5704073694619 491.8903761666395 506.229085683707C447.3941198431171 570.887763997952 454.6976257717431 526.6584796476141 393.1323042926774 544.8435929336745C331.56698281361184 563.0287062197349 223.98789871499287 623.4278275881727 196.37683306712438 593.5176294567975C168.7657674192559 563.6074313254223 256.2648003091492 482.5714848120522 260.59918918290833 401.27464190307364C264.9335780566675 319.97779899409505 186.5470415463348 230.0975660287832 217.1818996611679 203.29278349370037C247.81675777600094 176.48800095861748 326.4939175123533 266.11394541559355 407.6465081341066 272.61168573467637C488.7990987558601 279.1094260537592 589.1635288054727 185.81164536924985 606.7143346455837 234.48193702529795C624.2651404856947 283.15222868134606 536.3866324901617 441.5704073694619 491.8903761666395 506.229085683707 "></path><path d="M597.3182264445859 242.00546384130894C614.0712683828737 288.4634695129912 530.1872380235013 439.68082189710185 487.71353880559377 501.4004693788811C445.2398395876861 563.1201168606606 452.2113679741017 520.9012545262469 393.4444701986299 538.2597717538501C334.67757242315827 555.6182889814532 231.98844669265827 613.2719957422349 205.6324294833293 584.7213520713767C179.27641227400034 556.1707084005186 262.7982163961712 478.81821400139256 266.93558759385036 401.2166821337312C271.0729587915296 323.6151502660698 196.2494466680302 237.82038243554484 225.49181123218904 212.23399910660214C254.73417579634787 186.64761577765938 329.83510099922955 272.19965366840927 407.29893750181236 278.4020421548065C484.76277400439517 284.60443064120375 580.5651845062981 195.54745816962662 597.3182264445859 242.00546384130894C614.0712683828737 288.4634695129912 530.1872380235013 439.68082189710185 487.71353880559377 501.4004693788811 "></path><path d="M587.9221182435881 249.529021174898C603.8773962800526 293.77474086221446 523.9878435568409 437.7912669423199 483.53670144454793 496.57188359163354C443.085559332255 555.3525002409472 449.72511017646025 515.1440599224582 393.7566361045825 531.675981091604C337.7881620327047 548.2079022607497 239.98899467032373 603.1161944138752 214.88802589953423 575.925105203534C189.78705712874472 548.734015993193 269.3316324831932 475.06497370831096 273.2719860047924 401.15875288196685C277.2123395263916 327.2525320556226 205.95185178972554 245.5432293598846 233.80172280321017 221.17524523708198C261.65159381669474 196.8072611142794 333.17628448610594 278.28539243880306 406.9513668695181 284.1924290925148C480.72644925293025 290.09946574622643 571.9668402071236 205.28330148758153 587.9221182435881 249.529021174898C603.8773962800526 293.77474086221446 523.9878435568409 437.7912669423199 483.53670144454793 496.57188359163354 "></path><path d="M578.5260100425903 257.05259376727616C593.6835241772317 299.0860274702268 517.7884490901804 435.9017272463269 479.3598640835022 491.7433130631748C440.9312790768238 547.5848988800228 447.23885237881893 509.3868805774582 394.068802010535 525.0922056881468C340.8987516422511 540.7975307988354 247.9895426479892 592.9604083443045 224.14362231573915 567.1288735944804C200.2977019834891 541.2973388446562 275.86504857021515 471.3117486740184 279.6083844157344 401.10083888899146C283.35172026125366 330.88992910396456 215.65425691142093 253.26609154301343 242.1116343742313 230.11650662635094C268.56901183704167 206.9669217096885 336.5174679729823 284.37114646798597 406.60379623722383 289.98283128901204C476.69012450146533 295.59451611003817 563.368495907949 215.01916006432555 578.5260100425903 257.05259376727616C593.6835241772317 299.0860274702268 517.7884490901804 435.9017272463269 479.3598640835022 491.7433130631748 "></path><path d="M569.1299018415925 264.57613584207616C583.4896520744107 304.397283560661 511.58905462352004 434.0121570327558 475.18302672245636 486.9147120171381C438.7769988213928 539.8172670015205 444.7525945811776 503.62967071488026 394.3809679164875 518.5083997671115C344.00934125179754 533.3871288193427 255.99009062565466 582.8045917571555 233.39921873194407 558.3326114678487C210.80834683823355 533.8606311785416 282.3984646572371 467.55849312214787 285.94478282667643 401.04289437843806C289.49110099611573 334.5272956347283 225.35666203311627 260.98892320856413 250.42154594525243 239.05773749804177C275.48642985738854 217.12655178751942 339.8586514598586 290.45686997959075 406.25622560492957 295.77320296793124C472.65379975000053 301.08953595627173 554.7701516087745 224.7549881234914 569.1299018415925 264.57613584207616C583.4896520744107 304.397283560661 511.58905462352004 434.0121570327558 475.18302672245636 486.9147120171381 "></path><path d="M559.7338394169619 272.0996779168762C573.2958257479569 309.7085396510952 505.3897059332269 432.1225868191848 471.0062351377778 482.08611097110133C436.6227643423289 532.049635123018 442.2663825599034 497.8724608523023 394.6931795988072 511.9245938460763C347.1199766377111 525.9767268398502 263.9906843796873 572.6487751700067 242.65486092451619 549.5363493412168C221.31903746934512 526.4239235124269 288.93192652062635 463.8052375702772 292.28122701398564 400.98494986788467C295.630527507345 338.16466216549213 235.05911293117884 268.7117548741148 258.73150329264075 247.9989683697326C282.40389365410266 227.2861818653504 343.1998807231021 296.5425934911955 405.9087007490025 301.56357464685044C468.6175207749028 306.58455580250535 546.1718530859671 234.49081618265723 559.7338394169619 272.0996779168762C573.2958257479569 309.7085396510952 505.3897059332269 432.1225868191848 471.0062351377778 482.08611097110133 "></path><path d="M550.3377159571752 279.62323525046526C563.1019383863468 315.01981100031844 499.19029620777735 430.23303186440273 466.82938251794303 477.25752518385366C434.4684688281086 524.2820185033047 439.7801095034729 492.1152662485133 395.00533024597064 505.3408031838301C350.2305509884684 518.5663401191466 271.9912170985637 562.492973841647 251.91044208193205 540.740102473374C231.82966706530044 518.9872311051012 295.4653273488592 460.0519972771956 298.6176101661386 400.92702061612033C301.76989298341795 341.80204395504495 244.76150279408512 276.43460179845454 267.0413996048728 256.94021450021245C289.32129641566047 237.44582720197042 346.5410489511894 302.6283322615893 405.56111485791916 307.35396158455865C464.58118076464893 312.07959090752803 537.5734935280036 244.22665950061213 550.3377159571752 279.62323525046526C563.1019383863468 315.01981100031844 499.19029620777735 430.23303186440273 466.82938251794303 477.25752518385366 "></path><path d="M540.9415772385993 287.14676206647624C552.9080357659477 320.3310518319636 492.9908712235389 428.34344639204255 462.6525146393192 472.42890887902786C432.31415805509937 516.5143713660132 437.29382118825345 486.3580411271463 395.31746563434507 498.75698200400564C353.3411100804367 511.1559228808651 279.99173455865105 552.3371419957091 261.1660079805589 531.9438250879532C242.34028140246676 511.5505081801974 301.9987129183031 456.29872646653587 304.9539780595025 400.8690608467778C307.9092432007019 345.4393952270197 254.46387739820238 284.1574182052162 275.35128065831583 265.8814301131142C296.2386839184293 247.60544202101227 349.88220192048766 308.71404051440504 405.2135137080468 313.1443180046888C460.5448254956059 317.5745954949725 528.9751187112508 253.9624723009889 540.9415772385993 287.14676206647624C552.9080357659477 320.3310518319636 492.9908712235389 428.34344639204255 462.6525146393192 472.42890887902786 "></path><path d="M531.5454690376016 294.6703194000653C542.7141636631268 325.64232318118684 486.7914767568784 426.4538914372606 458.47567727827345 467.6003230917802C430.15987779966827 508.74675474629976 434.80756339061213 480.6008465233574 395.6296315402976 492.17319134175943C356.4516996899831 503.74553616016146 287.99228253631645 542.1813406673493 270.4216043967638 523.1475782201105C252.85092625721114 504.1138157728717 308.5321290053251 452.5454861734544 311.2903764704445 400.8111315950135C314.04862393556397 349.0767770165726 264.1662825198977 291.88026512955594 283.66119222933696 274.8226762435941C303.15610193877615 257.7650873576323 353.223385407364 314.7997792847989 404.8659430757525 318.93470494239705C456.508500744141 323.0696305999952 520.3767744120763 263.6983156189438 531.5454690376016 294.6703194000653C542.7141636631268 325.64232318118684 486.7914767568784 426.4538914372606 458.47567727827345 467.6003230917802 "></path><path d="M522.149406612971 302.1938767336544C532.5203373366728 330.9535945304101 480.59212806658525 424.56433648247855 454.2988856935948 462.7717373045325C428.0056433206044 500.97913812658635 432.3213513693379 474.8436519195684 395.9418432226173 485.58940067951323C359.5623350758967 496.33514943945806 295.9928762903491 532.0255393389896 279.67724658933594 514.3513313522678C263.3616168883227 496.6771233655461 315.06559086871425 448.7922458803728 317.62682065775374 400.7532023432491C320.1880504467932 352.7141588061254 273.8687334179603 299.6031120538957 291.9711495767253 283.763922374074C310.07356573549026 267.9247326942523 356.5646146706075 320.8855180551927 404.51841821982543 324.7250918801053C452.47222176904336 328.5646657050179 511.778475889269 273.4341589368987 522.149406612971 302.1938767336544C532.5203373366728 330.9535945304101 480.59212806658525 424.56433648247855 454.2988856935948 462.7717373045325 "></path><path d="M512.7532984119732 309.7174035496654C522.3264652338519 336.26483536205524 474.3927335999249 422.6747510101185 450.12204833254907 457.9431209997067C425.8513630651733 493.2114909892948 429.83509357169646 469.0864267982014 396.2540091285698 479.0055794996889C362.67292468544315 488.9247322011764 303.99342426801456 521.8697074930517 288.93284300554086 505.555053966847C273.87226174306716 489.24040044064236 321.59900695573623 445.0389750697131 323.96321906869576 400.6952425739066C326.32743118165524 356.35151007810015 283.57113853965564 307.32592846065734 300.2810611477464 292.7051379869758C316.9909837558372 278.08434751329423 359.9057981574839 326.9712263080084 404.17084758753117 330.5154483002354C448.43589701757844 334.05967029246244 503.18013159009445 283.1699717372755 512.7532984119732 309.7174035496654C522.3264652338519 336.26483536205524 474.3927335999249 422.6747510101185 450.12204833254907 457.9431209997067 "></path><path d="M503.35717495218637 317.2409456244654C512.1325778722419 341.57609145248944 468.19332387447537 420.78518079654737 445.9451957127143 453.1145199536699C423.6970675509531 485.44385911079235 427.3488205152661 463.32921693562344 396.56615977573324 472.42177357865364C365.78349903620045 481.51433022168385 311.99395698689096 511.71389090590276 298.1884241629567 496.75879184021517C284.3828913390225 481.8036927745276 328.13240778396914 441.2857195178425 330.2996022208487 400.6372980633532C332.46679665772825 359.9888766088639 293.27352840256196 315.04876012620804 308.5909574599785 301.64636885866656C323.908386517395 288.24397759112514 363.24696638557117 333.0569498196132 403.82326169644784 336.3058199791546C444.3995570073246 339.554690138696 494.58177203213086 292.90579979644133 503.35717495218637 317.2409456244654C512.1325778722419 341.57609145248944 468.19332387447537 420.78518079654737 445.9451957127143 453.1145199536699 "></path><path d="M493.96108200997764 324.76451821684356C501.9387210282099 346.88737806050176 461.993944666604 418.8956411005545 441.76837361045756 448.2859494252113C421.5428025543111 477.6762577498681 424.8625779764137 457.5720375906236 396.87834094047486 465.8379981751965C368.89410390453594 474.1039587597694 319.9945202233455 501.5581048363322 307.4440358379507 487.96256023116155C294.8935514525559 474.36701562599103 334.6658391297802 437.53249448355 336.6360158905798 400.57938407037796C338.6061926513794 363.62627365720584 302.97594878304636 322.7716223093368 316.9008842897887 310.5876302479355C330.825819796531 298.40363818653424 366.58816513123656 339.1427038487961 403.47570632294264 342.0962221756519C440.3632475146487 345.04974050250775 485.9834429917454 302.6416583731853 493.96108200997764 324.76451821684356C501.9387210282099 346.88737806050176 461.993944666604 418.8956411005545 441.76837361045756 448.2859494252113 "></path><path d="M484.56492803261267 332.28806029164355C491.7448031490218 352.19863415093596 455.7945044235764 417.00607088698337 437.5914904730446 443.4573483791745C419.3884765225128 469.9086258713657 422.3762744024052 451.8148277280456 397.19046107006017 459.25419225416124C372.0046477377152 466.6935567802768 327.9950224246437 491.40228824918324 316.69958647778844 479.1662981045298C305.4041505309332 466.93030795987625 341.19920944043497 433.7792389316794 342.97236852515465 400.5214395598245C344.7455276098743 367.26364018796966 312.67830812837457 330.4944539748875 325.2107500844426 319.52886111962636C337.7431920405107 308.5632682643652 369.9293028417457 345.2284273604008 403.1280899142812 347.88659385457106C436.32687698681667 350.54476034874136 477.3850529162037 312.37748643235113 484.56492803261267 332.28806029164355C491.7448031490218 352.19863415093596 455.7945044235764 417.00607088698337 437.5914904730446 443.4573483791745 "></path><path d="M475.16885034919306 339.81161762523266C481.55096156377886 357.5099055001592 449.59514047449414 415.11651593220137 433.414683629577 438.62876259192683C417.23422678465977 462.14100925165235 419.8900471223419 446.05763312425665 397.5026574935908 452.67040159191504C375.11526786483967 459.2831700595733 335.9956009198873 481.2464869208235 325.9552134115715 470.370051236687C315.9148259032557 459.4936155525506 347.73265604503507 430.0259986385978 349.30879745367474 400.46351030806017C350.88493886231447 370.9010219775225 322.380743767648 338.21730089922727 333.5206921730419 328.47010725010625C344.66064057843573 318.7229136009852 373.27051684620017 351.31416613079466 402.78054979956505 353.6769807922793C432.29058275292994 356.039795453764 468.7867391346073 322.11332975030604 475.16885034919306 339.81161762523266C481.55096156377886 357.5099055001592 449.59514047449414 415.11651593220137 433.414683629577 438.62876259192683 "></path><path d="M465.77274214819533 347.33515970003265C471.3570894609579 362.8211615905934 443.39574600783374 413.2269457186303 429.23784626853126 433.8001615458901C415.07994652922866 454.3733773731499 417.4037893247006 440.3004232616787 397.81482339954334 446.0865956708797C378.2258574743861 451.87276808008073 343.99614889755276 471.09067033367467 335.2108098277764 461.57378911005526C326.42547075800013 452.05690788643585 354.26607213205705 426.2727430867272 355.64519586461677 400.4055657975067C357.0243195971765 374.5383885082863 332.0831488893434 345.94013256477797 341.830603744063 337.4113381217971C351.5780585987826 328.88254367881615 376.61170033307656 357.39988964239944 402.4329791672708 359.4673524711985C428.254258001465 361.5348152999976 460.1883948354327 331.8491578094719 465.77274214819533 347.33515970003265C471.3570894609579 362.8211615905934 443.39574600783374 413.2269457186303 429.23784626853126 433.8001615458901 "></path><path d="M456.3766492059866 354.8587017748327C461.16323261692594 368.1324176810276 437.19636679996245 411.33737550505924 425.06102416627454 428.97156049985335C412.9256815325866 446.6057454946474 414.91754678584823 434.5432133991007 398.1270045642849 439.50278974984445C381.3364623427216 444.4623661005882 351.9967121340073 460.93485374652585 344.4664215027704 452.7775269834235C336.9361308715336 444.6202002203212 360.79950347786814 422.5194875348566 361.98160953434785 400.3476212869533C363.1637155908276 378.17575503905005 341.7855692698278 353.66296423032867 350.1405305738732 346.35256899348786C358.4954918779186 339.0421737566471 379.95289907874195 363.4856131540042 402.0854237937656 365.2577241501177C424.2179485087892 367.0298351462312 451.5900657950472 341.5849858686378 456.3766492059866 354.8587017748327C461.16323261692594 368.1324176810276 437.19636679996245 411.33737550505924 425.06102416627454 428.97156049985335 "></path><path d="M446.9805410049888 362.38225910842175C450.96936051410495 373.4436890302509 430.996972333302 409.44782055027724 420.88418680522875 424.1429747126057C410.7714012771555 438.83812887493406 412.43128898820686 428.7860187953118 398.4391704702374 432.91899908759825C384.447051952268 437.0519793798847 359.99726011167274 450.7790524181661 353.7220179189754 443.9812801155808C347.44677572627796 437.1835078129955 367.3329195648901 418.766247241775 368.3180079452899 400.289692035189C369.3030963256897 381.8131368286029 351.4879743915232 361.38581115466843 358.45044214489434 355.29381512396776C365.41290989826547 349.2018190932671 383.2940825656183 369.571351924398 401.7378531614713 371.04811108782593C420.18162375732436 372.5248702512539 442.9917214958727 351.3208291865927 446.9805410049888 362.38225910842175C450.96936051410495 373.4436890302509 430.996972333302 409.44782055027724 420.88418680522875 424.1429747126057 "></path><path d="M437.58443280399104 369.90581644201086C440.77548841128396 378.75496037947414 424.79757786664163 407.55826559549524 416.707349444183 419.31438892535795C408.6171210217244 431.0705122552207 409.9450311905655 423.02882419152286 398.75133637618995 426.33520842535205C387.55764156181436 429.6415926591812 367.9978080893382 440.6232510898063 362.9776143351803 435.18503324773803C357.9574205810224 429.74681540566985 373.8663356519121 415.01300694869343 374.6544063562319 400.2317627834246C375.44247706055177 385.4505186181558 361.19037951321855 369.1086580790082 366.76035371591547 364.23506125444766C372.3303279186124 359.3614644298871 386.6352660524946 375.65709069479186 401.39028252917706 376.8384980255342C416.1452990058595 378.0199053562765 434.39337719669817 361.0566725045476 437.58443280399104 369.90581644201086C440.77548841128396 378.75496037947414 424.79757786664163 407.55826559549524 416.707349444183 419.31438892535795 "></path><path d="M428.1883246029933 377.4293432580218C430.58161630846297 384.0662012111193 418.5981833999812 405.66868012313506 412.5305120831373 414.48577262053215C406.4628407662933 423.3028651179292 407.4587733929241 417.27159907015584 399.06350228214245 419.75138724552767C390.6682311713608 422.2311754208996 375.99835606700367 430.4674192438684 372.23321075138523 426.3887558623172C368.4680654357668 422.31009248076606 380.39975173893407 411.25973613803376 380.9908047671739 400.1738030140821C381.58185779541384 389.0878698901305 370.89278463491394 376.8314744857698 375.0702652869366 373.17627686734943C379.24774593895927 369.521079248929 389.97644953937095 381.7427989476076 401.0427118968828 382.62885444566433C412.10897425439464 383.5149099437211 425.7950328975236 370.79248530492436 428.1883246029933 377.4293432580218C430.58161630846297 384.0662012111193 418.5981833999812 405.66868012313506 412.5305120831373 414.48577262053215 "></path><path d="M418.7922164019955 384.95291585039996C420.387744205642 389.3774878191316 412.3987889333208 403.7791404271421 408.3536747220915 409.65720209207353C404.3085605108622 415.5352637570049 404.97251559528274 411.51441972515596 399.37566818809495 413.1676118420705C393.7788207809072 414.82080395898515 383.9989040446691 420.3116331742977 381.48880716759015 417.59252425326355C378.9787102905112 414.87341533222946 386.93316782595605 407.5065111037413 387.32720317811595 400.11588902110685C387.72123853027585 392.72526693847243 380.5951897566093 384.5543366688986 383.38017685795774 382.11753825661833C386.1651639593062 379.6807398443381 393.31763302624734 387.8285529767905 400.69514126458853 388.41925664216166C408.0726495029297 389.0099603075328 417.19668859834906 380.5283438816683 418.7922164019955 384.95291585039996C420.387744205642 389.3774878191316 412.3987889333208 403.7791404271421 408.3536747220915 409.65720209207353 "></path><path d="M409.3961082009978 392.47645792519995C410.193872102821 394.6887439095658 406.1993944666604 401.88957021357106 404.1768373610458 404.82860104603674C402.1542802554311 407.7676318785024 402.4862577976414 405.757209862578 399.6878340940475 406.58380592103526C396.8894103904536 407.4104019794926 391.99945202233454 410.1558165871488 390.7444035837951 408.7962621266318C389.4893551452556 407.4367076661147 393.466583912978 403.7532555518706 393.663601589058 400.0579445105534C393.8606192651379 396.3626334692362 390.29759487830466 392.2771683344493 391.69008842897887 391.05876912830917C393.08258197965307 389.84036992216903 396.65881651312367 393.9142764883952 400.34757063229426 394.2096283210808C404.03632475146486 394.5049801537664 408.5983442991745 390.26417194083416 409.3961082009978 392.47645792519995C410.193872102821 394.6887439095658 406.1993944666604 401.88957021357106 404.1768373610458 404.82860104603674 "></path></g></svg>