<svg xmlns="http://www.w3.org/2000/svg" version="1.1" xmlns:xlink="http://www.w3.org/1999/xlink" xmlns:svgjs="http://svgjs.dev/svgjs" viewBox="0 0 800 800" opacity="0.16"><defs><linearGradient x1="50%" y1="0%" x2="50%" y2="100%" id="wwwhirl-grad"><stop stop-color="#ffd700ff" stop-opacity="1" offset="45%"></stop><stop stop-color="#444444ff" stop-opacity="1" offset="100%"></stop></linearGradient></defs><g stroke-width="1" stroke="url(#wwwhirl-grad)" fill="none" stroke-linecap="round"><path d="M9.00000271190305 423.46719244770605C32.6969730663038 404.98355557127354 32.6969730663038 372.9926455928325 80.09091377510526 368.01628181840834C127.4848544839067 363.0399180439842 103.78788412950598 418.1353741179659 151.18182483830745 408.53810112443364C198.57576554710897 398.9408281309013 174.8787951927082 338.86900828249543 222.2727359015097 339.2244628378115C269.6666766103112 339.57991739312746 245.9697062559104 409.60446479038166 293.3636469647119 409.60446479038166C340.7575876735134 409.60446479038166 317.0606173191126 321.0962805166949 364.4545580279141 339.2244628378115C411.84849873671556 357.352645158928 388.1515283823149 465.05537541967936 435.5454690911164 463.98901175373135C482.9394097999178 462.9226480877833 459.242439445517 337.8026446165474 506.63638015431854 336.02537183996736C554.03032086312 334.2480990633873 530.3333505087193 439.46264743692655 577.7272912175207 458.6571934239912C625.1212319263223 477.85173941105575 601.4242615719215 399.2962826862173 648.818202280723 393.60900980116116C696.2121429895245 387.921736916105 672.5151726351237 456.8799206474111 719.9091133439251 441.59537476882264C767.3030540527267 426.3108288902342 767.3030540527267 379.0353730332047 791.0000244071274 347.7553721653957 " transform="rotate(102, 400, 400)"></path><path d="M20.50000263214119 422.77697899777786C43.500003270236036 404.8369785000639 43.50000327023605 373.78697763863585 89.50000454642571 368.9569775046359C135.50000582261535 364.12697737063604 112.50000518452049 417.60197885420655 158.50000646071018 408.2869785957781C204.50000773689987 398.9719783373497 181.500007098805 340.6669767197793 227.50000837499465 341.01197672935075C273.50000965118437 341.3569767389221 250.50000901308954 409.3219786244924 296.5000102892792 409.3219786244924C342.5000115654689 409.3219786244924 319.500010927374 323.41697624120815 365.5000122035637 341.01197672935075C411.5000134797533 358.60697721749324 388.50001284165853 463.14198011763426 434.5000141178482 462.10698008892C480.500015394038 461.07198006020576 457.500014755943 339.631976691065 503.50001603213263 337.90697664320794C549.5000173083224 336.1819765953508 526.5000166702275 438.30197942849185 572.5000179464172 456.9319799453487C618.5000192226069 475.5619804622055 595.5000185845121 399.31697834692113 641.5000198607017 393.7969781937784C687.5000211368914 388.2769780406356 664.5000204987965 455.2069798974916 710.5000217749862 440.3719794859204C756.5000230511758 425.53697907434923 756.5000230511758 379.65197780135003 779.5000236892707 349.29197695906487 " transform="rotate(99, 400, 400)"></path><path d="M32.00000255237934 422.0867769919414C54.303033474168274 404.69041287294607 54.30303347416829 374.581321128531 98.90909531774614 369.89768463495534C143.51515716132397 365.21404814137964 121.21212623953502 417.06859503453893 165.81818808311291 408.0358675112144C210.42424992669078 399.0031399878899 188.12121900490183 342.46495660115494 232.72728084847972 342.79950206498177C277.3333426920576 343.1340475288086 255.03031177026867 409.0395039026949 299.63637361384656 409.0395039026949C344.2424354574244 409.0395039026949 321.9394045356354 325.73768340981326 366.5454663792133 342.79950206498177C411.15152822279117 359.86132072015033 388.8484973010022 461.228596259681 433.45455914458006 460.2249598682005C478.060620988158 459.22132347672 455.757590066369 341.46132020967445 500.36365190994684 339.78859289054026C544.9697137535247 338.1158655714061 522.6666828317357 437.14132286414895 567.2727446753137 455.206777910798C611.8788065188915 473.27223295744705 589.5757755971026 399.3376854517167 634.1818374406805 393.9849580304874C678.7878992842584 388.63223060925804 656.4848683624693 453.5340505916638 701.0909302060472 439.14859564710997C745.6969920496251 424.7631407025561 745.6969920496251 380.2685940135872 768.000022971414 350.8285931968258 " transform="rotate(96, 400, 400)"></path><path d="M43.50000247261748 421.3965520979214C65.10606367810051 404.54382435764467 65.10606367810053 375.3756417302426 108.31818608906656 370.8383688770911C151.5303085000326 366.3010960239397 129.92424729454956 416.5351883266877 173.13636970551562 407.7847335384671C216.3484921164817 399.0342787502465 194.74243091099868 344.262913594347 237.95455332196468 344.58700451242925C281.1666757329308 344.9110954305115 259.5606145274478 408.75700629271387 302.7727369384138 408.75700629271387C345.98485934937986 408.75700629271387 324.3787981438968 328.0583676902347 367.59092055486286 344.58700451242925C410.80304296582887 361.1156413346238 389.19698176034586 459.3151895135441 432.409104171312 458.3429167592974C475.62122658227804 457.3706440050506 454.015165376795 343.29064084010025 497.22728778776104 341.67018624968904C540.4394101987272 340.0497316592778 518.833348993244 435.98064341162245 562.04547140421 453.4815529880637C605.2575938151762 470.98246256450494 583.6515326096932 399.3583696683287 626.8636550206592 394.1729149790128C670.0757774316253 388.98746028969686 648.4697162261422 451.8610983976525 691.6818386371083 437.92518892011594C734.8939610480744 423.98927944257935 734.8939610480744 380.88518733764073 756.5000222535573 352.36518654640315 " transform="rotate(93, 400, 400)"></path><path d="M55.000002392855635 420.70634627738775C75.90909388203275 404.3972549158296 75.90909388203276 376.16998140544047 117.72727686038701 371.7790721927133C159.5454598387412 367.3881629799861 138.6363683495641 416.00180069232283 180.45455132791835 407.5336186392061C222.2727343062726 399.0654365860894 201.3636428170955 346.0608896610254 243.18182579544973 346.37452603336305C285.000008773804 346.6881624057007 264.0909172846268 408.4745277562191 305.90910026298116 408.4745277562191C347.7272832413354 408.4745277562191 326.81819175215816 330.37907104414256 368.63637473051244 346.37452603336305C410.45455770886673 362.36998102258354 389.54546621968956 457.40180184089354 431.3636491980438 456.4608927238806C473.1818321763981 455.51998360686764 452.27274068722096 345.11998054401244 494.0909236655752 343.55179868232415C535.9091066439294 341.98361682063586 515.0000151547522 434.8199830325823 556.8181981331065 451.7563471388157C598.6363811114608 468.6927112450492 577.7272896222837 399.37907295842706 619.5454726006379 394.3608910010245C661.3636555789923 389.34270904362205 640.4545640898151 450.1881652771275 682.2727470681692 436.7018012666082C724.0909300465236 423.215437256089 724.0909300465236 381.5017997351806 745.0000215357006 353.9017989694668 " transform="rotate(90, 400, 400)"></path><path d="M66.50000231309377 420.01612901276224C86.712124085965 404.25067402992266 86.712124085965 376.96430963654655 127.13636763170743 372.7197640642436C167.56061117744986 368.4752184919406 147.34848940457863 415.4684016138662 187.77273295032109 407.28249229585333C228.1969764960635 399.0965829778405 207.9848547231923 347.858854283612 248.40909826893474 348.16203611020507C288.83334181467717 348.4652179367981 268.62122004180594 408.19203777563257 309.0454635875484 408.19203777563257C349.46970713329085 408.19203777563257 329.25758536041957 332.69976295395855 369.681828906162 348.16203611020507C410.1060724519045 363.6243092664515 389.89395067903325 455.48840272415123 430.3181942247757 454.578857244372C470.7424377705181 453.6693117645928 450.53031599764694 346.94930880383276 490.9545595433894 345.4333996708674C531.3788030891318 343.9174905379021 511.16668131626056 433.65931120945027 551.590924862003 450.031129845476C592.0151684077454 466.40294848150165 571.8030466348742 399.3997648044336 612.2272901806167 394.5488555789445C652.6515337263592 389.6979463534554 632.4394119534879 448.51522071251065 672.8636554992303 435.47840216900875C713.2878990449727 422.4415836255068 713.2878990449727 382.1184006886287 733.500020817844 355.4383999484387 " transform="rotate(87, 400, 400)"></path><path d="M78.00000223333193 419.32594226571484C97.51515428989724 404.1041236615939 97.51515428989725 377.75866838523075 136.54545840302785 373.660486453352C175.57576251615848 369.5623045214733 156.06061045959314 414.93503305298765 195.0909145727238 407.03139647007873C234.12121868585444 399.12775988716976 214.6060666292891 349.6568494237767 253.63637074241976 349.9495767046252C292.66667485555035 350.24230398547365 273.15152279898507 407.90957831262415 312.1818269121157 407.90957831262415C351.2121310252464 407.90957831262415 331.696978968681 335.0204853813527 370.7272830818116 349.9495767046252C409.75758719494223 364.8786680278976 390.24243513837695 453.575034124987 429.2727392515076 452.69685228244157C468.3030433646382 451.8186704398961 448.78789130807286 348.7786675812313 487.81819542120354 347.31503117698884C526.8484995343342 345.85139477274646 507.33334747776877 432.4986699038964 546.3636515908995 448.3059430697144C585.3939557040301 464.11321623553226 565.8788036474648 399.4204871680182 604.9091077605954 394.73685067444256C643.939411873726 390.0532141808669 624.4242598171606 446.84230666547194 663.4545639302913 434.2550335889873C702.484868043422 421.6677605125027 702.484868043422 382.7350321596549 722.0000200999873 356.9750314449887 " transform="rotate(84, 400, 400)"></path><path d="M89.50000215357007 418.6357211863921C108.31818449382948 403.9575389609898 108.31818449382949 378.55299280163956 145.9545491743483 374.6011745101851C183.5909138548671 370.6493562187306 164.7727315146077 414.40163015983376 202.4090961951265 406.7802663120287C240.04546087564535 399.1589024642236 221.22727853538592 351.454810231666 258.86364321590474 351.7370829667699C296.5000078964236 352.0193557018738 277.6818255561642 407.62708451734034 315.318190236683 407.62708451734034C352.95455491720185 407.62708451734034 334.13637257694234 337.34117347647145 371.7727372574612 351.7370829667699C409.40910193798004 366.1329924570683 390.5909195977206 451.66163119354735 428.22728427823944 450.8148129882357C465.86364895875823 449.96799478292405 447.04546661849884 350.60799202635434 484.68183129901763 349.1966283508349C522.3181959795365 347.78526467531543 503.50001363927703 431.3379942660672 541.1363783197959 446.58072196167734C578.7727430003147 461.8234496572875 559.9545606600553 399.4411751993275 597.5909253405741 394.92481143766526C635.227290021093 390.408447676003 616.4091076808335 445.1693582861579 654.0454723613524 433.03163067669055C691.6818370418712 420.8939030672232 691.6818370418712 383.3516292984057 710.5000193821305 358.5116286092633 " transform="rotate(81, 400, 400)"></path><path d="M101.0000020738082 417.9455077364639C119.12121469776173 403.8109618897802 119.12121469776173 379.3473248474429 155.36363994566872 375.5418701964127C191.60606519357572 371.73641554538244 173.4848525696222 413.86823489607434 209.72727781752923 406.5291437833732C245.96970306543625 399.190052670672 227.84849044148274 353.2527786689499 264.09091568938976 353.52459685830917C300.3333409372968 353.79641504766846 282.21212831334327 407.34459835145105 318.45455356125024 407.34459835145105C354.6969788091574 407.34459835145105 336.57576618520375 339.6618692009847 372.81819143311077 353.52459685830917C409.0606166810178 367.3873245156336 390.9394040570643 449.7482358915023 427.1818293049713 448.93278132342436C463.42425455287827 448.1173267553465 445.3030419289248 352.43732410087193 481.54546717683183 351.07823315407546C517.7878924247389 349.71914220727894 499.6666798007853 430.1773262576325 535.9091050486923 444.85550848303484C572.1515302965994 459.5336907084372 554.0303176726459 399.4618708600313 590.2727429205529 395.1127798302825C626.5151681684599 390.7636888005336 608.3939555445063 443.4964175362383 644.6363807924134 431.8082353937883C680.8788060403203 420.1200532513383 680.8788060403203 383.9682340665511 699.0000186642739 360.04823340293245 " transform="rotate(78, 400, 400)"></path><path d="M112.50000199404636 417.2552942865357C129.92424490169395 403.6643848185705 129.92424490169398 380.14165689324625 164.77273071698914 376.4825658826403C199.62121653228434 372.8234748720343 182.19697362463677 413.3348396323149 217.04545943993196 406.27802125471766C251.89394525522718 399.2212028771204 234.46970234757958 355.0507471062337 269.3181881628748 355.31211074984844C304.16667397817 355.57347439346313 286.74243107052234 407.06211218556183 321.5909168858176 407.06211218556183C356.43940270111284 407.06211218556183 339.01515979346516 341.982564925498 373.86364560876035 355.31211074984844C408.7121314240556 368.64165657419886 391.287888516408 447.8348405894572 426.13637433170317 447.0507496586131C460.9848601469984 446.2666587277689 443.5606172393508 354.2666561753896 478.409103054646 352.95983795731604C513.2575888699412 351.65301973924244 495.83334596229355 429.0166582491978 530.6818317775887 443.13029500439234C565.530317592884 457.24393175958687 548.1060746852364 399.48256652073513 582.9545605005317 395.3007482228997C617.8030463158268 391.11892992506426 600.3788034081792 441.8234767863188 635.2272892234744 430.5848401108861C670.0757750387696 419.3462034354534 670.0757750387696 384.5848388346964 687.5000179464172 361.5848381966016 " transform="rotate(75, 400, 400)"></path><path d="M124.0000019142845 416.5650732072129C140.7272751056262 403.5178001179664 140.72727510562623 380.9359813096551 174.1818214883096 377.42325393947334C207.63636787099296 373.91052656929156 190.90909467965128 412.80143673916103 224.3636410623347 406.02689109666767C257.8181874450181 399.25234545417425 241.09091425367637 356.84870791412305 274.5454606363598 357.0996170119932C308.0000070190432 357.35052610986327 291.2727338277015 406.779618390278 324.7272802103849 406.779618390278C358.1818265930683 406.779618390278 341.45455340172657 344.30325302061675 374.90909978440993 357.0996170119932C408.36364616709335 369.89598100336957 391.6363729757516 445.92143765801757 425.09091935843503 445.1687103644072C458.54546574111845 444.41598307079687 441.81819254977677 356.09598062051265 475.2727389324602 354.84143513116203C508.7272853151436 353.5868896418114 492.00001212380187 427.8559826113685 525.4545585064852 441.40507389635536C558.9091048891686 454.9541651813421 542.181831697827 399.5032545520444 575.6363780805104 395.4887089861224C609.0909244631937 391.47416342020034 592.363651271852 440.1505284070047 625.8181976545354 429.36143719858933C659.2727440372189 418.5723459901739 659.2727440372189 385.20143597344725 676.0000172285605 363.1214353608762 " transform="rotate(72, 400, 400)"></path><path d="M135.50000183452266 415.8748597572847C151.53030530955846 403.37122304675677 151.53030530955846 381.73031335545846 183.59091225963002 378.3639496257009C215.6515192097016 374.9975858959434 199.6212157346658 412.2680414754016 231.6818226847374 405.77576856801215C263.742429634809 399.28349566062263 247.71212615977322 358.6466763514069 279.7727331098448 358.88713090353247C311.8333400599164 359.127585455658 295.8030365848806 406.49713222438874 327.8636435349522 406.49713222438874C359.9242504850238 406.49713222438874 343.8939470099879 346.62394874513006 375.95455396005957 358.88713090353247C408.01516091013116 371.1503130619348 391.98485743509536 444.0080423559725 424.04546438516695 443.2866786995959C456.1060713352385 442.56531504321924 440.07576786020275 357.9253126950303 472.13637481027433 356.7230399344026C504.1969817603459 355.5207671737749 488.16667828531007 426.6953146029338 520.2272852353817 439.6798604177128C552.2878921854533 452.66440623249184 536.2575887104174 399.52395021274816 568.3181956604891 395.67667737873956C600.3788026105607 391.829404544731 584.3484991355249 438.4775876570851 616.4091060855965 428.13804191568704C648.4697130356681 417.79849617428897 648.4697130356681 385.81804074159254 664.5000165107039 364.65804015454535 " transform="rotate(69, 400, 400)"></path><path d="M146.9999864959717 415.184653936751C162.33332025470162 403.2246536049417 162.33332025470162 382.52465303065634 192.9999877721614 379.30465294132307C223.6666552896212 376.08465285198974 208.33332153089128 411.7346538410368 238.99998904835104 405.52465366875117C269.66665656581085 399.31465349646555 254.33332280708095 360.4446524180853 284.9999903245407 360.6746524244662C315.6666578420005 360.9046524308472 300.33332408327067 406.214653687894 330.9999916007304 406.214653687894C361.6666591181902 406.214653687894 346.3333253594602 348.94465209903785 376.99999287692003 360.6746524244662C407.66666039437985 372.4046527498946 392.33332663564994 442.09465468332195 422.99999415310975 441.4046546641791C453.6666616705695 440.71465464503626 438.3333279118396 359.7546523989424 468.9999954292994 358.6046523670377C499.66666294675923 357.45465233513295 484.33332918802927 425.53465422389365 514.9999967054891 437.9546545684649C545.6666642229488 450.37465491303607 530.333330464219 399.5446535028465 560.9999979816788 395.8646534007513C591.6666654991386 392.18465329865614 576.3333317404087 436.8046545365601 606.9999992578685 426.91465426217934C637.6666667753282 417.02465398779856 637.6666667753282 386.4346531391324 653.000000534058 366.19465257760896 " transform="rotate(66, 400, 400)"></path><path d="M158.49998641620988 414.4944481162173C173.13635045863387 403.0780841631266 173.13635045863387 383.3189927058542 202.40907854348183 380.2453562569452C231.6818066283298 377.17171980803613 217.0454425859058 411.2012662066719 246.31817067075377 405.2735387694902C275.59089875560176 399.3458113323085 260.9545347131778 362.24262848476366 290.2272627980258 362.4621739454C319.4999908828737 362.6817194060364 304.86362684044974 405.9321751513993 334.1363549252977 405.9321751513993C363.40908301014565 405.9321751513993 348.77271896772163 351.2653554529457 378.04544705256967 362.4621739454C407.3181751374176 373.6589924378544 392.68181109499363 440.1812670106714 421.9545391798416 439.52263062876233C451.2272672646896 438.8639942468532 436.5909032222656 361.5839921028546 465.86363130711356 360.48626479967277C495.13635939196155 359.388537496491 480.4999953495375 424.3739938448535 509.7727234343855 436.2294487192169C539.0454515192334 448.08490359358035 524.4090874768095 399.56535679294484 553.6818155616575 396.05262942276306C582.9545436465055 392.53990205258134 568.3181796040815 435.13172141603513 597.5909076889294 425.69126660867164C626.8636357737773 416.25081180130815 626.8636357737773 387.0512655366723 641.4999998162014 367.7312650006727 " transform="rotate(63, 400, 400)"></path><path d="M169.99998633644802 413.80423466628906C183.93938066256612 402.93150709191696 183.93938066256612 384.11332475165756 211.81816931480228 381.18605194317274C239.69695796703843 378.258779134688 225.75756364092032 410.6678709429125 253.6363522931565 405.0224162408347C281.51514094539266 399.37696153875686 267.5757466192746 364.04059692204754 295.45453527151074 364.2496878369393C323.3333239237469 364.45877875183106 309.3939295976288 405.64968898551 337.272718249865 405.64968898551C365.15150690210123 405.64968898551 351.21211257598304 353.58605117745896 379.0909012282192 364.2496878369393C406.96968988045535 374.91332449641965 393.0302955543373 438.26787170862633 420.90908420657354 437.640598963951C448.78787285880964 437.01332621927565 434.84847853269156 363.4133241773722 462.7272671849277 362.36786960291334C490.6060558371639 361.3224150284545 476.6666615110458 423.2133258364188 504.54545016328194 434.5042352405744C532.424238815518 445.79514464473004 518.4848444894001 399.5860524536486 546.3636331416362 396.2405978153803C574.2424217938724 392.89514317711195 560.3030274677542 433.45878066611556 588.1818161199906 424.4678713257694C616.0606047722267 415.47696198542326 616.0606047722267 387.66787030481765 629.9999990983447 369.2678697943418 " transform="rotate(60, 400, 400)"></path><path d="M181.49998625668616 413.11403266045266C194.74241086649835 402.78494146479915 194.74241086649835 384.9076682415527 221.2272600861227 382.12675907349217C247.71210930574705 379.3458499054316 234.46968469593486 410.1344871232449 260.95453391555924 404.77130515627096C287.43938313518356 399.40812318929704 274.19695852537143 365.83857680342317 300.68180774499575 366.0372131725704C327.16665696462013 366.2358495417175 313.92423235480794 405.3672142637125 340.4090815744323 405.3672142637125C366.8939307940567 405.3672142637125 353.65150618424445 355.90675834606407 380.13635540386883 366.0372131725704C406.62120462349316 376.1676679990767 393.378780013681 436.354487850673 419.86362923330535 435.75857874323145C446.3484784529297 435.16266963578994 433.1060538431176 365.2426676959816 459.5909030627419 364.2494858502457C486.07575228236624 363.2563040045098 472.83332767255405 422.05266927207583 499.3181768921784 432.77903320602377C525.8030261118028 443.5053971399716 512.5606015019906 399.6067595584442 539.045450721615 396.4285776520893C565.5302999412394 393.2503957457344 552.2878753314271 431.7858513602878 578.7727245510515 423.244487486959C605.2575737706759 414.7031236136301 605.2575737706759 388.2844865170548 618.499998380488 370.8044860321028 " transform="rotate(57, 400, 400)"></path><path d="M192.99998617692432 412.4237963223408C205.5454410704306 402.63834150540595 205.5454410704306 385.70197739917245 230.63635085744312 383.06743187153614C255.72726064445567 380.43288634389984 243.1818057509494 409.6010689713019 268.272715537962 404.52015973943185C293.36362532497446 399.43925050756184 280.8181704314682 367.63652235252346 305.90908021848077 367.82470417592606C330.9999900054933 368.0128859993286 318.45453511198707 405.08470520963965 343.54544489899956 405.08470520963965C368.63635468601217 405.08470520963965 356.09089979250587 358.22743118239373 381.18180957951836 367.82470417592606C406.27271936653096 377.42197716945833 393.72726447302466 434.4410696604443 418.8181742600372 433.8765241902365C443.90908404704976 433.3119787200288 431.36362915354346 367.07197688231565 456.45453894055606 366.1310677653027C481.5454487275686 365.1901586482897 468.9999938340623 420.89197837545754 494.09090362107486 431.0537968391976C519.1818134080875 441.21561530293775 506.63635851458116 399.62743233096444 531.7272683015938 396.61652315652293C556.8181780886064 393.6056139820814 544.2727231951 430.11288772218467 569.3636329821124 422.02106931587315C594.454542769125 413.9292509095616 594.454542769125 388.90106839701656 606.9999976626314 372.34106793758826 " transform="rotate(54, 400, 400)"></path><path d="M204.49998609716246 411.73359622385306C216.34847127436285 402.49177778563677 216.34847127436285 386.4963227964163 240.04544162876357 384.0081409092042C263.7424119831643 381.5199590219921 251.89392680596393 409.067687058983 275.59089716036465 404.2690505622168C299.2878675147654 399.47041406545065 287.439382337565 369.4345041412477 311.1363526919658 369.6122314189057C334.83332304636656 369.78995869656376 322.98483786916614 404.8022323951908 346.6818082235669 404.8022323951908C370.37877857796764 404.8022323951908 358.5302934007673 360.5481402583474 382.227263755168 369.6122314189057C405.9242341095687 378.676322579464 394.07574893236836 432.5276877098397 417.77271928676913 431.9945058768657C441.46968964116985 431.46132404389164 429.62120446396943 368.90132230827373 453.3181748183702 368.01268591998365C477.01514517277093 367.12404953169363 465.16665999557057 419.7313237184633 488.8636303499713 429.3285967119956C512.5606007043721 438.9258697055279 500.7121155271717 399.64814134310865 524.4090858815724 396.8045049005806C548.1060562359733 393.96086845805246 536.2575710587728 428.4399603237056 559.9545414131735 420.79768738441135C583.6515117675742 413.15541444511706 583.6515117675742 389.51768651660234 595.4999969447747 373.87768608269783 " transform="rotate(51, 400, 400)"></path><path d="M215.9999860174006 411.0433942180166C227.15150147829507 402.34521215851896 227.15150147829507 387.2906662863114 249.45453240008402 384.94884803952357C271.7575633218729 382.6070297927357 260.60604786097844 408.53430323931536 282.9090787827674 404.0179394776531C305.2121097045563 399.50157571599084 294.06059424366185 371.23248402262334 316.3636251654508 371.3997567545368C338.66665608723974 371.5670294864502 327.51514062634527 404.51975767339337 349.8181715481342 404.51975767339337C372.1212024699231 404.51975767339337 360.96968700902863 362.8688474269525 383.2727179308176 371.3997567545368C405.5757488526065 379.93066608212104 394.42423339171205 430.6143038518864 416.727264313501 430.11248565614613C439.03029523528994 429.6106674604059 427.8787797743954 370.7306658268831 450.18181069618436 369.894302167316C472.4848416179733 369.05793850774893 461.3333261570788 418.5706671541204 483.6363570788678 427.6033946774449C505.93938800065666 436.6361222007694 494.78787253976225 399.6688484479042 517.0909034615512 396.9924847372896C539.3939343833401 394.3161210266749 528.2424189224456 426.7670310178778 550.5454498442346 419.57430354560086C572.8484807660235 412.3815760733239 572.8484807660235 390.1343027288395 583.9999962269179 375.4143023204588 " transform="rotate(48, 400, 400)"></path><path d="M227.49998593763877 410.3531788607398C237.9545316822273 402.19863317996067 237.95453168222733 388.08499642476613 258.86362317140447 385.8895418184025C279.7727146605815 383.69408721203894 269.318168915993 408.0009060682073 290.2272604051701 403.76681504164895C311.13635189434723 399.5327240150906 300.6818061497587 373.0304505525586 321.5908976389358 373.1872687387274C342.49998912811293 373.34408692489626 332.04544338352434 404.23726960015546 352.9545348727015 404.23726960015546C373.86362636187863 404.23726960015546 363.40908061729 365.18954124411715 384.31817210646716 373.1872687387274C405.22726359564433 381.18499623333764 394.77271785105575 428.70090664249267 415.6818093402328 428.23045208398617C436.59090082941 427.7599975254797 426.1363550848214 372.5599959940521 447.04544657399856 371.775905063208C467.9545380631756 370.99181413236386 457.49999231858703 417.40999723833704 478.4090838077642 425.87817929145376C499.3181752969413 434.3463613445705 488.8636295523528 399.6895422012594 509.7727210415299 397.1804512225582C530.681812530707 394.6713602438569 520.2272667861184 425.09408836060965 541.1363582752956 418.35090635535C562.0454497644728 411.6077243500904 562.0454497644728 390.7509055896362 572.4999955090613 376.9509052067793 " transform="rotate(45, 400, 400)"></path><path d="M238.99998585787688 409.66296731816016C248.75756188615955 402.0520580160997 248.75756188615958 388.8793303779181 268.27271394272486 386.83023941197877C287.78786599929015 384.78114844603937 278.0302899710075 407.4675127117966 297.54544202757285 403.5156944203421C317.0605940841382 399.5638761288876 307.3030180558555 374.8284208971911 326.81817011242083 374.97478453761534C346.3333221689861 375.12114817803956 336.5757461407035 403.9547853416148 356.09089819726876 403.9547853416148C375.60605025383416 403.9547853416148 365.8484742255514 367.5102388759791 385.36362628211674 374.97478453761534C404.8787783386821 382.4393301992516 395.12120231039944 426.78751324779626 414.6363543669647 426.3484223265235C434.15150642353 425.9093314052508 424.39393039524737 374.3893299759184 443.9090824518127 373.6575117737972C463.42423450837805 372.925693571676 453.6666584800953 416.249331137251 473.1818105366607 424.1529677201599C492.696962593226 432.05660430306887 482.93938656494333 399.71023976931184 502.4545386215086 397.36842152252405C521.9696906780739 395.0266032757362 512.2121146497913 423.4211495180387 531.7272667063567 417.1275129797964C551.242418762922 410.8338764415541 551.242418762922 391.3675122651302 560.9999947912046 378.48751190779706 " transform="rotate(42, 400, 400)"></path><path d="M250.49998577811505 408.97274623883743C259.5605920900918 401.90547331549556 259.5605920900918 389.6736547943269 277.6818047140453 387.7709274688118C295.80301733799877 385.8682001432967 286.74241102602207 406.93410981864264 304.8636236499756 403.2645642622921C322.9848362739291 399.59501870594147 313.9242299619523 376.6263817050804 332.0454425859058 376.7622907997601C350.1666552098593 376.8981998944397 341.1060488978826 403.672291546331 359.22726152183606 403.672291546331C377.3484741457896 403.672291546331 368.2878678338128 369.8309269710978 386.4090804577663 376.7622907997601C404.53029308171983 383.6936546284223 395.4696867697431 424.8741103163566 413.5908993936966 424.46638303231765C431.71211201765004 424.0586557482787 422.65150570567334 376.21865442104144 440.77271832962685 375.5391089476432C458.89393095358037 374.85956347424496 449.83332464160355 415.08865549942175 467.95453726555706 422.42774661212286C486.07574988951063 429.7668377248241 477.0151435775339 399.73092780062115 495.1363562014874 397.5563822857467C513.2575688254409 395.38183677087227 504.1969625134641 421.74820113872465 522.3181751374177 415.90411006749963C540.4393877613711 410.0600189962746 540.4393877613711 391.984109403881 549.4999940733478 380.02410907207167 " transform="rotate(39, 400, 400)"></path><path d="M261.99998569835316 408.2825385109551C270.363622294024 401.75890196633185 270.363622294024 390.46799256217616 287.09089548536576 388.71162887708533C303.8181686767074 386.95526519199444 295.4545320810366 406.4007202769292 312.18180527237826 403.01344745568247C328.90907846372 399.62617463443576 320.5454418680491 378.42435586441013 337.27271505939086 378.5498104133452C353.99998825073254 378.67526496228027 345.6363516550617 403.38981110248767 362.36362484640335 403.38981110248767C379.0908980377451 403.38981110248767 370.7272614420742 372.15162841765704 387.4545346334159 378.5498104133452C404.1818078247576 384.9479924090334 395.8181712290867 422.9607207363574 412.54544442042845 422.5843570895522C429.2727176117702 422.20799344274707 420.9090810160993 378.047992217605 437.63635420744106 377.42071947292965C454.36362739878274 376.79344672825437 445.99999080311187 413.9279932130329 462.72726399445355 420.7025388555263C479.45453718579523 427.4770844980197 471.0909005901244 399.7516291833708 487.81817378146616 397.7443564004098C504.5454469728078 395.73708361744883 496.1818103771369 420.075266110851 512.9090835684786 414.6807205066433C529.6363567598204 409.28617490243556 529.6363567598204 392.60071989407226 537.9999933554911 381.5607195877867 " transform="rotate(36, 400, 400)"></path><path d="M273.4999856185913 407.59232887572415C281.1666524979563 401.61232870981945 281.1666524979563 391.2623284226768 296.49998625668616 389.65232837801017C311.83332001541606 388.0423283333435 304.1666531360511 405.867328827867 319.499986894781 402.7623287417242C334.8333206535109 399.6573286555814 327.16665377414597 380.2223281163913 342.4999875328758 380.33732811958174C357.8333212916057 380.4523281227722 350.1666544122408 403.10732875129565 365.4999881709707 403.10732875129565C380.83332192970056 403.10732875129565 373.1666550503356 374.47232795686756 388.4999888090655 380.33732811958174C403.8333225677954 386.2023282822959 396.1666556884304 421.04732924900964 411.4999894471604 420.7023292394382C426.8333232058902 420.35732922986676 419.1666563265253 379.87732810681985 434.49999008525515 379.3023280908675C449.8333238439851 378.72732807491514 442.1666569646201 412.76732901929546 457.49999072335004 418.9773291915811C472.8333244820799 425.1873293638667 465.16665760271496 399.77232865877187 480.49999136144487 397.9323286077243C495.8333251201748 396.0923285566767 488.1666582408098 418.40232917562867 503.4999919995397 413.4573290384383C518.8333257582696 408.51232890124794 518.8333257582696 393.2173284769149 526.4999926376345 383.0973281961531 " transform="rotate(33, 400, 400)"></path><path d="M285.00000079761855 406.9021154257959C291.9696979606776 401.46575163860985 291.9696979606776 392.0566604684801 305.90909228679567 390.59302406423774C319.84848661291375 389.12938765999536 312.8787894498547 405.3339335641076 326.8181837759728 402.5112062130687C340.75757810209086 399.6884788620298 333.7878809390318 382.0202965536751 347.7272752651499 382.124842011121C361.666669591268 382.22938746856687 354.69697242820894 402.8248425854064 368.636366754327 402.8248425854064C382.57576108044515 402.8248425854064 375.60606391738605 376.7930236813809 389.54545824350413 382.124842011121C403.4848525696222 387.45666034086116 396.51515540656317 419.13393394696453 410.4545497326813 418.82029757462686C424.3939440587993 418.5066612022892 417.42424689574034 381.7066601813375 431.3636412218584 381.18393289410807C445.3030355479765 380.66120560687864 438.3333383849174 411.60666101086076 452.2727327110355 417.2521157129386C466.21212703715355 422.8975704150164 459.24242987409457 399.7930243194757 473.18182420021265 398.1202970003415C487.1212185263307 396.44756968120737 480.1515213632716 416.72938842570915 494.0909156893898 412.2339337555361C508.0303100155079 407.738479085363 508.0303100155079 393.8339332450602 515.0000071785669 384.63393298982226 " transform="rotate(30, 400, 400)"></path><path d="M296.50000071785666 406.2119019758677C302.7727281646098 401.31917456740024 302.7727281646098 392.8509925142835 315.3181830581161 391.53371975046537C327.86363795162237 390.21644698664716 321.5909105048692 404.80053830034825 334.1363653983755 402.2600836844132C346.68182029188176 399.7196290684782 340.4090928451286 383.818264990959 352.9545477386349 383.9123559026603C365.5000026321412 384.0064468143616 359.22727518538807 402.5423564195171 371.7727300788943 402.5423564195171C384.3181849724006 402.5423564195171 378.04545752564746 379.11371940589413 390.5909124191537 383.9123559026603C403.13636731266 388.71099239942646 396.86363986590686 417.22053864491943 409.40909475941316 416.9382659098155C421.9545496529194 416.6559931747116 415.68182220616626 383.5359922558551 428.22727709967256 383.0655376973486C440.7727319931788 382.59508313884214 434.50000454642566 410.44599300242606 447.04545943993196 415.5269022342961C459.59091433343826 420.60781146616614 453.3181868866851 399.8137199801795 465.8636417801914 398.30826539295873C478.4090966736977 396.802810805738 472.1363692269445 415.0564476757896 484.68182412045076 411.0105384726338C497.22727901395706 406.96462926947805 497.22727901395706 394.4505380132056 503.5000064607102 386.1705377834914 " transform="rotate(27, 400, 400)"></path><path d="M307.9999930087003 405.5216923406367C313.57575073914757 401.1726013108879 313.57575073914757 393.6453283747841 324.727266200042 392.4744192513902C335.87878166093645 391.3035101279963 330.3030239304892 404.2671468512861 341.4545393913837 402.00896497045494C352.60605485227813 399.75078308962384 347.0302971218309 385.6162372429401 358.1818125827254 385.69987360889684C369.3333280436199 385.78350997485353 363.75757031317266 402.2598740683251 374.9090857740671 402.2598740683251C386.06060123496155 402.2598740683251 380.4848435045143 381.43441894510465 391.6363589654088 385.69987360889684C402.78787442630323 389.96532827268896 397.212116695856 415.3071471575716 408.3636321567505 415.0562380597015C419.51514761764497 414.8053289618314 413.9393898871977 385.36532814506995 425.0909053480922 384.94714631528643C436.24242080898665 384.5289644855029 430.6666630785394 409.28532880868863 441.8181785394339 413.80169257035084C452.96969400032833 418.3180563320131 447.3939362698811 399.83441945558053 458.5454517307756 398.4962376002732C469.69696719167007 397.15805574496585 464.1212094612228 413.3835107405673 475.2727249221173 409.78714700442885C486.42424038301175 406.1907832682904 486.42424038301175 395.06714659604813 491.99999811345896 387.7071463918578 " transform="rotate(24, 400, 400)"></path><path d="M319.49999292893847 404.8314779370342C324.3787809430798 401.0260232860039 324.3787809430798 394.43965946691316 334.13635697136243 393.41511398394346C343.8939329996451 392.3905685009738 339.01514498550375 403.73375063385237 348.7727210137864 401.75784148812517C358.5302970420691 399.7819323423979 353.6515090279278 387.41420472654966 363.4090850562104 387.48738654676174C373.16666108449306 387.5605683669739 368.28787307035174 401.9773869487615 378.0454490986344 401.9773869487615C387.8030251269171 401.9773869487615 382.9242371127757 383.75511371594365 392.68181314105834 387.48738654676174C402.43938916934104 391.2196593775799 397.5606011551997 413.39375090185223 407.31817718348236 413.17420544121586C417.075753211765 412.9546599805795 412.1969651976237 387.1946592659133 421.9545412259064 386.8287501648527C431.712117254189 386.4628410637921 426.83332924004765 408.12465984657956 436.59090526833035 412.0764781380341C446.348481296613 416.02829642948853 441.46969328247167 399.85511416261005 451.2272693107543 398.6842050392161C460.98484533903695 397.5132959158222 456.10605732489563 411.7105690369735 465.86363335317833 408.5637507678523C475.621209381461 405.41693249873117 475.621209381461 395.6837504105192 480.4999973956023 389.24375023185263 " transform="rotate(21, 400, 400)"></path><path d="M330.9999928491766 404.1412663944546C335.181811147012 400.87944812214295 335.181811147012 395.23399342006513 343.5454477426829 394.3558115775197C351.9090843383537 393.47762973497424 347.7272660405183 403.20035727744164 356.0909026361891 401.5067208668183C364.45453923186 399.81308445619493 360.27272093402456 389.2121750711821 368.63635752969543 389.27490234564965C376.99999412536624 389.3376296201172 372.8181758275308 401.6949026902209 381.1818124232017 401.6949026902209C389.54544901887255 401.6949026902209 385.3636307210371 386.07581134780554 393.727267316708 389.27490234564965C402.0909039123788 392.47399334349376 397.90908561454336 411.48035750715576 406.2727222102142 411.29217568375316C414.6363588058851 411.10399386035056 410.45454050804966 389.0239932477795 418.81817710372053 388.7103568754419C427.18181369939134 388.39672050310423 422.9999954015559 406.9639937454935 431.3636319972268 410.3512665667402C439.72726859289764 413.7385393879869 435.5454502950622 399.87581173066246 443.9090868907331 398.872175339182C452.2727234864039 397.86853894770144 448.09090518856846 410.03763019440254 456.4545417842393 407.3403573922987C464.8181783799102 404.64308459019486 464.8181783799102 396.30035708601315 468.99999667774557 390.7803569328704 " transform="rotate(18, 400, 400)"></path><path d="M342.499996584112 403.45105580554934C345.98484516564156 400.7328739119563 345.98484516564156 396.0283283268914 352.95454232870054 395.29651012477024C359.92423949175964 394.56469192264905 356.4393909102301 402.6669648747052 363.4090880732891 401.2556011991857C370.37878523634816 399.84423752366627 366.8939366548186 391.01014636948895 373.8636338178777 391.0624190982119C380.8333309809367 391.1146918269348 377.3484823994072 401.41241938535455 384.31817956246624 401.41241938535455C391.2878767255253 401.41241938535455 387.8030281439958 388.3965099333418 394.77272530705477 391.0624190982119C401.74242247011387 393.72832826308195 398.2575738885843 409.5669650661336 405.22727105164336 409.4101468799648C412.1969682147024 409.253328693796 408.7121196331729 390.8533281833201 415.68181679623194 390.5919645397054C422.651513959291 390.3306008960907 419.16666537776143 405.80332859808175 426.13636254082047 408.62605594912065C433.1060597038795 411.44878330015956 429.62121112235 399.8965102523892 436.59090828540906 399.0601465928221C443.5606054484681 398.22378293325505 440.07575686693855 408.36469230550597 447.04545402999764 406.1169649704194C454.0151511930567 403.86923763533287 454.0151511930567 396.91696471518145 457.4999997745862 392.3169645875625 " transform="rotate(15, 400, 400)"></path><path d="M353.9999965043502 402.7608433092954C356.7878753695738 400.586297794421 356.7878753695738 396.8226613263691 362.363633100021 396.2372067646721C367.93939083046826 395.6517522029752 365.1515119652446 402.1335705646201 370.72726969569186 401.0044796242045C376.30302742613907 399.87538868378897 373.51514856091546 392.8081157604471 379.09090629136267 392.84993394342547C384.66666402180994 392.8917521264038 381.87878515658633 401.1299341731396 387.45454288703354 401.1299341731396C393.03030061748075 401.1299341731396 390.24242175225714 390.7172066115294 395.8181794827044 392.84993394342547C401.3939372131516 394.9826612753215 398.606058347928 407.6535707177629 404.1818160783753 407.5281161688278C409.7575738088225 407.40266161989274 406.9696949435988 392.682661211512 412.5454526740461 392.47357029662027C418.12121040449335 392.2644793817285 415.3333315392697 404.64266154332137 420.90908926971696 406.90084342415247C426.48484700016417 409.15902530498363 423.69696813494056 399.91720686676734 429.27272586538777 399.24811593911363C434.84848359583503 398.57902501146 432.06060473061143 406.6917525092607 437.63636246105864 404.8935706411915C443.21212019150585 403.09538877312224 443.21212019150585 397.5335704370011 445.9999990567295 393.85357033490595 " transform="rotate(12, 400, 400)"></path><path d="M365.4999964245883 402.07063462773874C367.590905573506 400.439725491583 367.590905573506 397.61699814054407 371.77272387134144 397.17790721927133C375.9545421691769 396.7388162979986 373.86363302025916 401.6001800692323 378.0454513180946 400.75336186392065C382.22726961593 399.90654365860894 380.1363604670123 394.60608896610256 384.31817876484774 394.6374526033363C388.4999970626831 394.6688162405701 386.4090879137654 400.8474527756219 390.59090621160084 400.8474527756219C394.7727245094363 400.8474527756219 392.68181536051856 393.0379071044143 396.863633658354 394.6374526033363C401.04545195618937 396.2369981022583 398.95454280727165 405.74018018408935 403.1363611051071 405.64608927238805C407.3181794029425 405.55199836068675 405.2272702540248 394.51199805440126 409.40908855186024 394.3551798682324C413.59090684969567 394.1983616820636 411.49999770077795 403.48199830325825 415.6818159986134 405.17563471388155C419.8636342964488 406.8692711245049 417.7727251475311 399.9379072958427 421.95454344536654 399.43608910010244C426.136361743202 398.9342709043622 424.04545259428426 405.0188165277127 428.2272708921197 403.67018012666085C432.4090891899551 402.3215437256089 432.4090891899551 398.15017997351805 434.4999983388728 395.3901798969467 " transform="rotate(9, 400, 400)"></path><path d="M377.0000001595237 401.3804230851592C378.3939395921355 400.29315032772195 378.39393959213555 398.41133209369605 381.1818184573591 398.11860481284754C383.96969732258276 397.8258775319991 382.57575788997093 401.0667867128215 385.36363675519453 400.50224124261376C388.1515156204182 399.93769577240596 386.75757618780636 396.404059310735 389.54545505302997 396.4249684022242C392.33333391825363 396.4458774937134 390.9393944856418 400.5649685170813 393.7272733508654 400.5649685170813C396.515152216089 400.5649685170813 395.1212127834772 395.35860473627616 397.90909164870084 396.4249684022242C400.69697051392444 397.49133206817226 399.3030310813126 403.8267867893929 402.09090994653627 403.76405951492535C404.8787888117599 403.7013322404579 403.48484937914805 396.3413320362675 406.2727282443717 396.2367865788216C409.0606071095953 396.1322411213757 407.6666676769835 402.32133220217213 410.45454654220714 403.45042314258774C413.2424254074307 404.5795140830033 411.8484859748189 399.9586048638951 414.6363648400425 399.6240594000683C417.4242437052661 399.28951393624146 416.03030427265435 403.34587768514183 418.81818313787795 402.4467867511072C421.60606200310156 401.5476958170726 421.60606200310156 398.76678664901203 423.0000014357134 396.92678659796445 " transform="rotate(6, 400, 400)"></path><path d="M388.5000000797619 400.6902115425796C389.1969697960678 400.146575163861 389.1969697960678 399.205666046848 390.59090922867955 399.0593024064238C391.9848486612914 398.9129387659995 391.28787894498544 400.5333933564108 392.68181837759727 400.2511206213069C394.0757578102091 399.968847886203 393.37878809390315 398.2020296553675 394.772727526515 398.2124842011121C396.1666669591268 398.2229387468567 395.46969724282087 400.28248425854065 396.8636366754327 400.28248425854065C398.25757610804453 400.28248425854065 397.5606063917386 397.6793023681381 398.9545458243504 398.2124842011121C400.34848525696225 398.7456660340861 399.6515155406563 401.91339339469647 401.04545497326814 401.8820297574627C402.43939440587997 401.85066612022894 401.742424689574 398.1706660181337 403.13636412218585 398.1183932894108C404.5303035547977 398.06612056068786 403.83333383849174 401.16066610108606 405.22727327110357 401.72521157129387C406.62121270371534 402.2897570415016 405.92424298740946 399.9793024319476 407.31818242002123 399.81202970003415C408.71212185263306 399.64475696812076 408.0151521363272 401.67293884257094 409.40909156893895 401.2233933755536C410.8030310015508 400.7738479085363 410.8030310015508 399.383393324506 411.50000071785666 398.4633932989822 " transform="rotate(3, 400, 400)"></path></g></svg>