<svg xmlns="http://www.w3.org/2000/svg" width="1920" height="971" viewBox="0 0 1920 971" fill="none">
  <rect width="1920" height="1080" fill="#474747"/>
  <g filter="url(#filter0_f_494_5151)">
    <path d="M1160.88 936.184C692.073 936.184 846.943 566.27 869.153 514.626C1007.01 430.955 1339.52 262.892 1566.67 260.01C1850.59 256.407 1810.98 1246.05 1718.53 869.527C1626.09 493.008 1629.69 936.184 1160.88 936.184Z" fill="#505050"/>
  </g>
  <g filter="url(#filter1_f_494_5151)">
    <path d="M51.9185 -173.16C-92.7173 -362.805 -272.825 -300.277 -344.8 -245.308C-691.401 210.533 108.124 351.547 466.903 429.317C825.683 507.086 691.726 35.7855 504.374 76.5441C317.022 117.303 232.713 63.8954 51.9185 -173.16Z" fill="#B38F00"/>
  </g>
  <g filter="url(#filter2_f_494_5151)">
    <path d="M1147.42 929.188C911.49 894.253 826.097 500.71 812.892 1154.31C882.661 1722.69 1553.79 1265.85 1865.07 1071.22C2176.34 876.599 1751.54 632.448 745.77 792.369C1540 952.289 1442.34 972.856 1147.42 929.188Z" fill="#B38F00"/>
  </g>
  <g filter="url(#filter3_f_494_5151)">
    <path d="M387.996 330.901C92.8576 147.623 -346.73 135.613 -516.504 201.9C-602.06 235.305 398.188 440.976 553.316 466.836C656.501 484.037 754.816 558.693 387.996 330.901Z" fill="#333322"/>
  </g>
  <g filter="url(#filter4_f_494_5151)">
    <path d="M1982.27 224.564C2081.26 404.087 1940.06 726.308 1580.92 475.436C1221.79 224.564 1874.06 12.0518 1982.27 224.564Z" fill="#B38F00"/>
  </g>
  <g filter="url(#filter5_f_494_5151)">
    <path d="M-107.232 981.886C-202.919 1155.15 -66.435 1466.13 280.708 1224.01C627.851 981.886 -2.64377 776.787 -107.232 981.886Z" fill="#B38F00"/>
  </g>
  <g opacity="0.57" filter="url(#filter6_f_494_5151)">
    <path d="M1602.06 272.26C1663.19 332.863 1765.32 313.718 1808.75 296.571C2009.14 229.467 1798.36 84.0657 1620.56 -38.3227C1442.76 -160.711 1468.83 -45.4967 1431.52 131.704C1394.21 308.905 1525.66 196.507 1602.06 272.26Z" fill="var(--primary-yellow)"/>
  </g>
  <g opacity="0.66" filter="url(#filter7_f_494_5151)">
    <path d="M180.442 1172.31C121.359 1230.89 22.6328 1212.38 -19.3446 1195.81C-213.048 1130.94 -9.3011 990.391 162.564 872.086C334.428 753.781 309.233 865.151 345.296 1036.44C381.36 1207.73 254.297 1099.08 180.442 1172.31Z" fill="var(--primary-yellow)"/>
  </g>
  <defs>
    <filter id="filter0_f_494_5151" x="556" y="-11" width="1502" height="1237" filterUnits="userSpaceOnUse" color-interpolation-filters="sRGB">
      <feFlood flood-opacity="0" result="BackgroundImageFix"/>
      <feBlend mode="normal" in="SourceGraphic" in2="BackgroundImageFix" result="shape"/>
      <feGaussianBlur stdDeviation="135.5" result="effect1_foregroundBlur_494_5151"/>
    </filter>
    <filter id="filter1_f_494_5151" x="-601" y="-472" width="1464" height="1081" filterUnits="userSpaceOnUse" color-interpolation-filters="sRGB">
      <feFlood flood-opacity="0" result="BackgroundImageFix"/>
      <feBlend mode="normal" in="SourceGraphic" in2="BackgroundImageFix" result="shape"/>
      <feGaussianBlur stdDeviation="85.5" result="effect1_foregroundBlur_494_5151"/>
    </filter>
    <filter id="filter2_f_494_5151" x="641.892" y="569.621" width="1506.24" height="1031.01" filterUnits="userSpaceOnUse" color-interpolation-filters="sRGB">
      <feFlood flood-opacity="0" result="BackgroundImageFix"/>
      <feBlend mode="normal" in="SourceGraphic" in2="BackgroundImageFix" result="shape"/>
      <feGaussianBlur stdDeviation="85.5" result="effect1_foregroundBlur_494_5151"/>
    </filter>
    <filter id="filter3_f_494_5151" x="-617.684" y="69.0591" width="1361.51" height="519.222" filterUnits="userSpaceOnUse" color-interpolation-filters="sRGB">
      <feFlood flood-opacity="0" result="BackgroundImageFix"/>
      <feBlend mode="normal" in="SourceGraphic" in2="BackgroundImageFix" result="shape"/>
      <feGaussianBlur stdDeviation="48" result="effect1_foregroundBlur_494_5151"/>
    </filter>
    <filter id="filter4_f_494_5151" x="1248.06" y="-88.5236" width="991" height="882" filterUnits="userSpaceOnUse" color-interpolation-filters="sRGB">
      <feFlood flood-opacity="0" result="BackgroundImageFix"/>
      <feBlend mode="normal" in="SourceGraphic" in2="BackgroundImageFix" result="shape"/>
      <feGaussianBlur stdDeviation="113" result="effect1_foregroundBlur_494_5151"/>
    </filter>
    <filter id="filter5_f_494_5151" x="-363" y="671.836" width="973" height="867" filterUnits="userSpaceOnUse" color-interpolation-filters="sRGB">
      <feFlood flood-opacity="0" result="BackgroundImageFix"/>
      <feBlend mode="normal" in="SourceGraphic" in2="BackgroundImageFix" result="shape"/>
      <feGaussianBlur stdDeviation="113" result="effect1_foregroundBlur_494_5151"/>
    </filter>
    <filter id="filter6_f_494_5151" x="1219.99" y="-294.138" width="875.189" height="812.743" filterUnits="userSpaceOnUse" color-interpolation-filters="sRGB">
      <feFlood flood-opacity="0" result="BackgroundImageFix"/>
      <feBlend mode="normal" in="SourceGraphic" in2="BackgroundImageFix" result="shape"/>
      <feGaussianBlur stdDeviation="102.5" result="effect1_foregroundBlur_494_5151"/>
    </filter>
    <filter id="filter7_f_494_5151" x="-303.062" y="617.966" width="859.668" height="799.305" filterUnits="userSpaceOnUse" color-interpolation-filters="sRGB">
      <feFlood flood-opacity="0" result="BackgroundImageFix"/>
      <feBlend mode="normal" in="SourceGraphic" in2="BackgroundImageFix" result="shape"/>
      <feGaussianBlur stdDeviation="102.5" result="effect1_foregroundBlur_494_5151"/>
    </filter>
  </defs>
</svg>

